<svg id="Camada_1" data-name="Camada 1" xmlns="http://www.w3.org/2000/svg" xmlns:xlink="http://www.w3.org/1999/xlink" viewBox="0 0 792.63 772.19"><defs><style>.cls-1{fill:#333;stroke:#000;stroke-miterlimit:10;stroke-width:0.75px;isolation:isolate;}.cls-2{fill:url(#Gradiente_sem_nome_3);}.cls-3{fill:url(#Gradiente_sem_nome_4);}.cls-4{fill:url(#Gradiente_sem_nome_7);}.cls-5{fill:url(#Gradiente_sem_nome_8);}.cls-6{fill:url(#Gradiente_sem_nome_9);}.cls-7{fill:url(#Gradiente_sem_nome_10);}.cls-8{fill:url(#Gradiente_sem_nome_11);}.cls-9{fill:url(#Gradiente_sem_nome_12);}.cls-10{fill:url(#Gradiente_sem_nome_13);}.cls-11{fill:url(#Gradiente_sem_nome_14);}.cls-12{fill:url(#Gradiente_sem_nome_15);}.cls-13{fill:url(#Gradiente_sem_nome_16);}.cls-14{fill:url(#Gradiente_sem_nome_17);}.cls-15{fill:url(#Gradiente_sem_nome_18);}.cls-16{fill:url(#Gradiente_sem_nome_19);}.cls-17{fill:url(#Gradiente_sem_nome_20);}.cls-18{fill:url(#Gradiente_sem_nome_21);}.cls-19{fill:url(#Gradiente_sem_nome_22);}.cls-20{fill:url(#Gradiente_sem_nome_23);}.cls-21{fill:url(#Gradiente_sem_nome_24);}.cls-22{fill:url(#Gradiente_sem_nome_25);}.cls-23{fill:url(#Gradiente_sem_nome_26);}.cls-24{fill:url(#Gradiente_sem_nome_27);}.cls-25{fill:url(#Gradiente_sem_nome_28);}.cls-26{fill:url(#Gradiente_sem_nome_29);}.cls-27{fill:url(#Gradiente_sem_nome_30);}.cls-28{fill:url(#Gradiente_sem_nome_31);}.cls-29{fill:url(#Gradiente_sem_nome_33);}.cls-30{fill:url(#Gradiente_sem_nome_34);}.cls-31{fill:url(#Gradiente_sem_nome_35);}.cls-32{fill:url(#Gradiente_sem_nome_36);}.cls-33{fill:url(#Gradiente_sem_nome_38);}.cls-34{fill:url(#Gradiente_sem_nome_39);}.cls-35{fill:url(#Gradiente_sem_nome_40);}.cls-36{fill:url(#Gradiente_sem_nome_10-2);}.cls-37{fill:url(#Gradiente_sem_nome_10-3);}.cls-38{fill:url(#Gradiente_sem_nome_10-4);}.cls-39{fill:url(#Gradiente_sem_nome_10-5);}.cls-40{fill:url(#Gradiente_sem_nome_10-6);}.cls-41{fill:url(#Gradiente_sem_nome_10-7);}.cls-42{fill:url(#Gradiente_sem_nome_10-8);}.cls-43{fill:url(#Gradiente_sem_nome_10-9);}.cls-44{fill:url(#Gradiente_sem_nome_10-10);}.cls-45{fill:url(#Gradiente_sem_nome_10-11);}.cls-46{fill:url(#Gradiente_sem_nome_10-12);}.cls-47{fill:url(#Gradiente_sem_nome_10-13);}.cls-48{opacity:0.5;fill:url(#Gradiente_sem_nome_10-14);}.cls-49{fill:url(#Gradiente_sem_nome_10-15);}.cls-50{fill:url(#Gradiente_sem_nome_10-16);}.cls-51{fill:url(#Gradiente_sem_nome_10-17);}.cls-52{fill:url(#Gradiente_sem_nome_10-18);}.cls-53{fill:url(#Gradiente_sem_nome_10-19);}.cls-54{fill:url(#Gradiente_sem_nome_41);}.cls-55{fill:url(#Gradiente_sem_nome_42);}.cls-56{fill:url(#Gradiente_sem_nome_43);}.cls-57{fill:url(#Gradiente_sem_nome_44);}.cls-58{fill:url(#Gradiente_sem_nome_46);}.cls-59{fill:url(#Gradiente_sem_nome_47);}.cls-60,.cls-67{fill:#aaa;}.cls-61{fill:#fff;opacity:0.3;}.cls-62{fill:url(#Gradiente_sem_nome_10-20);}.cls-63{fill:url(#Gradiente_sem_nome_10-21);}.cls-64{fill:url(#Gradiente_sem_nome_10-22);}.cls-65{fill:url(#Gradiente_sem_nome_10-23);}.cls-66{fill:url(#Gradiente_sem_nome_10-24);}.cls-67{opacity:0.25;}</style><linearGradient id="Gradiente_sem_nome_3" x1="529.86" y1="490.23" x2="608.19" y2="545.07" gradientTransform="matrix(1, 0, 0, -1, 0, 774)" gradientUnits="userSpaceOnUse"><stop offset="0" stop-color="#3ddeed"/><stop offset="0.05" stop-color="#3dd9ed"/><stop offset="0.11" stop-color="#3dcaed"/><stop offset="0.17" stop-color="#3db2ed"/><stop offset="0.29" stop-color="#12c2ed"/><stop offset="0.36" stop-color="#00c9ed"/><stop offset="0.38" stop-color="#0ac7ed"/><stop offset="0.46" stop-color="#26c2ed"/><stop offset="0.53" stop-color="#37bfed"/><stop offset="0.58" stop-color="#3dbeed"/><stop offset="0.67" stop-color="#4ed2f6"/><stop offset="0.77" stop-color="#5adffd"/><stop offset="0.85" stop-color="#5ee4ff"/><stop offset="0.85" stop-color="#5de4ff"/><stop offset="0.87" stop-color="#40e6ff"/><stop offset="0.88" stop-color="#29e7ff"/><stop offset="0.9" stop-color="#16e8ff"/><stop offset="0.92" stop-color="#0ae8ff"/><stop offset="0.94" stop-color="#02e9ff"/><stop offset="1" stop-color="#00e9ff"/></linearGradient><linearGradient id="Gradiente_sem_nome_4" x1="616.68" y1="430.72" x2="669.87" y2="467.96" xlink:href="#Gradiente_sem_nome_3"/><linearGradient id="Gradiente_sem_nome_7" x1="582.89" y1="607.8" x2="593.57" y2="615.28" xlink:href="#Gradiente_sem_nome_3"/><linearGradient id="Gradiente_sem_nome_8" x1="563.12" y1="654.36" x2="577.62" y2="664.52" xlink:href="#Gradiente_sem_nome_3"/><linearGradient id="Gradiente_sem_nome_9" x1="448.17" y1="567.86" x2="569.54" y2="652.84" xlink:href="#Gradiente_sem_nome_3"/><linearGradient id="Gradiente_sem_nome_10" x1="569.61" y1="690.12" x2="587.59" y2="702.71" xlink:href="#Gradiente_sem_nome_3"/><linearGradient id="Gradiente_sem_nome_11" x1="544.69" y1="670.13" x2="566.38" y2="685.32" xlink:href="#Gradiente_sem_nome_3"/><linearGradient id="Gradiente_sem_nome_12" x1="522.35" y1="651.9" x2="542.87" y2="666.27" xlink:href="#Gradiente_sem_nome_3"/><linearGradient id="Gradiente_sem_nome_13" x1="599.27" y1="655.72" x2="616.65" y2="667.88" xlink:href="#Gradiente_sem_nome_3"/><linearGradient id="Gradiente_sem_nome_14" x1="562.42" y1="625.98" x2="597.8" y2="650.76" xlink:href="#Gradiente_sem_nome_3"/><linearGradient id="Gradiente_sem_nome_15" x1="548.42" y1="612.29" x2="562.4" y2="622.08" xlink:href="#Gradiente_sem_nome_3"/><linearGradient id="Gradiente_sem_nome_16" x1="579.2" y1="668.06" x2="619.02" y2="695.94" xlink:href="#Gradiente_sem_nome_3"/><linearGradient id="Gradiente_sem_nome_17" x1="521.99" y1="623.04" x2="561.38" y2="650.62" xlink:href="#Gradiente_sem_nome_3"/><linearGradient id="Gradiente_sem_nome_18" x1="549.7" y1="694.34" x2="561.37" y2="702.51" xlink:href="#Gradiente_sem_nome_3"/><linearGradient id="Gradiente_sem_nome_19" x1="464.08" y1="577.45" x2="517.81" y2="615.07" xlink:href="#Gradiente_sem_nome_3"/><linearGradient id="Gradiente_sem_nome_20" x1="481.57" y1="583.92" x2="492.03" y2="591.26" xlink:href="#Gradiente_sem_nome_3"/><linearGradient id="Gradiente_sem_nome_21" x1="476.84" y1="601.25" x2="487.32" y2="608.6" xlink:href="#Gradiente_sem_nome_3"/><linearGradient id="Gradiente_sem_nome_22" x1="500.48" y1="590.22" x2="510.95" y2="597.55" xlink:href="#Gradiente_sem_nome_3"/><linearGradient id="Gradiente_sem_nome_23" x1="620.77" y1="562.74" x2="677.02" y2="602.13" xlink:href="#Gradiente_sem_nome_3"/><linearGradient id="Gradiente_sem_nome_24" x1="638.77" y1="336.79" x2="703.66" y2="382.23" xlink:href="#Gradiente_sem_nome_3"/><linearGradient id="Gradiente_sem_nome_25" x1="683.07" y1="144.81" x2="716.26" y2="168.05" xlink:href="#Gradiente_sem_nome_3"/><linearGradient id="Gradiente_sem_nome_26" x1="477.89" y1="364.69" x2="495.62" y2="377.1" xlink:href="#Gradiente_sem_nome_3"/><linearGradient id="Gradiente_sem_nome_27" x1="465.38" y1="323.34" x2="486" y2="337.78" xlink:href="#Gradiente_sem_nome_3"/><linearGradient id="Gradiente_sem_nome_28" x1="655.98" y1="105" x2="682.43" y2="123.52" xlink:href="#Gradiente_sem_nome_3"/><linearGradient id="Gradiente_sem_nome_29" x1="181.49" y1="610.29" x2="203.09" y2="625.41" xlink:href="#Gradiente_sem_nome_3"/><linearGradient id="Gradiente_sem_nome_30" x1="294.28" y1="395.78" x2="308.81" y2="405.95" xlink:href="#Gradiente_sem_nome_3"/><linearGradient id="Gradiente_sem_nome_31" x1="578.54" y1="134.09" x2="593.7" y2="144.71" xlink:href="#Gradiente_sem_nome_3"/><linearGradient id="Gradiente_sem_nome_33" x1="295.4" y1="427.6" x2="307.71" y2="436.22" xlink:href="#Gradiente_sem_nome_3"/><linearGradient id="Gradiente_sem_nome_34" x1="386.58" y1="290.85" x2="398.34" y2="299.08" xlink:href="#Gradiente_sem_nome_3"/><linearGradient id="Gradiente_sem_nome_35" x1="414.03" y1="290.85" x2="425.78" y2="299.08" xlink:href="#Gradiente_sem_nome_3"/><linearGradient id="Gradiente_sem_nome_36" x1="362.99" y1="632.59" x2="408.86" y2="664.71" xlink:href="#Gradiente_sem_nome_3"/><linearGradient id="Gradiente_sem_nome_38" x1="277.5" y1="647.04" x2="322.21" y2="678.34" xlink:href="#Gradiente_sem_nome_3"/><linearGradient id="Gradiente_sem_nome_39" x1="224.29" y1="636.44" x2="248.87" y2="653.65" xlink:href="#Gradiente_sem_nome_3"/><linearGradient id="Gradiente_sem_nome_40" x1="149.62" y1="574.87" x2="167.7" y2="587.54" xlink:href="#Gradiente_sem_nome_3"/><linearGradient id="Gradiente_sem_nome_10-2" x1="308.96" y1="448.76" x2="321.27" y2="457.38" xlink:href="#Gradiente_sem_nome_3"/><linearGradient id="Gradiente_sem_nome_10-3" x1="125.28" y1="625.33" x2="158.31" y2="648.45" xlink:href="#Gradiente_sem_nome_3"/><linearGradient id="Gradiente_sem_nome_10-4" x1="444.65" y1="293.38" x2="465.27" y2="307.82" xlink:href="#Gradiente_sem_nome_3"/><linearGradient id="Gradiente_sem_nome_10-5" x1="326.8" y1="464.54" x2="339.11" y2="473.16" xlink:href="#Gradiente_sem_nome_3"/><linearGradient id="Gradiente_sem_nome_10-6" x1="353.79" y1="473.63" x2="366.1" y2="482.25" xlink:href="#Gradiente_sem_nome_3"/><linearGradient id="Gradiente_sem_nome_10-7" x1="137.76" y1="523.51" x2="152.79" y2="534.03" xlink:href="#Gradiente_sem_nome_3"/><linearGradient id="Gradiente_sem_nome_10-8" x1="131.81" y1="472.69" x2="146.84" y2="483.21" xlink:href="#Gradiente_sem_nome_3"/><linearGradient id="Gradiente_sem_nome_10-9" x1="681.11" y1="273.24" x2="718.23" y2="299.23" xlink:href="#Gradiente_sem_nome_3"/><linearGradient id="Gradiente_sem_nome_10-10" x1="665.96" y1="205.48" x2="699.34" y2="228.85" xlink:href="#Gradiente_sem_nome_3"/><linearGradient id="Gradiente_sem_nome_10-11" x1="613.78" y1="85.42" x2="640.24" y2="103.94" xlink:href="#Gradiente_sem_nome_3"/><linearGradient id="Gradiente_sem_nome_10-12" x1="636.18" y1="188.59" x2="650.34" y2="198.5" xlink:href="#Gradiente_sem_nome_3"/><linearGradient id="Gradiente_sem_nome_10-13" x1="616.22" y1="158.06" x2="631.38" y2="168.67" xlink:href="#Gradiente_sem_nome_3"/><linearGradient id="Gradiente_sem_nome_10-14" x1="390.16" y1="379.69" x2="402.47" y2="388.31" xlink:href="#Gradiente_sem_nome_3"/><linearGradient id="Gradiente_sem_nome_10-15" x1="677.49" y1="485.01" x2="711.9" y2="509.1" xlink:href="#Gradiente_sem_nome_3"/><linearGradient id="Gradiente_sem_nome_10-16" x1="697.56" y1="415.99" x2="717.11" y2="429.68" xlink:href="#Gradiente_sem_nome_3"/><linearGradient id="Gradiente_sem_nome_10-17" x1="443.15" y1="664.55" x2="473.17" y2="685.57" xlink:href="#Gradiente_sem_nome_3"/><linearGradient id="Gradiente_sem_nome_10-18" x1="357.31" y1="696.71" x2="372.27" y2="707.19" xlink:href="#Gradiente_sem_nome_3"/><linearGradient id="Gradiente_sem_nome_10-19" x1="400.77" y1="688.49" x2="421.9" y2="703.28" xlink:href="#Gradiente_sem_nome_3"/><linearGradient id="Gradiente_sem_nome_41" x1="118.62" y1="201.25" x2="235.4" y2="283.02" gradientTransform="matrix(1, 0, 0, -1, 0, 774)" gradientUnits="userSpaceOnUse"><stop offset="0" stop-color="#ff7300"/><stop offset="0.18" stop-color="#f97c01"/><stop offset="0.47" stop-color="#ea9602"/><stop offset="0.55" stop-color="#e59e03"/><stop offset="0.87" stop-color="#e5c500"/><stop offset="0.99" stop-color="#bf6f00"/></linearGradient><linearGradient id="Gradiente_sem_nome_42" x1="167.93" y1="195.57" x2="238.2" y2="244.78" xlink:href="#Gradiente_sem_nome_41"/><linearGradient id="Gradiente_sem_nome_43" x1="268.4" y1="129.34" x2="384.46" y2="210.62" xlink:href="#Gradiente_sem_nome_41"/><linearGradient id="Gradiente_sem_nome_44" x1="35.19" y1="28.9" x2="99.58" y2="73.98" gradientTransform="matrix(0.71, -0.71, -0.71, -0.71, 123.24, 738.44)" xlink:href="#Gradiente_sem_nome_41"/><linearGradient id="Gradiente_sem_nome_46" x1="422.32" y1="452.78" x2="602.52" y2="578.97" gradientTransform="matrix(1, 0, 0, -1, -426.46, 892.95)" xlink:href="#Gradiente_sem_nome_41"/><linearGradient id="Gradiente_sem_nome_47" x1="-409.89" y1="814.06" x2="-285.64" y2="901.04" gradientTransform="translate(-422.42 352.18) rotate(-90)" xlink:href="#Gradiente_sem_nome_41"/><linearGradient id="Gradiente_sem_nome_10-20" x1="654.03" y1="652.63" x2="688.44" y2="676.72" xlink:href="#Gradiente_sem_nome_3"/><linearGradient id="Gradiente_sem_nome_10-21" x1="691.36" y1="618.02" x2="710.91" y2="631.71" xlink:href="#Gradiente_sem_nome_3"/><linearGradient id="Gradiente_sem_nome_10-22" x1="700.5" y1="577.49" x2="716.35" y2="588.58" xlink:href="#Gradiente_sem_nome_3"/><linearGradient id="Gradiente_sem_nome_10-23" x1="158.35" y1="666.17" x2="191.38" y2="689.29" xlink:href="#Gradiente_sem_nome_3"/><linearGradient id="Gradiente_sem_nome_10-24" x1="210.53" y1="679.75" x2="243.56" y2="702.87" xlink:href="#Gradiente_sem_nome_3"/></defs><g id="Shutter"><rect class="cls-1" x="59.57" y="52.76" width="673.48" height="673.48" rx="79.66"/><path class="cls-2" d="M625.9,254.75l-17.74-6.54a52.35,52.35,0,0,1-31-31l-6.54-17.74a1.7,1.7,0,0,0-3.19,0l-6.54,17.74a52.35,52.35,0,0,1-31,31l-17.75,6.54a1.7,1.7,0,0,0,0,3.19l17.75,6.55a52.25,52.25,0,0,1,31,31l6.54,17.74a1.7,1.7,0,0,0,3.19,0l6.54-17.74a52.25,52.25,0,0,1,31-31l17.74-6.55a1.7,1.7,0,0,0,0-3.19Z"/><path class="cls-3" d="M681.92,323.64l-12.06-4.45a35.54,35.54,0,0,1-21-21L644.36,286a1.15,1.15,0,0,0-2.16,0l-4.45,12.06a35.58,35.58,0,0,1-21.06,21l-12.06,4.45a1.16,1.16,0,0,0,0,2.17l12.06,4.44a35.57,35.57,0,0,1,21.06,21.06l4.45,12.06a1.15,1.15,0,0,0,2.16,0l4.45-12.06a35.58,35.58,0,0,1,21-21.06l12.06-4.44a1.15,1.15,0,0,0,.7-1.47,1.13,1.13,0,0,0-.7-.7Z"/><path class="cls-4" d="M587.81,168.78a5.94,5.94,0,0,0,3.59-1.2l.84-.63a6,6,0,1,0-7.19-9.61h0l-.84.63a6,6,0,0,0,3.6,10.8Z"/><path class="cls-5" d="M568.12,122.33a6,6,0,0,0,3.7-1.28l4.5-3.53a6,6,0,0,0-7.12-9.66l-.28.22h0l-4.5,3.53a6,6,0,0,0,3.7,10.72Z"/><path class="cls-6" d="M484,228.9a52.62,52.62,0,0,0,7.52.54,51.35,51.35,0,0,0,30.93-10.33l57.19-42.76a6,6,0,1,0-7.07-9.7h0l-.12.09L515.3,209.5a39.84,39.84,0,0,1-47.72-63.82h0L541,90.78A6,6,0,0,0,534,81l-.16.12h-.06L460.4,136A51.84,51.84,0,0,0,484,228.86Z"/><path class="cls-7" d="M574.73,86.7a6,6,0,0,0,3.78-1.34l7.76-6.3a6,6,0,0,0-7.54-9.31L571,76.05a6,6,0,0,0,3.76,10.65Z"/><path class="cls-8" d="M549.91,106.84a6,6,0,0,0,3.78-1.34L565,96.35A6,6,0,1,0,557.39,87l-11.27,9.15a6,6,0,0,0,3.79,10.66Z"/><path class="cls-9" d="M533.89,106.11l-10.16,8.29a6,6,0,0,0,7.56,9.32h0l10.21-8.29a6,6,0,1,0-7.57-9.32h0Z"/><path class="cls-10" d="M604.42,121.18a6,6,0,0,0,3.86-1.41l7-5.91a6,6,0,0,0-7.58-9.3l0,0-.1.08-7,5.92a6,6,0,0,0,3.87,10.59Z"/><path class="cls-11" d="M568.12,151.71a5.86,5.86,0,0,0,3.86-1.4l23.9-20.12a6,6,0,0,0-7.58-9.3l0,0-.1.09-23.9,20.11a6,6,0,0,0,3.86,10.59Z"/><path class="cls-12" d="M553.47,164.45a6,6,0,0,0,3.86-1.41l3.94-3.31a6,6,0,1,0-7.72-9.19l-3.82,3.19a6.16,6.16,0,0,0-2,6.5A6,6,0,0,0,553.47,164.45Z"/><path class="cls-13" d="M580,107a6,6,0,0,0,8.43,1h0L617.24,85.4a6,6,0,1,0-7.12-9.66l-.28.22h0L581,98.59a6,6,0,0,0-1,8.42Z"/><path class="cls-14" d="M531.19,153.12l28.39-22.46a6,6,0,0,0-7.45-9.41h0l-28.4,22.47a6,6,0,0,0,7.44,9.4Z"/><path class="cls-15" d="M552.73,82.1A7.12,7.12,0,1,0,549,72.75a7.31,7.31,0,0,0-.58,2.77h0A7,7,0,0,0,552.73,82.1Z"/><path class="cls-16" d="M491,144.93a32.8,32.8,0,1,0,32.8,32.8h0A32.83,32.83,0,0,0,491,144.93Zm0,53.59a20.8,20.8,0,1,1,20.8-20.8h0a20.81,20.81,0,0,1-20.8,20.8Z"/><path class="cls-17" d="M486.8,180a6.39,6.39,0,1,0,6.39,6.39A6.39,6.39,0,0,0,486.8,180Z"/><path class="cls-18" d="M488.49,169.07a6.4,6.4,0,1,0-6.4,6.4h0A6.41,6.41,0,0,0,488.49,169.07Z"/><path class="cls-19" d="M499.32,180.1a6.4,6.4,0,1,0,6.41-6.39h0a6.39,6.39,0,0,0-6.4,6.38Z"/><path class="cls-20" d="M681.94,205.07a34.32,34.32,0,0,0-37.85-46c-12.64-10.75-22-13.83-27.78-9.1-1.86,1.51-7.5,6.11.37,23.23.69,1.5,1.46,3.06,2.31,4.65a30.19,30.19,0,0,0-1.25,2.86,34.36,34.36,0,0,0,32.11,46.56,34,34,0,0,0,9.36-1.32l1.21.91c6.61,4.84,12.06,7.25,16.48,7.25a9.94,9.94,0,0,0,6-1.92c6.72-4.91,3.28-16.31-1.44-25.95.16-.37.31-.74.46-1.12Zm-57.64-44.7a34.75,34.75,0,0,1,6.34,3.72,36.59,36.59,0,0,0-4,3,35,35,0,0,1-2.34-6.75Zm18,53.37a22.37,22.37,0,0,1-14.36-22.12c2.49,3.57,5.22,7.2,8.15,10.78,3.7,4.53,7.51,8.78,11.3,12.6a22.82,22.82,0,0,1-5.09-1.25Zm19-1.71A146.61,146.61,0,0,1,645,194.81a156.7,156.7,0,0,1-12-16.64A22.33,22.33,0,1,1,661.28,212Zm10,7.65a22.85,22.85,0,0,0,2-1.76,26.8,26.8,0,0,1,1,3.42,27.67,27.67,0,0,1-3.08-1.66Z"/><path class="cls-21" d="M718.34,413.17l-14.69-5.42A43.32,43.32,0,0,1,678,382.07l-5.42-14.7a1.4,1.4,0,0,0-2.64,0l-5.42,14.7a43.35,43.35,0,0,1-25.69,25.68l-14.69,5.42a1.41,1.41,0,0,0-.84,1.81,1.45,1.45,0,0,0,.84.84l14.69,5.41a43.37,43.37,0,0,1,25.69,25.69l5.42,14.69a1.4,1.4,0,0,0,2.64,0L678,446.92a43.37,43.37,0,0,1,25.69-25.69l14.69-5.41a1.41,1.41,0,0,0,.84-1.81A1.45,1.45,0,0,0,718.34,413.17Z"/><path class="cls-22" d="M723.77,616.93l-7.55-2.8A22.17,22.17,0,0,1,703.09,601l-2.78-7.52a.71.71,0,0,0-.67-.47.74.74,0,0,0-.68.47L696.19,601a22.22,22.22,0,0,1-13.11,13.14l-7.52,2.77a.72.72,0,0,0-.42.94.77.77,0,0,0,.42.41l7.52,2.77a22.17,22.17,0,0,1,13.13,13.14l2.78,7.52a.72.72,0,0,0,1.35,0l2.78-7.52a22.14,22.14,0,0,1,13.1-13.1l7.53-2.78a.71.71,0,0,0,.41-.93.74.74,0,0,0-.41-.42Z"/><path class="cls-23" d="M499.64,402.72l-4-1.48a11.86,11.86,0,0,1-7-7l-1.48-4a.39.39,0,0,0-.5-.23.4.4,0,0,0-.23.23l-1.48,4a11.81,11.81,0,0,1-7,7l-4,1.48a.42.42,0,0,0-.25.36.38.38,0,0,0,.25.36l4,1.48a11.84,11.84,0,0,1,7,7l1.48,4a.41.41,0,0,0,.51.23.36.36,0,0,0,.22-.23l1.48-4a11.89,11.89,0,0,1,7-7l4-1.48a.35.35,0,0,0,.25-.36A.39.39,0,0,0,499.64,402.72Z"/><path class="cls-24" d="M490.66,443,486,441.3a13.77,13.77,0,0,1-8.16-8.16l-1.73-4.68a.44.44,0,0,0-.56-.26.46.46,0,0,0-.27.26l-1.73,4.68a13.72,13.72,0,0,1-8.16,8.16L460.71,443a.47.47,0,0,0-.29.42.49.49,0,0,0,.29.43l4.67,1.72a13.72,13.72,0,0,1,8.16,8.16l1.73,4.67a.46.46,0,0,0,.57.26.42.42,0,0,0,.26-.26l1.73-4.67a13.77,13.77,0,0,1,8.16-8.16l4.67-1.72a.46.46,0,0,0,0-.85Z"/><path class="cls-25" d="M688.42,659.21l-6-2.21A17.69,17.69,0,0,1,672,646.54l-2.21-6a.56.56,0,0,0-.54-.38.6.6,0,0,0-.54.38l-2.21,6A17.61,17.61,0,0,1,656,657l-6,2.21a.57.57,0,0,0,0,1.07l6,2.21A17.63,17.63,0,0,1,666.42,673l2.21,6a.6.6,0,0,0,.54.37.58.58,0,0,0,.54-.37l2.21-6a17.7,17.7,0,0,1,10.5-10.46l6-2.21a.56.56,0,0,0,.37-.54A.54.54,0,0,0,688.42,659.21Z"/><path class="cls-26" d="M208,155.71l-4.89-1.81a14.46,14.46,0,0,1-8.55-8.54l-1.8-4.89a.46.46,0,0,0-.6-.28.48.48,0,0,0-.28.28L190,145.36a14.42,14.42,0,0,1-8.54,8.54l-4.89,1.81a.45.45,0,0,0-.31.44.49.49,0,0,0,.31.44l4.89,1.8a14.45,14.45,0,0,1,8.55,8.55l1.8,4.89a.47.47,0,0,0,.61.27.51.51,0,0,0,.27-.27l1.8-4.89a14.47,14.47,0,0,1,8.55-8.55l4.89-1.8a.47.47,0,0,0,.31-.44A.45.45,0,0,0,208,155.71Z"/><path class="cls-27" d="M312.1,372.84l-3.3-1.21a9.78,9.78,0,0,1-5.75-5.75l-1.21-3.3a.33.33,0,0,0-.3-.2.31.31,0,0,0-.29.2l-1.22,3.3a9.67,9.67,0,0,1-5.75,5.75L291,372.84a.33.33,0,0,0-.2.3.3.3,0,0,0,.2.29l3.29,1.22a9.68,9.68,0,0,1,5.75,5.74l1.22,3.3a.31.31,0,0,0,.29.2.33.33,0,0,0,.3-.2l1.21-3.3a9.73,9.73,0,0,1,5.75-5.74l3.3-1.22a.29.29,0,0,0,.2-.29A.33.33,0,0,0,312.1,372.84Z"/><path class="cls-28" d="M597.13,634.29,593.69,633a10.15,10.15,0,0,1-6-6l-1.27-3.43a.35.35,0,0,0-.31-.22.36.36,0,0,0-.31.22L584.54,627a10.11,10.11,0,0,1-6,6l-3.44,1.26a.33.33,0,0,0-.2.42.39.39,0,0,0,.2.2l3.43,1.27a10.09,10.09,0,0,1,6,6l1.26,3.43a.33.33,0,0,0,.31.22.31.31,0,0,0,.31-.22l1.27-3.43a10.12,10.12,0,0,1,6-6l3.44-1.27a.34.34,0,0,0,.19-.43A.32.32,0,0,0,597.13,634.29Z"/><path class="cls-29" d="M310.49,341.82l-2.79-1a8.21,8.21,0,0,1-4.88-4.87l-1-2.79a.27.27,0,0,0-.5,0l-1,2.79a8.2,8.2,0,0,1-4.87,4.87l-2.79,1a.27.27,0,0,0-.15.35.25.25,0,0,0,.15.15l2.79,1a8.29,8.29,0,0,1,4.88,4.87l1,2.79a.25.25,0,0,0,.25.18.26.26,0,0,0,.19-.1l1-2.79a8.29,8.29,0,0,1,4.88-4.87l2.79-1a.27.27,0,0,0,.15-.35.31.31,0,0,0-.15-.15Z"/><path class="cls-30" d="M401,478.78l-2.67-1a7.94,7.94,0,0,1-4.65-4.65l-1-2.67a.25.25,0,0,0-.34-.14.27.27,0,0,0-.14.14l-1,2.67a7.91,7.91,0,0,1-4.58,4.67l-2.67,1a.27.27,0,0,0-.14.34.32.32,0,0,0,.14.14l2.67,1a7.85,7.85,0,0,1,4.65,4.66l1,2.66a.25.25,0,0,0,.31.17.24.24,0,0,0,.17-.17l1-2.67a7.94,7.94,0,0,1,4.65-4.65l2.67-1a.25.25,0,0,0,0-.48Z"/><path class="cls-31" d="M428.44,478.8l-2.66-1a7.87,7.87,0,0,1-4.66-4.65l-1-2.66a.25.25,0,0,0-.24-.17.27.27,0,0,0-.24.17l-1,2.66A7.78,7.78,0,0,1,414,477.8l-2.66,1a.27.27,0,0,0-.16.24.24.24,0,0,0,.16.24l2.66,1a7.78,7.78,0,0,1,4.65,4.65l1,2.66a.29.29,0,0,0,.24.17.25.25,0,0,0,.24-.17l1-2.66a7.87,7.87,0,0,1,4.66-4.65l2.66-1a.23.23,0,0,0,.17-.24A.26.26,0,0,0,428.44,478.8Z"/><path class="cls-32" d="M419.24,124.42l-10.4-3.83a30.67,30.67,0,0,1-18.15-18.16L386.85,92a1,1,0,0,0-1.3-.55A1,1,0,0,0,385,92l-3.84,10.39A30.62,30.62,0,0,1,363,120.59l-10.39,3.83a1,1,0,0,0,0,1.87L363,130.12a30.6,30.6,0,0,1,18.15,18.15l3.84,10.4a1,1,0,0,0,1.87,0l3.83-10.4a30.65,30.65,0,0,1,18.15-18.15l10.4-3.83a1,1,0,0,0,0-1.87Z"/><path class="cls-33" d="M332.31,110.39l-10.13-3.74A29.82,29.82,0,0,1,304.51,89l-3.74-10.13a1,1,0,0,0-1.33-.5,1,1,0,0,0-.49.5L295.21,89a29.89,29.89,0,0,1-17.7,17.69l-10.13,3.74a1,1,0,0,0,0,1.82L277.51,116a29.83,29.83,0,0,1,17.69,17.69l3.74,10.13a1,1,0,0,0,.91.63,1,1,0,0,0,.91-.63l3.75-10.13A29.83,29.83,0,0,1,322.2,116l10.13-3.74a1,1,0,0,0,0-1.82Z"/><path class="cls-34" d="M254.45,128.46l-5.58-2a16.47,16.47,0,0,1-9.73-9.73l-2-5.61a.54.54,0,0,0-.5-.35.51.51,0,0,0-.5.35L234,116.69a16.39,16.39,0,0,1-9.74,9.77l-5.57,2a.52.52,0,0,0-.35.5.54.54,0,0,0,.35.5l5.57,2a16.42,16.42,0,0,1,9.73,9.73l2.06,5.58a.53.53,0,0,0,.5.34.54.54,0,0,0,.5-.34l2-5.51a16.46,16.46,0,0,1,9.74-9.73l5.57-2a.54.54,0,0,0,.35-.5A.51.51,0,0,0,254.45,128.46Z"/><path class="cls-35" d="M171.78,192.43l-4.1-1.51a12.11,12.11,0,0,1-7.15-7.15l-1.51-4.1a.38.38,0,0,0-.37-.25.41.41,0,0,0-.37.25l-1.51,4.1a12.06,12.06,0,0,1-7.15,7.15l-4.1,1.51a.39.39,0,0,0-.21.52.41.41,0,0,0,.21.22l4.1,1.51a12,12,0,0,1,7.15,7.15l1.51,4.1a.41.41,0,0,0,.37.25.38.38,0,0,0,.37-.25l1.51-4.1a12.08,12.08,0,0,1,7.15-7.15l4.1-1.51a.38.38,0,0,0,.25-.49A.39.39,0,0,0,171.78,192.43Z"/><path class="cls-36" d="M324.05,320.67l-2.79-1a8.27,8.27,0,0,1-4.88-4.87l-1-2.79a.24.24,0,0,0-.25-.17.26.26,0,0,0-.25.17l-1,2.79a8.2,8.2,0,0,1-4.87,4.87l-2.79,1a.27.27,0,0,0-.15.35.31.31,0,0,0,.15.15l2.79,1a8.24,8.24,0,0,1,4.88,4.87l1,2.79a.3.3,0,0,0,.25.18.29.29,0,0,0,.19-.1l1-2.79a8.24,8.24,0,0,1,4.88-4.87l2.79-1a.28.28,0,0,0,.15-.36.26.26,0,0,0-.15-.14Z"/><path class="cls-37" d="M165.77,136.44l-7.48-2.77a22.05,22.05,0,0,1-13.07-13.06l-2.76-7.48a.71.71,0,0,0-.92-.42.7.7,0,0,0-.42.42l-2.77,7.48a22.06,22.06,0,0,1-13.06,13.06l-7.48,2.77a.69.69,0,0,0-.47.67.71.71,0,0,0,.47.67l7.48,2.75a22.15,22.15,0,0,1,13.08,13.08l2.75,7.47a.71.71,0,0,0,.92.42.67.67,0,0,0,.42-.42l2.76-7.47a22.11,22.11,0,0,1,13.07-13.08l7.48-2.75a.71.71,0,0,0,.47-.67A.69.69,0,0,0,165.77,136.44Z"/><path class="cls-38" d="M469.93,473l-4.67-1.72a13.82,13.82,0,0,1-8.16-8.16l-1.73-4.68a.44.44,0,0,0-.56-.27.45.45,0,0,0-.27.27l-1.73,4.68a13.77,13.77,0,0,1-8.16,8.16L440,473a.47.47,0,0,0-.29.42.48.48,0,0,0,.29.42l4.67,1.72a13.74,13.74,0,0,1,8.16,8.16l1.73,4.67a.45.45,0,0,0,.57.27.46.46,0,0,0,.26-.27l1.73-4.67a13.79,13.79,0,0,1,8.16-8.16l4.67-1.72a.45.45,0,0,0,0-.84Z"/><path class="cls-39" d="M341.9,304.88l-2.79-1a8.19,8.19,0,0,1-4.88-4.87l-1-2.79a.27.27,0,0,0-.25-.17.26.26,0,0,0-.25.17l-1,2.79a8.22,8.22,0,0,1-4.87,4.87l-2.79,1a.28.28,0,0,0-.15.36.23.23,0,0,0,.15.14l2.79,1a8.35,8.35,0,0,1,4.88,4.87l1,2.79a.25.25,0,0,0,.25.18.26.26,0,0,0,.19-.1l1-2.79a8.29,8.29,0,0,1,4.88-4.87l2.79-1a.26.26,0,0,0,.14-.35.26.26,0,0,0-.14-.15Z"/><path class="cls-40" d="M368.88,295.8l-2.79-1a8.24,8.24,0,0,1-4.88-4.87l-1-2.79A.25.25,0,0,0,360,287a.27.27,0,0,0-.25.17l-1,2.79a8.2,8.2,0,0,1-4.87,4.87l-2.79,1a.27.27,0,0,0-.15.35.28.28,0,0,0,.15.15l2.79,1a8.24,8.24,0,0,1,4.88,4.87l1,2.79a.28.28,0,0,0,.25.18.3.3,0,0,0,.19-.1l1-2.79a8.24,8.24,0,0,1,4.88-4.87l2.79-1a.27.27,0,0,0,0-.5Z"/><path class="cls-41" d="M156.18,244.92l-3.41-1.25a10.07,10.07,0,0,1-5.94-5.94l-1.25-3.41a.34.34,0,0,0-.31-.21.33.33,0,0,0-.31.21l-1.25,3.41a10.07,10.07,0,0,1-5.94,5.94l-3.41,1.25a.33.33,0,0,0-.18.43.34.34,0,0,0,.18.19l3.41,1.25a10,10,0,0,1,5.94,5.94l1.25,3.41a.33.33,0,0,0,.31.2.33.33,0,0,0,.31-.2l1.25-3.41a10.07,10.07,0,0,1,5.94-5.94l3.41-1.25a.33.33,0,0,0,0-.62Z"/><path class="cls-42" d="M150.23,295.75l-3.41-1.26a10,10,0,0,1-5.94-5.94l-1.25-3.41a.33.33,0,0,0-.31-.2.33.33,0,0,0-.31.2l-1.25,3.41a10,10,0,0,1-5.94,5.94l-3.41,1.26a.33.33,0,0,0-.18.43.32.32,0,0,0,.18.18l3.41,1.26a10,10,0,0,1,5.94,5.94L139,307a.33.33,0,0,0,.31.21.34.34,0,0,0,.31-.21l1.25-3.4a10,10,0,0,1,5.94-5.94l3.41-1.26a.32.32,0,0,0,.2-.41A.31.31,0,0,0,150.23,295.75Z"/><path class="cls-43" d="M726.62,487.06l-8.44-3.14a24.76,24.76,0,0,1-14.68-14.69l-3.11-8.41a.81.81,0,0,0-.75-.52.8.8,0,0,0-.76.52l-3.1,8.41a24.83,24.83,0,0,1-14.66,14.69l-8.41,3.1a.81.81,0,0,0,0,1.51l8.41,3.1a24.8,24.8,0,0,1,14.69,14.69l3.1,8.41a.8.8,0,0,0,.76.53.79.79,0,0,0,.75-.53l3.11-8.41a24.77,24.77,0,0,1,14.65-14.65l8.42-3.1a.82.82,0,0,0,.46-1.05.8.8,0,0,0-.46-.46Z"/><path class="cls-44" d="M706.89,556.2l-7.59-2.83a22.22,22.22,0,0,1-13.2-13.2l-2.8-7.57a.73.73,0,0,0-1.36,0l-2.79,7.57A22.27,22.27,0,0,1,666,553.37l-7.56,2.79a.73.73,0,0,0,0,1.36l7.56,2.79a22.28,22.28,0,0,1,13.21,13.21l2.79,7.56a.74.74,0,0,0,.68.48.71.71,0,0,0,.68-.48l2.79-7.56a22.29,22.29,0,0,1,13.18-13.18l7.57-2.78a.73.73,0,0,0,.41-.95.69.69,0,0,0-.41-.41Z"/><path class="cls-45" d="M646.23,678.79l-6-2.21a17.67,17.67,0,0,1-10.46-10.46l-2.21-6a.57.57,0,0,0-.54-.38.59.59,0,0,0-.54.38l-2.21,6a17.64,17.64,0,0,1-10.46,10.46l-6,2.21a.56.56,0,0,0-.38.53.57.57,0,0,0,.38.54l6,2.21a17.68,17.68,0,0,1,10.42,10.46l2.21,6a.58.58,0,0,0,1.08,0l2.21-6a17.68,17.68,0,0,1,10.5-10.46l6-2.21a.58.58,0,0,0,.37-.54A.56.56,0,0,0,646.23,678.79Z"/><path class="cls-46" d="M653.54,580.16,650.33,579a9.42,9.42,0,0,1-5.6-5.6l-1.19-3.21a.3.3,0,0,0-.28-.2.3.3,0,0,0-.29.2l-1.18,3.21a9.45,9.45,0,0,1-5.6,5.6L633,580.16a.31.31,0,0,0-.18.4.29.29,0,0,0,.18.18l3.2,1.19a9.44,9.44,0,0,1,5.61,5.6l1.18,3.2a.31.31,0,0,0,.29.21.29.29,0,0,0,.28-.21l1.19-3.2a9.45,9.45,0,0,1,5.6-5.6l3.21-1.19a.31.31,0,0,0,.18-.4A.35.35,0,0,0,653.54,580.16Z"/><path class="cls-47" d="M634.81,610.33l-3.44-1.27a10.09,10.09,0,0,1-6-6l-1.27-3.43a.33.33,0,0,0-.62,0l-1.26,3.43a10.14,10.14,0,0,1-6,6l-3.44,1.27a.33.33,0,0,0-.19.42.3.3,0,0,0,.19.19l3.43,1.28a10.11,10.11,0,0,1,6,6l1.26,3.43a.33.33,0,0,0,.62,0l1.27-3.43a10.08,10.08,0,0,1,6-6l3.44-1.28a.32.32,0,0,0,.19-.42A.3.3,0,0,0,634.81,610.33Z"/><path class="cls-48" d="M405.25,389.73l-2.79-1a8.24,8.24,0,0,1-4.88-4.87l-1-2.79a.27.27,0,0,0-.5,0l-1,2.79a8.2,8.2,0,0,1-4.87,4.87l-2.79,1a.28.28,0,0,0-.15.35.25.25,0,0,0,.15.15l2.79,1a8.29,8.29,0,0,1,4.88,4.87l1,2.79a.27.27,0,0,0,.25.18.26.26,0,0,0,.19-.1l1-2.79a8.29,8.29,0,0,1,4.88-4.87l2.79-1a.27.27,0,0,0,.15-.35.28.28,0,0,0-.15-.15Z"/><path class="cls-49" d="M719.69,276.28l-7.8-2.87a23,23,0,0,1-13.59-13.59L695.39,252a.75.75,0,0,0-.95-.44.74.74,0,0,0-.44.44l-2.88,7.8a23,23,0,0,1-13.63,13.59l-7.8,2.88a.75.75,0,0,0,0,1.4l7.8,2.87a23,23,0,0,1,13.63,13.62l2.88,7.8a.74.74,0,0,0,1,.45.75.75,0,0,0,.44-.45l2.88-7.8a23,23,0,0,1,13.58-13.62l7.8-2.87a.74.74,0,0,0,.46-.95.71.71,0,0,0-.46-.45Z"/><path class="cls-50" d="M721.54,350.79l-4.43-1.64a13,13,0,0,1-7.72-7.72L707.74,337a.43.43,0,0,0-.55-.25.44.44,0,0,0-.25.25l-1.63,4.43a13.09,13.09,0,0,1-7.74,7.72l-4.44,1.63a.43.43,0,0,0-.25.55.44.44,0,0,0,.25.25l4.44,1.63a13.14,13.14,0,0,1,7.74,7.75l1.63,4.43a.42.42,0,0,0,.54.25.43.43,0,0,0,.26-.25l1.63-4.43a13.08,13.08,0,0,1,7.72-7.75l4.43-1.63a.42.42,0,0,0,0-.8Z"/><path class="cls-51" d="M480,98.37l-6.8-2.51A20.11,20.11,0,0,1,461.31,84l-2.54-6.86a.65.65,0,0,0-1.22,0L455,84A20,20,0,0,1,443.16,95.8l-6.81,2.52a.64.64,0,0,0-.38.84.62.62,0,0,0,.38.38l6.81,2.51A20,20,0,0,1,455,113.93l2.51,6.81a.66.66,0,0,0,.84.39.64.64,0,0,0,.38-.39l2.52-6.81a20,20,0,0,1,11.85-11.88L480,99.54a.65.65,0,0,0,.39-.83.63.63,0,0,0-.39-.39Z"/><path class="cls-52" d="M375.65,71.76l-3.39-1.25a10,10,0,0,1-5.9-5.9l-1.27-3.42a.31.31,0,0,0-.41-.19.3.3,0,0,0-.19.19l-1.26,3.39a10,10,0,0,1-5.92,5.91l-3.39,1.25a.33.33,0,0,0-.19.42.35.35,0,0,0,.19.19l3.39,1.25a10,10,0,0,1,5.92,5.92l1.26,3.39a.31.31,0,0,0,.41.19.3.3,0,0,0,.19-.19l1.25-3.39a10,10,0,0,1,5.91-5.92l3.39-1.25a.33.33,0,0,0,.2-.42.34.34,0,0,0-.2-.19Z"/><path class="cls-53" d="M426.68,77.7l-4.79-1.76a14.14,14.14,0,0,1-8.34-8.34l-1.79-4.83a.44.44,0,0,0-.58-.27.45.45,0,0,0-.27.27l-1.77,4.79a14.11,14.11,0,0,1-8.37,8.34L396,77.67a.46.46,0,0,0-.26.59.44.44,0,0,0,.26.27l4.79,1.76a14.13,14.13,0,0,1,8.37,8.37l1.77,4.79a.44.44,0,0,0,.58.27.43.43,0,0,0,.27-.27l1.77-4.79a14.16,14.16,0,0,1,8.34-8.37l4.79-1.76a.45.45,0,0,0,.28-.58.48.48,0,0,0-.28-.28Z"/><path class="cls-54" d="M122.54,578.24,248,703.54a4.08,4.08,0,0,0,5.78,0h0a4,4,0,0,0,1.2-2.89,4.12,4.12,0,0,0-1.2-2.91L129.54,573.65V378.15a16.3,16.3,0,1,0-8.2,0V575.34A4.09,4.09,0,0,0,122.54,578.24Zm-5.2-215.82a8.11,8.11,0,1,1,8.12,8.1h0a8.12,8.12,0,0,1-8.1-8.1Z"/><path class="cls-55" d="M170.86,471.43a16.3,16.3,0,1,0-8.2,0v98.18a4.21,4.21,0,0,0,1.19,2.89l71.26,71.67a16.32,16.32,0,1,0,2.42-9.19l-66.68-67.07V471.43Zm-12.2-15.73a8.1,8.1,0,1,1,8.1,8.11,8.11,8.11,0,0,1-8.1-8.11Zm100.8,187.83a8.11,8.11,0,1,1-8.12-8.1h0A8.11,8.11,0,0,1,259.46,643.53Z"/><path class="cls-56" d="M458.77,670.79a4.11,4.11,0,0,1-4.1,4.1H333.44a4.16,4.16,0,0,1-2.9-1.21L213.35,556.48a16.33,16.33,0,1,1,9.7-1.9l112.08,112.1H454.66A4.11,4.11,0,0,1,458.77,670.79ZM223.34,540.37a8.1,8.1,0,1,0-8.1,8.11A8.09,8.09,0,0,0,223.34,540.37Z"/><path class="cls-57" d="M112.19,639.72l61.52,61.52,5.79-5.79L118,633.93h0a16.3,16.3,0,1,0-5.8,5.8ZM98.24,620a8.11,8.11,0,1,1,0,11.47h0a8.11,8.11,0,0,1,0-11.46Z"/><path class="cls-58" d="M80.57,227.66V561.13h8.19V227.66h0a16.3,16.3,0,1,0-8.2,0Zm4.1-23.83a8.11,8.11,0,1,1-8.1,8.12h0A8.12,8.12,0,0,1,84.67,203.83Z"/><path class="cls-59" d="M525,705.33H310.61v-8.19H525a16.3,16.3,0,1,1,0,8.2Zm23.83-4.1a8.11,8.11,0,1,0-8.12,8.1h0a8.13,8.13,0,0,0,8.11-8.08Z"/><path class="cls-60" d="M405.08,198.09s73.07,32.34,151.33,132L336.24,265.61Z"/><path class="cls-60" d="M565.41,344.06s56.3,69.5,62.52,161.6l-197-200.52Z"/><path class="cls-60" d="M624.33,514.27s6.83,65.86-62.16,96.67l-59.11-218.7Z"/><path class="cls-60" d="M551.29,612.92s-47,23.47-151.2-25.56L514.68,479Z"/><path class="cls-60" d="M385.77,580.45s-73.1-32.33-151.37-132l220.19,64.46Z"/><path class="cls-60" d="M162.91,272.87l197,200.53-134.58-39S169.13,365,162.91,272.87Z"/><path class="cls-60" d="M166.48,264.29s-6.81-65.86,62.18-96.65l59.13,218.61Z"/><path class="cls-60" d="M239.57,165.61s47-23.5,151.18,25.57L276.16,299.52Z"/><path class="cls-60" d="M462.17,355.72s13.49,19.55,6.41,52.59L417,355.48Z"/><path class="cls-60" d="M466.93,412.57s-4.37,23.34-32.8,41.59l1.15-73.8Z"/><path class="cls-60" d="M430.09,455.09s-19.54,13.49-52.58,6.41l52.83-51.56Z"/><path class="cls-60" d="M373.25,459.84s-23.34-4.37-41.59-32.8l73.79,1.16Z"/><path class="cls-60" d="M329.2,423.1s-13.49-19.55-6.39-52.59l51.55,52.82Z"/><path class="cls-60" d="M357.25,324.66l-1.16,73.8-31.64-32.22S328.82,342.91,357.25,324.66Z"/><path class="cls-60" d="M361.29,323.73s19.55-13.49,52.58-6.39l-52.81,51.54Z"/><path class="cls-60" d="M418.14,319s23.33,4.36,41.58,32.8l-73.8-1.16Z"/><path class="cls-60" d="M421.44,376.37s5.22,7.57,2.48,20.36l-20-20.46Z"/><path class="cls-60" d="M423.28,398.38s-1.69,9-12.7,16.11l.44-28.58Z"/><path class="cls-60" d="M409,414.85s-7.57,5.23-20.36,2.48l20.46-20Z"/><path class="cls-60" d="M387,416.69S378,415,370.89,404l28.58.45Z"/><path class="cls-60" d="M369.94,402.46s-5.23-7.57-2.48-20.37l20,20.46Z"/><path class="cls-60" d="M380.8,364.34l-.45,28.58L368.1,380.44S369.79,371.4,380.8,364.34Z"/><path class="cls-60" d="M382.37,364s7.57-5.22,20.36-2.47l-20.45,20Z"/><path class="cls-60" d="M404.38,362.14s9,1.68,16.11,12.7l-28.58-.45Z"/><path class="cls-61" d="M415,118.19s103.89,46,215.17,187.66l-313-91.67Z"/><path class="cls-61" d="M642.92,325.73S723,424.53,731.8,555.48L451.66,270.38Z"/><path class="cls-61" d="M726.7,567.72s9.7,93.64-88.38,137.44l-84-310.94Z"/><path class="cls-61" d="M622.84,708s-66.87,33.37-215-36.34l162.92-154Z"/><path class="cls-61" d="M387.51,661.82s-103.92-46-215.2-187.72l313.05,91.64Z"/><path class="cls-61" d="M70.67,224.5,350.79,509.62,159.45,454.17S79.5,355.45,70.67,224.5Z"/><path class="cls-61" d="M75.73,212.3s-9.68-93.63,88.42-137.4l84.06,310.8Z"/><path class="cls-61" d="M179.66,72s66.8-33.41,214.94,36.36l-162.93,154Z"/><path class="cls-62" d="M696.23,108.66l-7.8-2.88A23,23,0,0,1,674.84,92.2l-2.91-7.86a.75.75,0,0,0-1.4,0l-2.87,7.8A23,23,0,0,1,654,105.73l-7.8,2.88a.75.75,0,0,0,0,1.4l7.8,2.87a23,23,0,0,1,13.63,13.62l2.87,7.8a.74.74,0,0,0,1.4,0l2.88-7.8a23,23,0,0,1,13.58-13.62l7.8-2.87a.74.74,0,0,0,.46-1,.73.73,0,0,0-.46-.45Z"/><path class="cls-63" d="M715.34,148.76l-4.43-1.63a13.08,13.08,0,0,1-7.72-7.72l-1.65-4.47a.43.43,0,0,0-.55-.25.41.41,0,0,0-.25.25l-1.63,4.43a13,13,0,0,1-7.75,7.72l-4.43,1.64a.43.43,0,0,0-.25.55.51.51,0,0,0,.25.25l4.43,1.63a13.09,13.09,0,0,1,7.75,7.74l1.63,4.43a.42.42,0,0,0,.54.26.47.47,0,0,0,.26-.26l1.63-4.43a13.09,13.09,0,0,1,7.72-7.74l4.43-1.63a.42.42,0,0,0,0-.8Z"/><path class="cls-64" d="M719.94,190.66l-3.59-1.33a10.56,10.56,0,0,1-6.26-6.25l-1.34-3.62a.34.34,0,0,0-.44-.2.33.33,0,0,0-.2.2l-1.33,3.59a10.62,10.62,0,0,1-6.27,6.26l-3.59,1.32a.36.36,0,0,0-.21.45.38.38,0,0,0,.21.2l3.59,1.32a10.6,10.6,0,0,1,6.27,6.28l1.33,3.59a.34.34,0,0,0,.64,0l1.33-3.59a10.57,10.57,0,0,1,6.25-6.28l3.59-1.32a.34.34,0,0,0,.21-.44.36.36,0,0,0-.21-.21Z"/></g><path class="cls-65" d="M198.84,95.6l-7.48-2.77a22.05,22.05,0,0,1-13.07-13.06l-2.75-7.48a.72.72,0,0,0-1.35,0l-2.77,7.48a22,22,0,0,1-13.06,13.06l-7.47,2.77a.7.7,0,0,0-.48.67.71.71,0,0,0,.48.67l7.47,2.75a22.13,22.13,0,0,1,13.08,13.08l2.75,7.48a.72.72,0,0,0,.93.42.79.79,0,0,0,.42-.42l2.75-7.48a22.14,22.14,0,0,1,13.07-13.08l7.48-2.75a.71.71,0,0,0,.47-.67A.68.68,0,0,0,198.84,95.6Z"/><path class="cls-66" d="M251,82l-7.48-2.77a22.08,22.08,0,0,1-13.07-13.06l-2.75-7.48a.72.72,0,0,0-1.35,0l-2.77,7.48a22.06,22.06,0,0,1-13.06,13.06L203.07,82a.7.7,0,0,0-.48.67.71.71,0,0,0,.48.67l7.47,2.75a22.13,22.13,0,0,1,13.08,13.08l2.75,7.47a.71.71,0,0,0,.93.42.72.72,0,0,0,.42-.42l2.75-7.47a22.11,22.11,0,0,1,13.07-13.08L251,83.36a.71.71,0,0,0,.47-.67A.68.68,0,0,0,251,82Z"/><path class="cls-67" d="M508.4,332.69s22.74,33,10.81,88.67l-87-89.07Z"/><path class="cls-67" d="M516.42,428.54s-7.36,39.35-55.3,70.12l1.94-124.43Z"/><path class="cls-67" d="M454.31,500.23S421.37,523,365.66,511l89.07-86.93Z"/><path class="cls-67" d="M358.48,508.24s-39.35-7.37-70.12-55.3l124.41,1.95Z"/><path class="cls-67" d="M284.21,446.29s-22.74-33-10.77-88.66l86.91,89.05Z"/><path class="cls-67" d="M331.51,280.32l-2,124.43-53.34-54.32S283.57,311.09,331.51,280.32Z"/><path class="cls-67" d="M338.32,278.76S371.28,256,427,268l-89,86.9Z"/><path class="cls-67" d="M434.17,270.78s39.33,7.35,70.1,55.3l-124.43-1.95Z"/><path class="cls-67" d="M417.21,251.87s50,17.78,98.74,83.46l-153-30Z"/><path class="cls-67" d="M521.37,344.68s35.22,45.64,32.94,111.15L427.84,326.61Z"/><path class="cls-67" d="M551.11,462.26s.07,46.67-51.58,73.79l-26.34-152.3Z"/><path class="cls-67" d="M491.57,538.25s-35.39,20.26-106.4-7.24l90-86Z"/><path class="cls-67" d="M375.41,527.12s-50-17.79-98.72-83.49l153,30.05Z"/><path class="cls-67" d="M238.32,323.14,364.78,452.38l-93.53-18.1S236,388.65,238.32,323.14Z"/><path class="cls-67" d="M241.52,316.72S241.46,270,293.14,243l26.32,152.25Z"/><path class="cls-67" d="M301.1,240.75s35.37-20.26,106.39,7.25l-90,86Z"/></svg>