<?xml version="1.0" encoding="utf-8"?>
<!-- Generator: Adobe Illustrator 24.1.1, SVG Export Plug-In . SVG Version: 6.00 Build 0)  -->
<svg version="1.1" id="Capa_1" xmlns="http://www.w3.org/2000/svg" xmlns:xlink="http://www.w3.org/1999/xlink" x="0px" y="0px"
	 viewBox="0 0 393.9 393.9" style="enable-background:new 0 0 393.9 393.9;" xml:space="preserve">
<g>
	<g>
		<path d="M336.2,57.7C299.3,20.7,249.2-0.1,197,0C88.2,0,0,88.2,0,196.9s88.2,197,196.9,197s197-88.2,197-196.9
			C393.9,144.7,373.2,94.6,336.2,57.7z M328,328L328,328c-72.4,72.4-189.7,72.5-262.1,0.1S-6.5,138.4,65.9,66s189.7-72.4,262.1-0.1
			c34.8,34.7,54.3,81.9,54.3,131C382.3,246.1,362.8,293.2,328,328z"/>
	</g>
</g>
<g>
	<g>
		<path d="M314.7,79.2C283.5,47.9,241.1,30.4,197,30.5C105,30.5,30.5,105.1,30.5,197c0,91.9,74.6,166.5,166.5,166.4
			s166.5-74.6,166.4-166.5C363.5,152.8,345.9,110.4,314.7,79.2z M202.7,351.6v-33c0-3.2-2.6-5.8-5.8-5.8s-5.8,2.6-5.8,5.8v33
			c-80.9-3-145.8-67.9-148.9-148.9h33c3.2,0,5.8-2.6,5.8-5.8s-2.6-5.8-5.8-5.8h-33c3-81,68-145.9,148.9-148.9v33
			c0,3.2,2.6,5.8,5.8,5.8s5.8-2.6,5.8-5.8c0,0,0,0,0,0v-33c81,3,145.9,68,148.9,148.9h-33c-3.2,0-5.8,2.6-5.8,5.8
			c0,3.2,2.6,5.8,5.8,5.8h33C348.6,283.7,283.7,348.6,202.7,351.6z"/>
	</g>
</g>
</svg>
