<svg id="Capa_1" data-name="Capa 1" xmlns="http://www.w3.org/2000/svg" viewBox="0 0 393.9 393.9"><defs><style>.cls-1{fill:#c40000;}</style></defs><path class="cls-1" d="M336.28,57.62A196.07,196.07,0,0,0,197,0C88.15,0,0,88.27,0,197S88.27,394,197,393.9s197-88.27,196.89-197A196.57,196.57,0,0,0,336.28,57.62ZM203.75,379.94V340.89a6.86,6.86,0,0,0-13.72,0v39.05C94.3,376.39,17.51,299.6,13.84,203.75H52.89a6.86,6.86,0,0,0,0-13.72h-39A183.11,183.11,0,0,1,190,13.84V52.89a6.86,6.86,0,0,0,13.72,0h0v-39A183.11,183.11,0,0,1,379.94,190H340.89a6.86,6.86,0,0,0,0,13.72h39.05A183,183,0,0,1,203.75,379.94Z" transform="translate(0 0)"/></svg>