<svg xmlns="http://www.w3.org/2000/svg" width="110" height="110" viewBox="0 0 110 110">
  <g id="gps" transform="translate(0 0)">
    <path id="Caminho_148" data-name="Caminho 148" d="M1.9,60.69h9.862A43.664,43.664,0,0,0,49.31,98.241V108.1a1.9,1.9,0,0,0,1.9,1.9h7.587a1.9,1.9,0,0,0,1.9-1.9V98.241A43.664,43.664,0,0,0,98.242,60.69H108.1a1.9,1.9,0,0,0,1.9-1.9V51.206a1.9,1.9,0,0,0-1.9-1.9H98.242A43.664,43.664,0,0,0,60.69,11.758V1.9a1.9,1.9,0,0,0-1.9-1.9H51.207a1.9,1.9,0,0,0-1.9,1.9v9.862A43.664,43.664,0,0,0,11.759,49.31H1.9a1.9,1.9,0,0,0-1.9,1.9v7.587a1.9,1.9,0,0,0,1.9,1.9ZM55,22.758A32.242,32.242,0,1,1,22.758,55,32.242,32.242,0,0,1,55,22.758Zm0,0" transform="translate(0 0)" fill="#fff"/>
    <path id="Caminho_149" data-name="Caminho 149" d="M215.724,200.551a15.173,15.173,0,1,1-15.173-15.173A15.172,15.172,0,0,1,215.724,200.551Zm0,0" transform="translate(-145.551 -145.552)" fill="#fff"/>
  </g>
</svg>
