<?xml version="1.0" encoding="iso-8859-1"?>
<!-- Generator: Adobe Illustrator 19.0.0, SVG Export Plug-In . SVG Version: 6.00 Build 0)  -->
<svg version="1.1" id="Capa_1" xmlns="http://www.w3.org/2000/svg" xmlns:xlink="http://www.w3.org/1999/xlink" x="0px" y="0px"
	 viewBox="0 0 511.915 511.915" style="enable-background:new 0 0 511.915 511.915;" xml:space="preserve">
<g>
	<path style="fill:#E57E25;" d="M365.455,5.099l140.07,138.448c3.33,3.292,5.216,7.771,5.244,12.454l1.147,196.941
		c0.027,4.682-1.807,9.184-5.098,12.514L368.369,505.525c-3.292,3.33-7.771,5.216-12.454,5.244l-196.941,1.147
		c-4.682,0.027-9.184-1.807-12.514-5.098L6.391,368.369c-3.33-3.292-5.216-7.771-5.244-12.454L0,158.974
		c-0.027-4.682,1.807-9.184,5.098-12.514L143.546,6.391c3.292-3.33,7.771-5.216,12.454-5.244L352.941,0
		C357.623-0.027,362.125,1.807,365.455,5.099z"/>
	<path style="fill:#F0C419;" d="M36.286,344.786l-1.018-175.095c-0.014-2.341,0.903-4.592,2.549-6.257L160.902,38.908
		c1.646-1.665,3.886-2.608,6.227-2.622l175.095-1.018c2.341-0.014,4.592,0.903,6.257,2.549l124.526,123.085
		c1.665,1.646,2.608,3.886,2.622,6.227l1.019,175.095c0.014,2.341-0.903,4.592-2.549,6.257L351.013,473.007
		c-1.646,1.665-3.886,2.608-6.227,2.622l-175.095,1.019c-2.341,0.014-4.592-0.903-6.257-2.549L38.908,351.013
		C37.243,349.367,36.3,347.127,36.286,344.786z"/>
	<path style="fill:#FFFFFF;" d="M353.061,335.406v35.31c-0.015,4.869-3.958,8.813-8.828,8.828h-44.138
		c-4.869-0.015-8.813-3.958-8.828-8.828v-35.31H353.061z"/>
	<path style="fill:#E64C3C;" d="M353.061,211.82l0,123.586h-61.793V211.82c0.01-18.86-14.795-34.403-33.633-35.31
		c-9.889-0.058-19.384,3.869-26.343,10.895c-6.959,7.026-10.796,16.558-10.644,26.446v121.556h-61.793V214.733
		c-0.597-51.711,38.707-95.169,90.218-99.752c26.884-1.935,53.362,7.401,73.087,25.769
		C341.884,159.12,353.079,184.866,353.061,211.82z"/>
	<g>
		<path style="fill:#FFFFFF;" d="M220.647,335.406v35.31c-0.015,4.869-3.958,8.813-8.828,8.828h-44.138
			c-4.869-0.015-8.813-3.958-8.828-8.828v-35.31H220.647z"/>
		<path style="fill:#FFFFFF;" d="M388.169,295.376c-3.225-0.003-6.191-1.764-7.737-4.593c-1.547-2.829-1.428-6.277,0.311-8.993
			c10.111-15.847,10.177-36.105,0.168-52.017c-1.683-2.667-1.816-6.03-0.347-8.821c1.468-2.791,4.314-4.587,7.465-4.711
			c3.151-0.124,6.13,1.443,7.813,4.11c13.663,21.703,13.574,49.342-0.228,70.957C393.99,293.846,391.182,295.38,388.169,295.376z"/>
		<path style="fill:#FFFFFF;" d="M416.523,321.195c-3.267-0.003-6.266-1.81-7.795-4.697c-1.529-2.888-1.337-6.384,0.497-9.087
			c9.437-13.87,14.475-30.263,14.457-47.039c0.098-18.817-6.263-37.098-18.022-51.789c-1.998-2.463-2.522-5.808-1.372-8.764
			c1.15-2.956,3.797-5.067,6.935-5.531c3.137-0.464,6.283,0.79,8.239,3.286c27.462,34.675,29.233,83.164,4.375,119.75
			C422.193,319.749,419.452,321.2,416.523,321.195z"/>
		<path style="fill:#FFFFFF;" d="M123.747,295.376c-3.014,0.005-5.821-1.53-7.444-4.069c-13.802-21.615-13.891-49.254-0.228-70.957
			c1.683-2.667,4.661-4.234,7.813-4.11c3.151,0.124,5.997,1.92,7.465,4.711c1.468,2.791,1.336,6.154-0.347,8.821
			c-10.009,15.912-9.943,36.17,0.168,52.017c1.738,2.716,1.857,6.163,0.311,8.993S126.971,295.373,123.747,295.376z"/>
		<path style="fill:#FFFFFF;" d="M95.393,321.195c-2.93,0.005-5.671-1.445-7.315-3.871c-24.86-36.586-23.086-85.077,4.379-119.75
			c3.052-3.769,8.573-4.37,12.365-1.346c3.791,3.024,4.433,8.54,1.438,12.354c-11.761,14.69-18.124,32.971-18.026,51.789
			c-0.018,16.776,5.02,33.169,14.457,47.039c1.835,2.704,2.026,6.199,0.497,9.087S98.66,321.192,95.393,321.195L95.393,321.195z"/>
	</g>
</g>
<g>
</g>
<g>
</g>
<g>
</g>
<g>
</g>
<g>
</g>
<g>
</g>
<g>
</g>
<g>
</g>
<g>
</g>
<g>
</g>
<g>
</g>
<g>
</g>
<g>
</g>
<g>
</g>
<g>
</g>
</svg>
