<svg xmlns="http://www.w3.org/2000/svg" xmlns:xlink="http://www.w3.org/1999/xlink" width="1080" height="2340" viewBox="0 0 1080 2340">
  <defs>
    <clipPath id="clip-About">
      <rect width="1080" height="2340"/>
    </clipPath>
  </defs>
  <g id="About" clip-path="url(#clip-About)">
    <rect width="1080" height="2340" fill="#7a7a7a"/>
    <rect id="Retângulo_7" data-name="Retângulo 7" width="1080" height="180" fill="#232222"/>
    <text id="About-2" data-name="About" transform="translate(542 122)" fill="#fff" font-size="74" font-family="SegoeUI, Segoe UI"><tspan x="-100.774" y="0">About</tspan></text>
    <path id="Caminho_1" data-name="Caminho 1" d="M16,15a6,6,0,1,0-6-6A6,6,0,0,0,16,15Zm0,30a6,6,0,1,0,6,6A6,6,0,0,0,16,45Zm0-21a6,6,0,1,0,6,6A6,6,0,0,0,16,24Z" transform="translate(989 60)" fill="#fff"/>
    <path id="Caminho_12" data-name="Caminho 12" d="M76,19H20l6.4-4.8a4,4,0,0,0-4.8-6.4l-16,12a4,4,0,0,0,0,6.4l16,12a4,4,0,0,0,4.8-6.4L20,27H76a16,16,0,1,1,0,32H8a4,4,0,1,0,0,8H76a24,24,0,0,0,0-48Z" transform="translate(51 53)" fill="#fff"/>
    <text id="Lorem_ipsum_dolor_sit_amet_consetetur_sadipscing_elitr_sed_diam_nonumy_eirmod_tempor_invidunt_ut_labore_et_dolore_magna_aliquyam_erat_sed_diam_voluptua._At_vero_eos_et_accusam_et_justo_duo_dolores_et_ea_rebum._Stet_clita_kasd_gubergren_no_sea_takimata_" data-name="Lorem ipsum dolor sit amet, consetetur sadipscing elitr, sed diam nonumy eirmod tempor invidunt ut labore et dolore magna aliquyam erat, sed diam voluptua. At vero eos et accusam et justo duo dolores et ea rebum. Stet clita kasd gubergren, no sea takimata " transform="translate(103 253)" fill="#fff" font-size="60" font-family="ArialMT, Arial"><tspan x="0" y="54">Lorem ipsum dolor sit amet, </tspan><tspan x="0" y="123">consetetur sadipscing elitr, sed </tspan><tspan x="0" y="192">diam nonumy eirmod tempor </tspan><tspan x="0" y="261">invidunt ut labore et dolore </tspan><tspan x="0" y="330">magna aliquyam erat, sed diam </tspan><tspan x="0" y="399">voluptua. At vero eos et accusam </tspan><tspan x="0" y="468">et justo duo dolores et ea rebum. </tspan><tspan x="0" y="537">Stet clita kasd gubergren, no sea </tspan><tspan x="0" y="606">takimata sanctus est Lorem </tspan><tspan x="0" y="675">ipsum dolor sit amet. Lorem </tspan><tspan x="0" y="744">ipsum dolor sit amet, consetetur </tspan><tspan x="0" y="813">sadipscing elitr, sed diam </tspan><tspan x="0" y="882">nonumy eirmod tempor invidunt </tspan><tspan x="0" y="951">ut labore et dolore magna </tspan><tspan x="0" y="1020">aliquyam erat, sed diam </tspan><tspan x="0" y="1089">voluptua. At vero eos et accusam </tspan></text>
    <g id="Camada_2" data-name="Camada 2" transform="translate(355.626 1912.717)">
      <g id="Camada_1" data-name="Camada 1" transform="translate(0.086 0)">
        <path id="Caminho_41" data-name="Caminho 41" d="M168.333,281.949l-8.185-98h7.385l-.521-7.346h-1.4a2.314,2.314,0,0,1-2.333-2.333V172.6c-2.844-.251-5.5-.762-5.63-4.242a22.409,22.409,0,0,1,0-2.545c.164-3.48,2.777-3.856,5.63-4.136v-1.726a2.323,2.323,0,0,1,2.333-2.333h22.338a2.323,2.323,0,0,1,2.333,2.333v1.726c2.892.27,5.466.656,5.63,4.136a24.9,24.9,0,0,1,0,2.545c-.135,3.48-2.786,3.991-5.63,4.242v1.668a2.314,2.314,0,0,1-2.333,2.333H186.2l.212,7.346h27.736L214,176.6H212.42a2.323,2.323,0,0,1-2.343-2.333V172.6c-2.892-.251-5.5-.762-5.63-4.242a24.9,24.9,0,0,1,0-2.545c.154-3.48,2.777-3.856,5.621-4.136v-1.726a2.323,2.323,0,0,1,2.343-2.333h22.444a2.323,2.323,0,0,1,2.333,2.333v1.726c2.892.27,5.466.656,5.63,4.136a22.423,22.423,0,0,1,0,2.545c-.135,3.48-2.786,3.991-5.63,4.242v1.668a2.314,2.314,0,0,1-2.333,2.333h-1.581l-.145,7.346h27.756l.212-7.346h-1.755a2.314,2.314,0,0,1-2.333-2.333V172.6c-2.844-.251-5.5-.762-5.63-4.242a22.4,22.4,0,0,1,0-2.545c.164-3.48,2.777-3.856,5.63-4.136v-1.726a2.314,2.314,0,0,1,2.333-2.333H281.67a2.323,2.323,0,0,1,2.343,2.333v1.726c2.892.27,5.466.656,5.63,4.136a22.423,22.423,0,0,1,0,2.545c-.135,3.48-2.786,3.991-5.63,4.242v1.668a2.323,2.323,0,0,1-2.343,2.333h-1.408l-.521,7.346h7.385l-8.185,98a38.1,38.1,0,0,1,25.239-3.355c-5.669,6.141-8.677,9.9-11.116,18.24,7.433,2.738,16.312,6.961,15.743,15.82a71.7,71.7,0,0,1-5.784,23.138c-7.423,16.669-19.445,16.968-35.121,14.538l-.26,3.615c1.726-.916,5.138.125,7.491-.713,1.745,9.053-5.89,4.628-5.486,9.477a3.384,3.384,0,0,1-3.4,3.856c-1.928,4.647-10.171,3.914-11.251-.964a3.365,3.365,0,0,1-2.67-4.406c1.234-4.724-6.2-1.581-3.962-10.267,1.928,1.022,5.852.347,7.616,2.111l.135-4.82a191.188,191.188,0,0,0-26.387-3.586l-.077,3.933c1.735-.887,5.457-.434,7.356-1.427,2.439,9-5.389,5.206-4.666,9.911.328,2.343-.713,3.856-3.037,4.242-1.494,4.82-9.795,4.82-11.289,0a3.381,3.381,0,0,1-3.037-4.242c.713-4.7-7.105-.906-4.666-9.911,1.928.964,5.621.54,7.356,1.427l-.077-3.933a191.188,191.188,0,0,0-26.387,3.586l.135,4.82c1.764-1.764,5.688-1.089,7.616-2.111,2.237,8.677-5.2,5.543-3.962,10.267a3.365,3.365,0,0,1-2.671,4.406c-1.08,4.9-9.342,5.63-11.251.964a3.374,3.374,0,0,1-3.4-3.856c.4-4.82-7.231-.424-5.486-9.477,2.352.839,5.784-.2,7.491.713l-.26-3.615c-15.676,2.429-27.7,2.131-35.121-14.538a71.7,71.7,0,0,1-5.784-23.138c-.569-8.86,8.31-13.083,15.743-15.821-2.429-8.339-5.447-12.1-11.116-18.24A38.1,38.1,0,0,1,168.333,281.949ZM257.173,311l-.222,7.79c-5.582-1.07-11.511-2.179-17.97-2.892a81.946,81.946,0,0,0,18.192-4.82Zm12.793,10.094,1.176-16.486c5.621,3.374,16.187,9.477,16.756,16.756a59.3,59.3,0,0,1-17.932-.27Zm-82.351-187.05c-.848,1.388-.376,1.629,1.138,1.041s2.237-2.295,2.96-4.039c1.109-2.68,1.8-4.3,4.714-5.245a35.608,35.608,0,0,0,1.022,6.122c.906,3.808,1.639,6.845-1.465,11.8-3.336,5.331-1.764,10.345-9.766,12.041-2.14-3.461-2.111-6.527-1.176-10.364-2.41,2.246-3.644,6.334-4.579,9.4-3.336-5.061-4.55-9.217-3.316-15.223-3.856,4.647-4.541,9.728-4.57,15.541-3.162-3.249-4.869-4.618-5.437-9.245-1.379,3.48-.53,6.614.4,10.055-8.339-2.979-11.733-10.933-7.356-18.578,3.23-5.649,7.105-5.331,11.357-8.937,3.856-3.3,5.649-8.85,10.181-11.569,4.676-2.757,12.012-1.784,17.585-2.767-11.376,10.075-6.054,10.6-11.694,19.918Zm46.806,0c-.848,1.388-.376,1.629,1.128,1.041s2.246-2.295,2.969-4.039c1.109-2.68,1.793-4.3,4.714-5.245a36.538,36.538,0,0,0,1.012,6.122c.916,3.808,1.639,6.845-1.456,11.8-3.336,5.331-1.774,10.345-9.766,12.041-2.15-3.461-2.121-6.527-1.176-10.364-2.41,2.246-3.654,6.334-4.589,9.4-3.336-5.061-4.541-9.217-3.307-15.223-3.856,4.647-4.541,9.728-4.579,15.541-3.162-3.249-4.82-4.618-5.437-9.245-1.379,3.48-.521,6.614.415,10.055-8.339-2.979-11.733-10.933-7.356-18.578,3.22-5.649,7.105-5.331,11.347-8.937,3.856-3.3,5.659-8.85,10.181-11.569,4.676-2.757,12.012-1.784,17.585-2.767-11.366,10.075-6.045,10.6-11.685,19.918Zm46.9,0c-.839,1.388-.366,1.629,1.138,1.041s2.246-2.295,2.969-4.039c1.109-2.68,1.793-4.3,4.714-5.245a36.541,36.541,0,0,0,.964,6.122c.964,3.808,1.639,6.845-1.465,11.8-3.326,5.331-1.764,10.345-9.756,12.041-2.15-3.461-2.121-6.527-1.186-10.364-2.4,2.246-3.644,6.334-4.579,9.4-3.336-5.061-4.541-9.217-3.316-15.223-3.856,4.647-4.531,9.728-4.57,15.541-3.162-3.249-4.869-4.618-5.437-9.245-1.379,3.48-.53,6.614.415,10.055-8.339-2.979-11.733-10.933-7.366-18.578,3.23-5.649,7.115-5.331,11.357-8.937,3.856-3.3,5.659-8.85,10.181-11.569,4.676-2.757,12.012-1.784,17.585-2.767-11.366,10.075-6.045,10.6-11.694,19.918ZM190.1,311l.222,7.79c5.582-1.07,11.511-2.179,17.961-2.892a81.869,81.869,0,0,1-18.182-4.82ZM177.309,321.09,176.132,304.6c-5.621,3.374-16.2,9.477-16.756,16.756a59.3,59.3,0,0,0,17.932-.27Zm22.723-83.6a43.023,43.023,0,0,1-4.29,3.577c-1.591.964-2.034,1.138-2.892.5a12.811,12.811,0,0,1-2.632-2.815c-.569-.868-.4-1.3.7-2.825a46.113,46.113,0,0,1,3.856-4.03l10.759-10.026a44.165,44.165,0,0,1,4.29-3.577c1.591-.964,2.034-1.128,2.892-.5a12.814,12.814,0,0,1,2.632,2.815c.569.868.4,1.3-.7,2.825a46.1,46.1,0,0,1-3.856,4.03ZM306.61,313.648c2.063-13.082-20.149-15.83-29.539-20.313a25.066,25.066,0,0,1-5.9,8.879c6.874,4.155,17.941,10.383,18.771,18.78A46.208,46.208,0,0,0,306.61,313.648Zm-165.946,0c-2.063-13.082,20.149-15.83,29.549-20.313a25.2,25.2,0,0,0,5.89,8.879c-6.874,4.155-17.941,10.383-18.771,18.78a46.208,46.208,0,0,1-16.669-7.346ZM193.515,190.7c-2.15,6.324-6.025,5.5-7.954,8.175-1.35,1.88-1.494,5.013-3.365,7.337-3.3,4.107-11.174,4.82-10.046,13.3.887,6.594,7.5,11.164,15.647,8.6-2.892-1.581-3.779-5.206-3.76-7.925a9.833,9.833,0,0,0,7.173,3.268c-3.615-2.661-4.242-6.912-2.67-11.029.858,2.5,4.28,6.1,6.98,6.633-1.822-2.555-1.87-5.514.443-9.188-.1,2.246,2.748,5.042,4.7,5.6-1.128-6.151,5.784-9.438-.366-16.11-.819,4.579-5.139,4.242-6.459,8.291-.656,2.025-3.856,2.285-4.088-.742C189.205,198.383,200.157,199.116,193.515,190.7Zm49.1,87.181c4.29,4.647,4.117,12.8,7.78,16.64,3.268,3.422,11.569,3.21,16.013,3.365.154-4.406.964-12.706-2.246-16.206-3.567-3.924-11.723-4.319-16.042-8.927Zm-13.15-5.784,13.757-12.822,5.939,1.774-18.317,17.093-1.359-6.045Zm12.909-13.757c-3.172-6-9.486-19.185-2.8-24.613,8.262-6.7,11.781,6.835,22.665,4.965-6.517-1.263-9.535-6.266-12.186-10.653-3.326-5.514-6.045-9.168-12.649-5.235-4.753,2.834-6.315,7.944-6.266,13.237.068,7.905,3.924,18.25,8.9,24.468l2.314-2.159ZM262.687,237.9c-10.884-8.677-7.346-36.3-25.278-33.405-14.461,2.333-15.03,25.789-12.446,37.821l11.444,14.326c-3.577-6.2-6.054-14.162-6.112-20.593-.048-5.611,1.649-10.981,6.671-13.979,7.163-4.261,10.181-.5,13.815,5.524,2.593,4.29,5.553,9.2,11.906,10.306Zm-30.523,29.954-29.211-26.878L214.03,230.65l24.777,31.014Zm-3.577,3.326c-5.784-3.577-18.462-10.788-24.343-4.493-7.269,7.77,5.987,12.224,3.365,22.955-.8-6.594-5.582-9.959-9.776-12.909-5.254-3.683-8.677-6.749-4.338-12.976,3.153-4.541,8.368-5.784,13.642-5.322,7.876.617,17.922,5.177,23.784,10.6l-2.314,2.16Zm-21.8,18.848c-7.9-11.463-35.671-9.862-31.564-27.553,3.336-14.249,26.782-13.189,38.563-9.776l13.5,12.417c-5.929-4-13.709-7.028-20.111-7.529-5.592-.443-11.068.877-14.413,5.678-4.724,6.816-1.2,10.132,4.55,14.162,4.107,2.892,8.792,6.189,9.448,12.6Zm12.841,54.528v2.892a8.378,8.378,0,0,1,3.962-2.458,8.33,8.33,0,0,1,3.962,2.458l.058-2.892q-4.02-.145-8.031,0Zm15.425-182.962v-1.639a.241.241,0,0,0-.27-.26H212.478a.241.241,0,0,0-.27.26v1.61q11.424-.289,22.868,0Zm-4.926,9.188a66.2,66.2,0,0,0,8.214-.4c1.658-.28,2.294-.694,2.343-1.928a14.9,14.9,0,0,0,0-2.179,1.928,1.928,0,0,0-1.475-2.15c-1.928-.569-8.06-.636-9.159-.636h-12.87c-1.089,0-7.192.068-9.159.636a1.928,1.928,0,0,0-1.465,2.15,16.385,16.385,0,0,0,0,2.179c.048,1.263.694,1.678,2.343,1.928a66.268,66.268,0,0,0,8.224.4Zm4.656,3.76a.251.251,0,0,0,.27-.27v-1.629q-11.434.289-22.868,0v1.629a.251.251,0,0,0,.27.27ZM231,183.951l.145-7.346h-15.03l.145,7.346h1.726l-.106-6.228h2.449v6.228h2.005v-6.228h2.449v6.228h2l.077-6.228H229.3l-.125,6.228Zm28.228,126.178-.27,9.091.964.174.309-9.718-.964.453Zm2.063,9.535,1.06.193.55-11.569-1.176.627-.434,10.759Zm2.458.453,1.292.231h0l.868-13.883c-.472.309-.964.617-1.446.916l-.684,12.735Zm2.7.472,1.427.231,1.186-16.707c-.5.424-1.012.829-1.543,1.215l-1.07,15.309ZM258.108,348.6l-.1,3.181a8.368,8.368,0,0,1,3.972-1.928,8.291,8.291,0,0,1,3.625,2.67l.183-2.526c-2.507-.415-5.061-.906-7.713-1.408Zm6.373,16.293c.357-4.1-7.221-4.763-7.578-.665S264.123,368.976,264.48,364.888Zm8.937-9.438c-2.391.4-3.856-.964-6.324,1.465l-2.555,2.487-.752-.472,1.379-2.815c.964-2.063-1.726-4.338-3.3-4.965-1.658.337-4.743,2.111-4.117,4.319l.868,3.008-.819.337-2.082-2.892c-2.034-2.834-3.683-1.735-5.968-2.535-.819,3.586,6.064,2.41,4.512,8.339-.337,1.3.4,1.735,1.465,1.928.964-5.119,9.978-4.319,10.007.868,1.1,0,1.928-.328,1.784-1.668-.5-6.112,6.083-3.76,5.9-7.433Zm-45.967,4.261c0,4.117-7.616,4.117-7.616,0S227.45,355.6,227.45,359.711Zm-3.808-13.449c1.62.482,4.55,2.516,3.721,4.647l-1.118,2.892.781.4,2.323-2.709c2.285-2.651,3.856-1.408,6.18-2.005.5,3.654-6.257,1.87-5.225,7.915.222,1.33-.54,1.7-1.629,1.822-.492-5.158-9.573-5.158-10.065,0-1.089-.125-1.851-.492-1.629-1.822,1.041-6.045-5.727-4.261-5.225-7.915,2.352.6,3.856-.646,6.18,2.005l2.323,2.709.781-.4-1.118-2.892C219.1,348.779,222.022,346.744,223.642,346.262ZM259.38,159.675a.251.251,0,0,0-.27.26v1.629c7.607-.193,15.261-.193,22.868,0v-1.639a.241.241,0,0,0-.27-.26Zm-71.341,150.4.26,9.091-.964.173-.309-9.718.964.453Zm-2.044,9.6-1.061.193-.549-11.569,1.176.627.434,10.749Zm-2.458.453-1.3.231h0l-.858-13.883c.472.309.964.617,1.446.916Zm-2.67.511-1.427.231-1.186-16.707c.5.424,1.012.829,1.543,1.215Zm8.31,27.958.1,3.181a8.368,8.368,0,0,0-3.972-1.928,8.291,8.291,0,0,0-3.625,2.67l-.183-2.526c2.507-.415,5.061-.906,7.713-1.408Zm-6.382,16.312c-.366-4.1,7.221-4.763,7.578-.665S183.151,369,182.794,364.907Zm-8.937-9.438c2.391.4,3.856-.964,6.324,1.465l2.555,2.487.752-.472-1.379-2.815c-.964-2.063,1.726-4.338,3.3-4.965,1.658.337,4.743,2.111,4.117,4.319l-.868,3.008.819.337,2.082-2.892c2.034-2.834,3.683-1.735,5.968-2.535.819,3.586-6.064,2.41-4.512,8.339.337,1.3-.4,1.735-1.465,1.928-.964-5.119-9.978-4.319-10.017.868-1.089,0-1.88-.328-1.774-1.668.5-6.112-6.083-3.76-5.9-7.433ZM184.173,176.6l.212,7.346h-1.33l-.2-6.228h-2.564l.251,6.228h-2.1l-.3-6.228h-2.564l.347,6.228h-2.111l-.386-6.228h-2.564l.434,6.228h-1.639l-.521-7.346Zm-18.51-2.063a.251.251,0,0,1-.27-.27v-1.629c7.607.193,15.261.193,22.868,0v1.629a.251.251,0,0,1-.27.27Zm4.714-11.087c-1.1,0-7.2.068-9.159.636a1.928,1.928,0,0,0-1.475,2.15,16.4,16.4,0,0,0,0,2.179c0,1.263.684,1.678,2.343,1.928a66.2,66.2,0,0,0,8.214.4h13.015a66.2,66.2,0,0,0,8.214-.4c1.649-.28,2.294-.694,2.343-1.928a18.171,18.171,0,0,0,0-2.179,1.928,1.928,0,0,0-1.475-2.15c-1.928-.569-8.06-.636-9.159-.636Zm-4.714-3.76a.241.241,0,0,0-.27.26v1.61c7.607-.193,15.261-.193,22.868,0v-1.639a.241.241,0,0,0-.27-.26ZM263.2,176.6l-.212,7.346h1.224l.2-6.228h2.564l-.251,6.228h2.1l.3-6.228h2.564l-.347,6.228h2.073l.386-6.228h2.564l-.434,6.228h1.745l.53-7.346Zm18.51-2.063a.251.251,0,0,0,.27-.27v-1.629c-7.607.193-15.261.193-22.868,0v1.629a.251.251,0,0,0,.27.27Zm-4.714-11.183c1.1,0,7.2.077,9.159.646a1.928,1.928,0,0,1,1.475,2.14,16.386,16.386,0,0,1,0,2.179c0,1.263-.684,1.678-2.333,1.928a64.6,64.6,0,0,1-8.224.4H264.046a64.456,64.456,0,0,1-8.224-.4c-1.649-.28-2.295-.694-2.343-1.928a18.172,18.172,0,0,1,0-2.179,1.928,1.928,0,0,1,1.475-2.14c1.928-.569,8.06-.646,9.159-.646ZM140.857,316.289c26.435,17.016,46.343.762,82.785.762s56.341,16.254,82.775-.762c-1.215,6.749-2.5,12.4-5.293,18.693-4.579,10.277-10.99,14.654-21.884,14.413-15.792-.357-32.325-6.99-55.6-6.99s-39.816,6.633-55.608,6.99c-10.894.241-17.3-4.136-21.884-14.413-2.8-6.3-4.078-11.926-5.293-18.693Zm6.3-36.346a38.736,38.736,0,0,1,21.374,4.415l.212,2.478a24.616,24.616,0,0,0,.819,4.56,70.635,70.635,0,0,1-8.677,3.162c-1.562.511-3.162,1.032-4.763,1.581-1.687-5.717-4.637-11.742-9.014-16.2Zm23.649,6.749-8.407-100.64h122.5l-8.407,100.64C273.321,324.532,173.963,324.542,170.8,286.692Zm80.23,9.988a6.748,6.748,0,0,1-2.622,3.278c-2.94,1.928-6.411.559-9.8-.771-5.63-2.217-7.221-3.124-10.74,1.677-1.234-2.757-2.082-5.341.453-7.867,2.391-2.381,8.137-1.928,10.769-3.962,2.227-1.706-.8-5.5-1.928-6.99l-7.211-2.169-1.687-7.443c-5.148-3.239-17.778-10.6-23.138-4.917-3.22,3.442-1.485,6.266.521,9.535,3.972,6.479,4.676,9.438,1.928,16.5-5.659-7.944-7.9-8.33-16.785-11.868-9.3-3.7-20.188-7.905-16.611-20.246,4.068-14.153,26.358-13.208,37.657-10.547L202,241.834c-1.658,1.379-3.316,2-5.273.106-1.446,1.07-2.95,1.928-4.579.713a13.411,13.411,0,0,1-3.037-3.268c-1.051-1.677,0-3.162,1.07-4.464-1.986-2.372-.771-4.126,1.118-5.891l11.569-10.817c1.928-1.764,3.721-2.892,5.948-.7,1.388-1.022,2.94-1.928,4.531-.752a13.554,13.554,0,0,1,3.047,3.249c1.109,1.716.145,3.153-1.022,4.531,1.745,2.082.964,3.683-.472,5.245l8.387,10.431c-1.8-11.511-1.321-33.743,13.16-36.828,12.668-2.671,16,8.387,19.069,17.98,2.593,8.118,3.509,12.244,10.47,17.421-6.874,2.651-10.316,1.253-16.129-2.892-3.124-2.227-5.784-4.146-9.477-1.176-6.054,4.917.434,18.019,3.3,23.379l7.25,2.179,1.649,7.337c1.427,1.253,4.984,4.55,6.835,2.449,2.208-2.487,2.169-8.252,4.7-10.47,2.7-2.352,5.225-1.33,7.886.1-5.032,3.172-4.232,4.82-2.429,10.6,1.1,3.48,2.217,7.028.1,9.834a6.748,6.748,0,0,1-3.451,2.391c2.15,4.146,1.677,11.328,1.427,16.746-5.428-.125-12.62-.164-16.611-2.593ZM187.7,195.818c3.683-1.986,4.1-3.75,5.341-7.4,4.309,4.531,5.784,7.182.964,11.955-1.533,1.533-3.268,3.268-3.066,6.43.087,1.456,1.33,1.61,1.755.443a8.484,8.484,0,0,1,3.6-4.223c2.69-1.928,2.6-2.719,3.133-5.717,4.82,3.808,5.707,6.749,3.451,12.408-1.33,3.307-1.157,3.933-.916,7.24a7.607,7.607,0,0,1-6.228-3.856c-1.022,3.143.578,4.907,2.044,7.5-4.232-.453-6.112-1.292-8.8-4.82-.4,4.483,2.16,6,5.119,8.619-3.48.4-5.312.6-8.445-1.186.877,3.085,2.275,3.6,4.82,5.013-5.929,2.7-12.321,2.96-16.862-2.294-2.429-2.825-3.789-7.626-2.372-11.154.964-2.478,3.2-4.387,6.18-6.276,3.451-2.2,4.271-2.892,5.572-6.749,1.07-3.21,1.61-4.223,4.656-5.871Zm112.421,84.125a38.746,38.746,0,0,0-21.374,4.415l-.212,2.478a23.844,23.844,0,0,1-.819,4.56,70.255,70.255,0,0,0,8.677,3.162c1.552.511,3.162,1.032,4.753,1.581,1.687-5.717,4.637-11.742,9.014-16.2ZM249.99,295.861a5.235,5.235,0,0,1-3.731,3.644c-4.984,1.321-13.834-7.211-17.932-1.032a4.415,4.415,0,0,1,.916-4.618c3.124-3.114,17.932-.81,9.3-12.109l3.191-2.969C245.922,283.318,245.594,291.966,249.99,295.861ZM265.531,281.4a5.216,5.216,0,0,0,3.856-3.471c1.668-4.878-6.218-14.3.222-17.961a4.4,4.4,0,0,0-4.656.6c-3.336,2.892-2.063,17.835-12.735,8.445l-3.181,2.96c4.232,4.5,12.89,4.724,16.457,9.429Zm-27.862-.511,13.748-12.832-1.359-6.045L231.74,279.1l5.939,1.784Zm-35.8-40.549c-1.379,1.282-2.584,2.333-4.252.694.231-.183,1.253-.964,3.133-2.738l10.759-10.026c1.88-1.755,2.738-2.719,2.94-2.892,1.523,1.774.386,2.892-.964,4.184l-11.569,10.817Zm-9.641-10.354c-1.369,1.282-2.507,2.41-.964,4.184.2-.212,1.06-1.167,2.892-2.892l10.759-10.026c1.928-1.764,2.892-2.545,3.133-2.738-1.668-1.639-2.892-.588-4.252.694l-11.569,10.817Zm-29.79,100.293c.116,1.841.337,4.059.453,5.9.848.106,1.687.193,2.536.222,1.523,0,1.678-.578,1.658-1.986h.482c.106,1.716.212,3.345.318,5.071h-.521c-.251-1.388-.328-2.092-1.928-2.14a20.127,20.127,0,0,1-2.516-.212c.1,1.552.193,3.027.289,4.579.067.964.222,1.552,1.041,1.61s1.369,0,2.034.058c1.851.067,2.555-.9,3.124-2.767l.492.058a26.105,26.105,0,0,1-.771,3.422,34.966,34.966,0,0,1-9.274-.376v-.569c1.408.27,1.658-.048,1.562-1.533-.2-3.124-.54-6.912-.733-10.036-.077-1.33-.415-1.735-1.812-2.073v-.569a46.274,46.274,0,0,0,9.3.588l.347,3.307h-.5c-.4-1.716-.839-2.362-2.41-2.4-1.07,0-2.053-.068-3.153-.174Zm-4.531-1.456c0,1.446.058,2.478.2,4.136l-.482-.125a5.784,5.784,0,0,0-4.56-4.473c-1.928-.241-2.208,2.025-.675,3.278,1.793,1.446,5.669,3.48,6.835,5.669,1.812,3.4-.578,6.845-3.509,5.245a13.35,13.35,0,0,1-2.516-1.928c-.511-.492-.742-.376-.434.309l-.463-.318a27.324,27.324,0,0,1-1.33-4.55l.54.27a11.569,11.569,0,0,0,4.281,5.437c1.61,1.022,2.892-.472,2-2.478-1.022-2.208-4.319-3.683-6.305-5.784s-1.928-5.63.752-6.006a6.083,6.083,0,0,1,4.223,1.446c.665.472.964.636.964-.251l.492.116Zm41.349-4.078c.087,1.687.164,3.027.26,4.714l-.453.106c-.241-1.311-.7-2.642-2.082-3.143-2.256-.839-4.82,1.687-3.268,3.442,1.041,1.157,4.039,2.323,5.457,3.249,2.005,1.3,2.044,3.355.762,5.148a4.82,4.82,0,0,1-5.206,1.5c-1.032-.289-1.62-.569-1.7.646l-.472.106c-.077-1.668,0-2.468-.087-4.136l.492-.145c.28,1.359.434,2.034,1.832,2.593a3.509,3.509,0,0,0,3.856-.762c.9-1.205.28-2.121-.964-2.892-1.639-1.06-4.454-1.928-5.5-3.789-1.841-3.326,1.841-6.845,5.254-5.948.906.241,1.263.4,1.379-.55l.443-.116ZM184.549,328.6c.077,1.928.164,3.461.251,5.36q1.311-.2,2.632-.434c1.446-.26,1.8-.877,1.793-2.2l.472-.1c.068,1.745.116,2.892.183,4.608l-.453.106c-.212-1.273-.656-1.716-1.928-1.494-.877.154-1.755.309-2.632.443.077,1.6.135,2.892.2,4.5,0,.964-.1,1.62,1.022,1.427.685-.116,1.379-.251,2.063-.4,2.256-.492,2.815-1.928,3.4-3.77l.5-.154c-.231,1.417-.636,2.95-.964,4.309-3.027.559-5.987,1.176-9.554,1.745V342c1.677-.222,1.755-.8,1.677-2.391-.145-3.2-.3-5.881-.443-9.091-.077-1.62-.4-1.928-1.851-1.784v-.55c3.268-.53,6.054-1.1,9.641-1.755.106,1.118.231,2.082.328,3.181l-.472.116c-.376-1.774-.646-2.16-2.458-1.774-1.08.231-2,.4-3.3.646Zm-10.875,13.883a6.852,6.852,0,0,0,1.841.067,4.145,4.145,0,0,0,3.21-2.188,8.455,8.455,0,0,0,.289-7.018c-.752-2.044-2.237-3.644-4.473-3.288a6.257,6.257,0,0,0-1.726.463c.28,4.039.578,7.915.858,11.964Zm-3.529,1.562a3.6,3.6,0,0,1,0-.559c1.658-.087,1.658-.617,1.552-2.208-.193-3.1-.424-6.045-.607-9.149-.106-1.658-.2-2.073-1.822-1.976v-.636a47.037,47.037,0,0,0,4.946-.4c2.632-.415,4.82-.154,6.353,2.391a9.072,9.072,0,0,1,.145,8.956,6.266,6.266,0,0,1-5.052,2.989c-1.832.222-3.644.472-5.476.588Zm59.242-13.94a2.622,2.622,0,0,0,3.018-.607,4.261,4.261,0,0,0,.521-4.039,2.439,2.439,0,0,0-2.169-1.764,3.934,3.934,0,0,0-1.128.106c-.087,1.928-.174,4.261-.251,6.228ZM213.1,323c0,1.658.058,2.892.1,4.579h-.482c-.241-1.668-.964-3.124-2.574-3.374a2.709,2.709,0,0,0-2.545.848c-1.167,1.359-.549,2.555.791,3.365s3.1,1.311,4.348,2.227c2.208,1.62,1.5,5.013-.482,6.575-1.388,1.089-2.719.964-4.387.55-1.041-.231-1.514-.627-1.658.54l-.492.067c0-1.649-.048-2.786-.077-4.435l.472-.106c.27,1.436.55,2.266,1.928,2.892a2.969,2.969,0,0,0,3.49-.424,2.5,2.5,0,0,0-.27-3.741c-1.35-.964-3.085-1.35-4.425-2.343a3.741,3.741,0,0,1-.443-5.572,4.377,4.377,0,0,1,3.77-1.446c1.234.125,2.16,1.33,2.439-.241h.482ZM240.1,337.643l-.058.588c-1.928-.231-3.442-.386-5.5-.55l.067-.617c1.7,0,1.774-.154,1.928-1.928.28-3.124.559-6.132.858-9.245.154-1.687.135-2.082-1.639-2.208v-.559c1.928.125,3.856.472,5.707.656l-.058.6c-1.562-.193-1.87,0-2.044,1.735-.318,3.124-.607,6.1-.9,9.226-.173,1.755-.077,2.063,1.581,2.285Zm6.536-12.08q-.318,2.748-.617,5.5c.877.154,1.755.3,2.622.463,1.514.289,1.851-.106,2.092-1.581l.463.1c-.2,1.706-.357,3.133-.55,4.82l-.463-.1c0-1.282-.125-2.044-1.629-2.343-.868-.183-1.755-.318-2.632-.463-.183,1.658-.357,2.728-.521,4.387-.106.964-.3,1.514.8,1.706.675.116,1.523.26,2.208.357,1.986.3,2.5-.289,3.615-2.053l.482.135c-.511,1.138-.964,2.237-1.446,3.374-3.529-.636-6.363-1.022-9.5-1.446a2.166,2.166,0,0,1,.058-.607c1.581.125,1.784,0,1.928-1.658.347-3.21.646-6.054.964-9.255.183-1.706,0-2.025-1.543-2.285l.067-.6c3.259.472,6.392,1.022,9.641,1.62-.077,1.1-.2,1.928-.28,3.018l-.482-.116c0-1.562-.328-2.082-2-2.42-1.089-.222-2.217-.4-3.355-.559Zm7.308.3,3.162.6c1.812,3.914,3.712,7.423,5.572,11.318.318-2.67.569-4.82.877-7.52.183-1.581,0-2.015-1.359-2.256a1.564,1.564,0,0,1,.067-.559c1.311.241,2.642.5,4.059.723a1.591,1.591,0,0,1-.067.559c-1.388-.222-1.61,0-1.793,1.562-.463,4.059-.9,7.713-1.379,11.791l-.424-.067c-2.025-4.184-4.068-7.983-6.035-12.186-.357,2.844-.733,5.466-1.032,8.32-.174,1.61,0,1.87,1.33,2.179l-.106.588c-1.35-.27-2.757-.492-4.136-.762a3.136,3.136,0,0,1,.135-.578c1.311.212,1.706,0,1.87-1.591.357-3.316.8-6.4,1.215-9.708-.492-1.032-.839-1.649-2.034-1.861a5.378,5.378,0,0,1,.077-.55Zm23.012,3.577c-.087,1.234-.222,2.391-.309,3.615h-.472c0-1.417-.106-2.651-1.784-2.834l-1.7-.174c-.434,3.77-.781,7.057-1.215,10.817-.193,1.649-.058,2.073,1.494,2.227l-.058.54c-1.774-.193-3.741-.521-5.389-.781a5.31,5.31,0,0,1,.068-.53c1.465.222,1.784,0,2-1.726.443-3.731.81-7.038,1.253-10.778l-1.4-.174c-1.745-.2-2.323.6-2.651,2.314l-.472-.068c.193-1.186.366-2.429.569-3.625a94.889,94.889,0,0,0,10.065,1.186Zm11.3.675c-.723,1.928-1.408,4.059-2.005,6.006.762-.164,1.523-.328,2.294-.511-.067-1.3-.231-4.213-.289-5.5Zm-12.2,13.834.058-.588c1.523.077,1.716-.386,1.928-1.928.4-3.23.713-6.054,1.157-9.274.241-1.726-.2-1.861-1.494-1.928l.048-.694c2.14.106,3.856.068,5.6,0l-.077.7c-1.465.1-1.87.424-2.14,2.15-.5,3.21-.839,6.025-1.282,9.236-.174,1.273-.193,2.1,1.157,2.1,1.051,0,1.543-.3,2.121-1.928,1.4-4.059,2.892-8.6,4.3-12.61a41.879,41.879,0,0,0,7.182-1.629c.068,1.022.058,1.4.116,2.41l-.434.222c-.154-1.089-.492-1.552-1.658-1.176-.829.26-2.111.578-2.892.742.087,1.812.222,3.75.3,5.563.646-.183,1.292-.376,1.928-.6,1.224-.415,1.33-.964,1.34-2.188l.347-.328c0,1.61.067,2.777.106,4.387l-.415.174c-.125-1.051-.116-1.764-1.417-1.321-.646.222-1.292.424-1.928.607.058,1.465.106,2.892.154,4.377,0,.665-.135,1.523.7,1.205.492-.183,1.186-.453,1.677-.665.964-.434,1.687-1.311,2.237-3.114l.453-.241c-.28,1.3-.366,1.87-.636,3.172a19.87,19.87,0,0,1-6.99,2.815v-.549c1.34-.386,1.205-1.051,1.147-2.352s-.135-2.834-.2-4.261c-.964.231-1.832.443-2.738.646-.588,1.61-1.138,3.249-1.706,4.82-.5,1.379-.27,1.812,1.215,1.494v.54a46.6,46.6,0,0,1-9.332-.087Zm-54.952-12.427q-.964-2.719-2.034-5.457c-.665,1.928-1.244,3.75-1.928,5.63,1.34-.067,2.593-.125,3.933-.173Zm8.2-.665c-.058,1.369-.1,2.516-.154,3.856-.067,1.7,0,2,1.687,2.121v.569c-3.21-.193-6.122-.193-9.506-.183V336.7c.829-.068,1.465-.4,1.224-1.263s-.819-2.295-1.089-3.027c-1.552.058-3.027.125-4.57.2-.231.665-.791,2.169-1.041,3.056s.53,1.157,1.321,1.176v.521c-1.215.067-2.632.145-3.982.251V337.1a1.726,1.726,0,0,0,1.485-1.292c1.282-3.2,3.972-11.029,4.685-13.352h.415c.646,1.716,3.615,9.92,4.82,12.8.337.8.646,1.321,1.62,1.35s1.07-.964,1.118-1.976c.154-3.1.251-6.315.376-9.419.068-1.735,0-2.025-1.687-2.121v-.521c1.533.068,3.066.068,4.589.174,1.755.125,3.23.578,4.184,2.15a4.57,4.57,0,0,1-.569,5.293c-1.311,1.273-3.307,1.147-4.888.656Zm59.117-214.6c-4.7.665-9.853.116-13.266,3.153-3.1,2.767-5.389,7.626-8.725,10.46-4.3,3.644-8.224,3.21-11.27,9.014a11.145,11.145,0,0,0,3.644,14.2c-1.167-3.442-.4-9.776,3.779-12.311-.463,2.834.289,7.713,2.063,10.084-.309-5.611,3.692-13.5,10.036-16.852-.839,2.073-4.309,8.4-.916,16.544a12.533,12.533,0,0,1,8.484-9.255c-1.591,2.661-3.268,8.976-1.446,12.639,5.312-1.976,4.184-6.2,7.288-11.164,3.654-5.842.964-8.513.53-13.844-1.928,2.487-1.263,6.806-6.691,8.195-2.574.656-3.7-1.668-2.449-3.644,4.82-7.558,1.61-10.065,8.937-17.218Zm-93.7,0c-4.7.665-9.843.116-13.256,3.153-3.1,2.767-5.389,7.626-8.735,10.46-4.29,3.644-8.224,3.21-11.26,9.014a11.125,11.125,0,0,0,3.644,14.2c-1.176-3.442-.4-9.776,3.77-12.311-.453,2.834.289,7.713,2.073,10.084-.309-5.611,3.683-13.5,10.036-16.852-.839,2.073-4.309,8.4-.916,16.544a12.533,12.533,0,0,1,8.474-9.255c-1.591,2.661-3.259,8.976-1.446,12.639,5.322-1.976,4.184-6.2,7.288-11.164,3.654-5.842,1.012-8.513.54-13.844-1.928,2.487-1.263,6.806-6.7,8.195-2.564.656-3.7-1.668-2.439-3.644C190.622,125.913,187.4,123.407,194.729,116.253Zm46.806,0c-4.7.665-9.853.116-13.266,3.153-3.1,2.767-5.389,7.626-8.677,10.46-4.3,3.644-8.224,3.21-11.27,9.014a11.145,11.145,0,0,0,3.644,14.2c-1.167-3.442-.4-9.776,3.779-12.311-.463,2.834.289,7.713,2.063,10.084-.309-5.611,3.692-13.5,10.036-16.852-.839,2.073-4.309,8.4-.964,16.544a12.533,12.533,0,0,1,8.484-9.255c-1.591,2.661-3.268,8.976-1.446,12.639,5.312-1.976,4.184-6.2,7.288-11.164,3.654-5.842.964-8.513.53-13.844-1.928,2.487-1.253,6.806-6.691,8.195-2.574.656-3.7-1.668-2.439-3.644C237.428,125.913,234.208,123.407,241.535,116.253ZM350.3,133.289a20.245,20.245,0,0,0,4.656-1.784c-4.685,6.459,1.263,16.062,8.744,11.26,7.047-4.512-3.509-14.991,4.907-20.381,7.713-4.936,14.307,2.95,15.078,10.19a23.967,23.967,0,0,0-3.683.839c4.656-10.962-12.485-14.172-10.47-1.928.829,5.081,2.391,10.142-2.8,13.5-8.224,5.273-17.132-3.239-16.437-11.7ZM377.711,160.8c-1.928-2.748-5.023-8.127-9.149-6.141-5.987,2.892-.26,10.653,4,8.619Zm-7.886,3.7c-5.341-1.735-10.152-9.785-3.413-13.015,7.558-3.635,8.474,6.633,13.111,8.532,3.461-1.658,6.1-3.471,4.088-7.655-1.388-2.892-5.3-3.5-5.669-4.271l2.237-.964a11.569,11.569,0,0,1,5.543,5.572c5.968,12.408-17.431,11.048-14.172,17.8l-.733.55c-2.005-2.1-4.059-4.406-.964-6.536Zm2.613,11.665A186.191,186.191,0,0,0,393.4,170.3a7.713,7.713,0,0,0,.964,3.519c-1.282.366-2.6.685-3.856,1.041,8.262,2.16,9.419,12.533.337,15.107-4.5,1.263-8.985,2.429-13.5,3.8a8.61,8.61,0,0,0-1.012-3.615c4.232-.964,8.455-2.092,12.639-3.259,8.05-2.266,6.334-11.26-.742-10.971-4.28.164-10.749,2.487-14.779,3.953a9.14,9.14,0,0,0-1.041-3.7Zm25.721,19.744a17.8,17.8,0,0,0,1.928-.241c.077.964.183,1.928.328,2.892,1.774-.27,3.538-.569,5.312-.906a11.963,11.963,0,0,0,1.687,3.451c-2.237.241-4.415.54-6.633.877.289,1.976.713,3.933,1.2,5.871a13.123,13.123,0,0,0-1.928.164,43.579,43.579,0,0,0-.791-5.784c-4.28.337-8.677,1.022-12.909,1.668-9.911,1.5-1.735,6.749-4.666,8.224-3.808-4.223-3.644-10.46,3.056-11.482,4.647-.7,9.332-1.176,13.989-1.88a23.74,23.74,0,0,0-.578-2.892Zm-5.052,30.918c-.762-3.268-1.61-9.419-6.18-9.13-6.633.424-4.223,9.8.482,9.5Zm-8.735.492c-4.3-3.615-5.784-12.87,1.706-13.352,8.378-.53,5.37,9.332,8.966,12.832,3.856-.251,6.951-.964,6.662-5.572-.2-3.21-3.606-5.225-3.663-6.083l2.439-.067a11.569,11.569,0,0,1,3.056,7.25c.877,13.738-20.246,3.7-19.812,11.193l-.887.231C381.76,231.046,380.738,228.144,384.372,227.324Zm-2.979,22.935c9.448,5.023,19.8,8.976,29.674,13.063l-.2.742c-9.217,1.822-18.433,3.692-27.573,5.871q10.113,10.046,20.535,19.773l-.164.578c-10.6-1.745-21.21-3.365-31.882-4.975a9.931,9.931,0,0,0,1.08-3.972c7.4,1.456,15.29,3.249,22.829,3.75-5.784-6.006-12.147-12.687-19.021-17.459l.164-.6c8.05-.116,17.353-3.307,25.153-5.1a180.114,180.114,0,0,0-21.528-8.262,7.578,7.578,0,0,0,.964-3.413ZM374,308.461c.964-3.278,3.249-10.537-.964-12.533-6.623-3.143-8.32,8.127-4.165,10.1l5.167,2.439Zm-7.877-3.856c-2.025-5.264.386-15.994,7.944-12.408s.145,12.157,1.639,17.132c6.064,2.892,11.453-4.415,8.1-9.988l.154-.328,2.169,1.128c1.687,6.575-3.982,15.936-11.444,12.408-1.186-.6-8.8-5.081-10.6-4.743-.887.164-1.186,1.2-1.523,1.928l-.887-.222c.357-2.892.868-5.929,4.454-4.888Zm-8.2,8.812A170.062,170.062,0,0,0,375.85,325.66a9.323,9.323,0,0,0-2.208,3.23,44.77,44.77,0,0,0-4.03-3.1c1.928,3.326,2.892,6.247-.058,9.062a20.368,20.368,0,0,0-2.757-2.15v-.424c8.5-4.82-6.941-13.42-11.029-15.82a10.663,10.663,0,0,0,2.131-3.037Zm-9.409,13.69c5.36,4.888,10.846,9.641,16.572,14.066a10.2,10.2,0,0,0-2.449,2.892c-5.341-4.917-10.875-9.573-16.572-14.076a8.889,8.889,0,0,0,2.449-2.892Zm23.012,18.944c2.333,1.986-.694,5.553-3.027,3.567a2.343,2.343,0,1,1,3.027-3.567Zm-31.4,5.119c1.928-2.719,6.045-7.394,2.834-10.653-4.676-4.724-10.161,3.239-6.855,6.594l4.02,4.059Zm-6.1-6.266c-.174-9.641,12.475-13.622,13.044-2.179.125,2.593-5.476,6.749-5.649,9.891,3.1,3.124,8.677,5.968,10.412,0,.309-1.041-.077-3.345.366-3.789l1.649,1.8a11.463,11.463,0,0,1-3.471,7.057c-7.973,7.886-16.543-14.066-21.451-9.178l-.762-.511c1.34-2.593,2.844-5.273,5.862-3.066ZM280.031,85.567a289.981,289.981,0,0,0,12.34-32.287,29.518,29.518,0,0,0,3.567,1.359,339.289,339.289,0,0,0-12.369,32.277A12.716,12.716,0,0,0,280.031,85.567Zm40.009-2.555C312.2,78.124,302.079,94.3,309.512,98.939c7.8,4.82,18.317-11.087,10.528-15.927Zm-5.3,20.708a24.284,24.284,0,0,0,2.372-3.77,8.8,8.8,0,0,1-13.362-6.132,12.215,12.215,0,0,1,7.973-13.5c5.784-2.1,12.533.241,12.533,8.137,2.892-4.7,5.91-9.38,8.677-14.2a6.836,6.836,0,0,0,3.365,2.1c-6.488,9.477-12.437,19.455-18.317,29.327a8.483,8.483,0,0,0-3.23-2.005Zm23.9,16.524c-9.448-1.167-15.02-11.309-7.809-19.06,9.727-10.46,25.644,1.639,14.731,13.246L333.99,103.643c-6.556,6.951-2.738,15.165,6.305,14.982-.559.53-1.109,1.051-1.629,1.62Zm-3.519-17.71L344,110.787C351.623,102.593,342.368,95.266,335.118,102.535ZM91.988,360.743a11.433,11.433,0,0,0-2.825-3.1c4.2-3.673,8.416-7.366,12.533-11.106,5.283-4.772,8.908-9.853,3.2-16.177-3.23-3.577-7.337-4.608-11.569-2.121a45.649,45.649,0,0,0-6.536,5.216c-3.567,3.22-7.115,6.479-10.6,9.8a6.218,6.218,0,0,0-1.928-2.179c5.158-4.29,11.309-10.451,16.466-13.979,6.045-4.155,11.453-3,16.312,2.391,6.373,7.057,5.341,12.89-1.5,19.069-4.522,3.982-9.236,7.954-13.5,12.2Zm1.359-48.127a197.166,197.166,0,0,0-19.2,10.238,8.311,8.311,0,0,0-1.716-3.181c1.186-.636,2.362-1.205,3.567-1.851-3.249-.125-5.784-1.359-7.366-4.29-2.487-4.666-.588-8.05,3.8-10.393,4.155-2.208,8.214-4.271,12.321-6.6a8.243,8.243,0,0,0,1.774,3.326c-3.933,1.8-7.828,3.856-11.646,5.9-3.181,1.7-5.514,4.174-3.548,7.838,2.507,4.7,7.192,2.825,10.865.868,3.124-1.668,6.353-3.3,9.352-5.187a8.465,8.465,0,0,0,1.8,3.384ZM81.624,288.678c-6.835,2.487-13.5,5.158-20.14,8.166a10.276,10.276,0,0,0-1.427-3.5c6.874-2.478,13.5-5.187,20.149-8.166a8.426,8.426,0,0,0,1.417,3.5ZM54.177,300.247a2.343,2.343,0,1,1,1.544-1.849A2.343,2.343,0,0,1,54.177,300.247Zm21.6-28.585c-6.392,4.059-12.822,9.448-18.693,14.268a11.183,11.183,0,0,0-1.109-4.107c5.167-2.892,10.518-7.327,15.126-11.087A88.59,88.59,0,0,0,52.451,268.7,5.418,5.418,0,0,0,51.7,265.9c7.3,1.186,16.071,2.892,23.388,3.162A8.4,8.4,0,0,0,75.782,271.662Zm-7.6-32.644a13.054,13.054,0,0,1,3.287,7.568c.588,6.614-3.731,11.241-10.229,11.82s-11.685-2.777-12.282-9.554c-.636-7.2,3.962-9.641,10.19-10.142l1.4,15.782c5.177-.54,9.564-2.545,9.033-8.571a9.776,9.776,0,0,0-3.692-6.749,15.185,15.185,0,0,0,2.295-.116ZM58.949,254.54l-1.07-12.08c-3.856.347-7.905,1.706-7.491,6.45C50.784,253.229,55.209,254.695,58.949,254.54Zm11.386-23.36a191.9,191.9,0,0,0-21.711,0,9.516,9.516,0,0,0,0-3.9,47.248,47.248,0,0,0,5.09.28c-3.625-1.726-5.929-3.422-5.071-7.51a19.187,19.187,0,0,0,3.49.212l.222.366c-2.979,6.1,4.608,7.067,8.677,7.057,3.085,0,6.238,0,9.323-.231a11.1,11.1,0,0,0,0,3.7Zm-4.078-15.493c2.15-1.061,3.856-2.651,4.136-5.139.318-2.632-.964-4.628-3.644-4.955-2.362-.289-3.336,1.186-4.184,3.162l-.839,2.034c-1.282,3.066-3.046,4.628-6.5,4.213-4.068-.492-5.939-3.9-5.476-7.761a10.855,10.855,0,0,1,2.2-5.515,13.3,13.3,0,0,0,2.8,1.292c-1.755,1.147-3.422,2.767-3.683,4.946a3.712,3.712,0,0,0,3.365,4.358c2.333.28,3.422-1.022,4.271-3.018l1.292-3c1.138-2.7,2.767-4.126,5.784-3.76,4.618.569,6.749,4.656,6.189,8.985a10.219,10.219,0,0,1-2.352,5.7c-1.1-.578-2.208-1.07-3.365-1.543ZM74.1,197.3c-7.067-1.764-14.095-3.287-21.277-4.493a10.4,10.4,0,0,0,.791-3.7c7.067,1.793,14.075,3.249,21.267,4.493A8.33,8.33,0,0,0,74.1,197.3Zm-29.26-5.717a2.343,2.343,0,1,1,2.313-.673A2.343,2.343,0,0,1,44.845,191.586Zm16.11-20.7c-1.755,5.119,2.757,8.2,7.009,9.641,3.924,1.34,9.217,1.822,10.875-2.979,1.822-5.331-3.018-8.407-7.385-9.9-4-1.379-8.869-1.533-10.5,3.22Zm21.383.559a26.153,26.153,0,0,0-4.2-1.465,8.166,8.166,0,0,1,2.044,9.024c-2.044,5.939-7.9,7.067-13.323,5.206-5.669-1.928-10-6.816-7.857-13.034a8.06,8.06,0,0,1,6.373-5.553c-5.245-1.793-10.47-3.654-15.782-5.245a6.421,6.421,0,0,0,1.282-3.741c10.6,4.146,21.846,7.761,32.7,11.212A8.252,8.252,0,0,0,82.338,171.447Zm.193-25.924q-2.044,5.784-1.928,7.838a3.8,3.8,0,0,0,2.169,3.181c2.323,1.282,4.473.964,5.784-1.485,1.109-2.015,1.263-5.486-1.1-6.749Zm7.626,4.29a9.265,9.265,0,0,1-.627,7.5c-1.784,3.23-4.57,4.724-8.011,2.825-3.095-1.716-3.625-4.338-2.68-7.578.559-1.841,2.381-6.594,2.044-8.06-1.62-.887-3.577-2.005-5.476-1.62-3.856.791-4.82,6.266-3.153,9.515l-.174.309L70,151.452c-.771-4.049,1.321-10.6,5.611-11.713,2.256-.578,4.579.559,6.507,1.61l6.806,3.972c2.67,1.475,3.548,2.516,5.119-.386l.877.28c-.6,2.892-1.2,5.89-4.753,4.6Zm-.964-29.221c-3.548,4.088-.511,8.677,2.892,11.569,3.133,2.719,7.867,5.139,11.193,1.311,3.692-4.261.357-8.927-3.133-11.955-3.2-2.777-7.645-4.734-10.942-.964Zm19.619,8.522a26.675,26.675,0,0,0-3.345-2.892,8.166,8.166,0,0,1-1.494,9.13c-4.088,4.724-9.988,3.577-14.3-.164-4.531-3.924-6.749-10.055-2.41-15.03a8.079,8.079,0,0,1,7.992-2.757c-4.184-3.625-8.33-7.317-12.668-10.769a6.507,6.507,0,0,0,2.6-3c8.31,7.857,17.286,15.338,26.117,22.646a8.233,8.233,0,0,0-2.5,2.892Zm19.031-21.75a12.986,12.986,0,0,1-4.068,7.173c-4.926,4.444-11.222,3.789-15.589-1.051s-4.82-11.029.231-15.56c5.312-4.82,10.055-2.69,14.239,2.034l-11.762,10.6c3.442,3.856,7.886,6.016,12.282,2.063a9.814,9.814,0,0,0,3.191-7.038c.492.617.964,1.176,1.475,1.764Zm-17.951,1.928,8.995-8.127c-2.622-2.892-6.1-5.3-9.641-2.1-3.22,2.892-1.774,7.337.656,10.229Zm37.233-12.041c-3.856-8.677-9.641-18.973-14.8-27.8,4.82-2.275,9.824-5.11,14.519-7.713.472.877.964,1.764,1.417,2.642-3.557.964-7.857,3.326-11.135,5.071,1.668,3.49,3.509,6.855,5.322,10.267a103.689,103.689,0,0,0,9.94-5.727,21.428,21.428,0,0,0,1.263,2.362c-3.49,1.629-6.893,3.268-10.287,5.071,2.073,3.856,5.225,10.181,7.568,13.825a12.726,12.726,0,0,0-3.856,2.034Zm34.466-17.835a13.083,13.083,0,0,1-6.373,5.245c-6.2,2.381-11.829-.482-14.182-6.575s-.55-11.993,5.784-14.461c6.816-2.622,10.229,1.167,12.533,7l-14.789,5.717c1.87,4.82,5.158,8.465,10.73,6.324a9.8,9.8,0,0,0,5.5-5.428c.231.752.453,1.446.742,2.179ZM164.072,74.8l11.318-4.358c-1.408-3.635-3.8-7.144-8.262-5.418C163.089,66.575,162.848,71.231,164.072,74.8Zm30.436-16.389c-5.312,1.041-5.717,6.488-4.82,10.894.8,4.068,3.037,8.9,8.011,7.934,5.534-1.08,5.784-6.826,4.888-11.347-.81-4.165-3.114-8.445-8.04-7.481Zm10.21,18.8a27.416,27.416,0,0,0-.829-4.377,8.185,8.185,0,0,1-6.749,6.286c-6.16,1.205-10.065-3.3-11.174-8.937-1.147-5.881.906-12.061,7.366-13.324a8.05,8.05,0,0,1,7.992,2.748c-1.061-5.437-2.063-10.894-3.345-16.293a6.421,6.421,0,0,0,3.856-.762c1.716,11.28,4.194,22.81,6.633,33.926a8.175,8.175,0,0,0-3.731.733ZM233.5,73.487a13.015,13.015,0,0,1-7.819,2.613c-6.642,0-10.875-4.7-10.884-11.212s3.789-11.4,10.6-11.4c7.24,0,9.217,4.82,9.217,11.039H218.764c0,5.235,1.841,9.756,7.713,9.747a9.8,9.8,0,0,0,7.086-3.085c0,.781-.1,1.514-.1,2.295Zm-14.654-10.6H231c0-3.914-.964-8.031-5.784-8.021-4.329,0-6.218,4.261-6.353,8.031ZM241.6,76.919c1.07-6.594,2.4-14.818,2.622-21.557a9.641,9.641,0,0,0,3.856.472,46.66,46.66,0,0,0-.9,5.013c2.188-3.442,4.145-5.457,8.069-4.117a19.743,19.743,0,0,0-.636,3.432l-.386.183c-5.659-3.7-7.558,3.6-8.069,7.79-.366,3.075-.733,6.189-.9,9.274A11.289,11.289,0,0,0,241.6,76.919Zm29.819-6.112q-6.093-.578-8.06.077a3.856,3.856,0,0,0-2.564,2.892c-.684,2.564.183,4.56,2.844,5.273,2.227.6,5.621-.116,6.305-2.7l1.475-5.524ZM269.1,79.243a9.245,9.245,0,0,1-7.433,1.215c-3.557-.964-5.678-3.3-4.676-7.1.916-3.422,3.336-4.56,6.749-4.435,1.928.106,6.97.723,8.31,0,.472-1.774,1.08-3.953.251-5.7-1.668-3.461-7.231-3.2-9.988-.762l-.357-.087.723-2.333c3.635-1.687,10.6-1.34,12.716,2.613,1.109,2.034.578,4.57,0,6.749l-2.208,7.568c-.771,2.892-1.591,3.953,1.61,4.869l-.058.916c-2.767.174-6,.27-5.611-3.5ZM192.763,410.624c.3-7.635.5-15.425.241-23.09l-5.784,3.365a5.09,5.09,0,0,0-1.234-1.755,101.551,101.551,0,0,0,10.528-4.82c-.472,8.677-.521,17.623-.27,26.3a10.064,10.064,0,0,0-3.442,0Zm17.353-24.931c-3.77,0-5.254,3.77-5.254,7.009s1.687,5.784,5.148,5.784c3.8,0,5.09-3.1,5.09-6.45s-1.253-6.353-4.984-6.353Zm-6.209,24.246v-2.111c3.114,2.41,6.749,1.928,8.966-1.388a16.592,16.592,0,0,0,2.372-9.814c-1.34,2.458-3.654,3.384-6.353,3.384-4.387,0-7.1-3.008-7.1-7.317,0-5.013,3.644-8.185,8.551-8.185,6.257,0,8.32,5.216,8.32,10.682,0,4.637-1.022,8.378-3.056,11.183a9.8,9.8,0,0,1-11.7,3.567Zm22.627-7.2c0,3.008,1.427,6.662,4.936,6.662,3.8,0,5.071-3.48,5.071-6.748s-1.118-6.238-4.82-6.238-5.177,3.1-5.177,6.315Zm-.26-4.483a7.828,7.828,0,0,1,6.479-3.249c4.319,0,7.076,2.757,7.076,7.076,0,5.158-3.181,8.542-8.387,8.542-6.247,0-8.378-5.37-8.378-10.807q0-6.845,3.191-11.106c2.564-3.422,6.594-5.158,10.73-3.856v1.793c-2.892-2.237-6.411-.289-8.127,2.42a20.246,20.246,0,0,0-2.584,9.178Zm17.189-.656c0-6.045,1.523-13.054,8.918-13.054s8.956,6.884,8.956,13.054-1.591,13.025-8.956,13.025S243.463,403.625,243.463,397.6Zm3.21,0c0,4.049.048,11.839,5.736,11.839,5.987,0,5.707-8.118,5.707-12.292,0-3.953-.212-11.328-5.707-11.328C246.712,385.818,246.674,393.531,246.674,397.6Z" transform="translate(-43.096 -42.55)" fill="#fff" fill-rule="evenodd"/>
      </g>
    </g>
  </g>
</svg>
