<svg xmlns="http://www.w3.org/2000/svg" xmlns:xlink="http://www.w3.org/1999/xlink" width="1080" height="3510" viewBox="0 0 1080 3510">
  <defs>
    <clipPath id="clip-DEBUG">
      <rect width="1080" height="3510"/>
    </clipPath>
  </defs>
  <g id="DEBUG" clip-path="url(#clip-DEBUG)">
    <rect width="1080" height="3510" fill="#7a7a7a"/>
    <rect id="Retângulo_7" data-name="Retângulo 7" width="1080" height="180" fill="#232222"/>
    <text id="Debug-2" data-name="Debug" transform="translate(542 122)" fill="#fff" font-size="74" font-family="SegoeUI, Segoe UI"><tspan x="-109.771" y="0">Debug</tspan></text>
    <path id="Caminho_1" data-name="Caminho 1" d="M16,15a6,6,0,1,0-6-6A6,6,0,0,0,16,15Zm0,30a6,6,0,1,0,6,6A6,6,0,0,0,16,45Zm0-21a6,6,0,1,0,6,6A6,6,0,0,0,16,24Z" transform="translate(989 60)" fill="#fff"/>
    <path id="Caminho_12" data-name="Caminho 12" d="M76,19H20l6.4-4.8a4,4,0,0,0-4.8-6.4l-16,12a4,4,0,0,0,0,6.4l16,12a4,4,0,0,0,4.8-6.4L20,27H76a16,16,0,1,1,0,32H8a4,4,0,1,0,0,8H76a24,24,0,0,0,0-48Z" transform="translate(51 53)" fill="#fff"/>
    <text id="Lorem_ipsum_dolor_sit_amet_consetetur_sadipscing_elitr_sed_diam_nonumy_eirmod_tempor_invidunt_ut_labore_et_dolore_magna_aliquyam_erat_sed_diam_voluptua._At_vero_eos_et_accusam_et_justo_duo_dolores_et_ea_rebum._Stet_clita_kasd_gubergren_no_sea_takimata_" data-name="Lorem ipsum dolor sit amet, consetetur sadipscing elitr, sed diam nonumy eirmod tempor invidunt ut labore et dolore magna aliquyam erat, sed diam voluptua. At vero eos et accusam et justo duo dolores et ea rebum. Stet clita kasd gubergren, no sea takimata " transform="translate(92 290)" fill="#fff" font-size="60" font-family="ArialMT, Arial"><tspan x="0" y="54">Lorem ipsum dolor sit amet, </tspan><tspan x="0" y="123">consetetur sadipscing elitr, sed </tspan><tspan x="0" y="192">diam nonumy eirmod tempor </tspan><tspan x="0" y="261">invidunt ut labore et dolore </tspan></text>
    <text id="Lorem_ipsum_dolor_sit_amet_consetetur_sadipscing_elitr_sed_diam_nonumy_eirmod_tempor_invidunt_ut_labore_et_dolore_magna_aliquyam_erat_sed_diam_voluptua._At_vero_eos_et_accusam_et_justo_duo_dolores_et_ea_rebum._Stet_clita_kasd_gubergren_no_sea_takimata_2" data-name="Lorem ipsum dolor sit amet, consetetur sadipscing elitr, sed diam nonumy eirmod tempor invidunt ut labore et dolore magna aliquyam erat, sed diam voluptua. At vero eos et accusam et justo duo dolores et ea rebum. Stet clita kasd gubergren, no sea takimata " transform="translate(92 1121)" fill="#fff" font-size="60" font-family="ArialMT, Arial"><tspan x="0" y="54">Lorem ipsum dolor sit amet, </tspan><tspan x="0" y="123">consetetur sadipscing elitr, sed </tspan><tspan x="0" y="192">diam nonumy eirmod tempor </tspan><tspan x="0" y="261">invidunt ut labore et dolore </tspan></text>
    <text id="Lorem_ipsum_dolor_sit_amet_consetetur_sadipscing_elitr_sed_diam_nonumy_eirmod_tempor_invidunt_ut_labore_et_dolore_magna_aliquyam_erat_sed_diam_voluptua._At_vero_eos_et_accusam_et_justo_duo_dolores_et_ea_rebum._Stet_clita_kasd_gubergren_no_sea_takimata_3" data-name="Lorem ipsum dolor sit amet, consetetur sadipscing elitr, sed diam nonumy eirmod tempor invidunt ut labore et dolore magna aliquyam erat, sed diam voluptua. At vero eos et accusam et justo duo dolores et ea rebum. Stet clita kasd gubergren, no sea takimata " transform="translate(92 1947)" fill="#fff" font-size="60" font-family="ArialMT, Arial"><tspan x="0" y="54">Lorem ipsum dolor sit amet, </tspan><tspan x="0" y="123">consetetur sadipscing elitr, sed </tspan></text>
    <text id="Lorem_ipsum_dolor_sit_amet_consetetur_sadipscing_elitr_sed_diam_nonumy_eirmod_tempor_invidunt_ut_labore_et_dolore_magna_aliquyam_erat_sed_diam_voluptua._At_vero_eos_et_accusam_et_justo_duo_dolores_et_ea_rebum._Stet_clita_kasd_gubergren_no_sea_takimata_4" data-name="Lorem ipsum dolor sit amet, consetetur sadipscing elitr, sed diam nonumy eirmod tempor invidunt ut labore et dolore magna aliquyam erat, sed diam voluptua. At vero eos et accusam et justo duo dolores et ea rebum. Stet clita kasd gubergren, no sea takimata " transform="translate(92 2681)" fill="#fff" font-size="60" font-family="ArialMT, Arial"><tspan x="0" y="54">Lorem ipsum dolor sit amet, </tspan><tspan x="0" y="123">consetetur sadipscing elitr, sed </tspan><tspan x="0" y="192">diam nonumy eirmod tempor </tspan></text>
    <g id="picture" transform="translate(259 521)">
      <g id="Grupo_17" data-name="Grupo 17">
        <g id="Grupo_16" data-name="Grupo 16">
          <path id="Caminho_39" data-name="Caminho 39" d="M440,72H40A40.048,40.048,0,0,0,0,112V368a40.048,40.048,0,0,0,40,40H440a37.031,37.031,0,0,0,6.7-.584A39.889,39.889,0,0,0,480,368V112A40.047,40.047,0,0,0,440,72ZM40,392a24,24,0,0,1-23.9-21.888L175.6,265.824,337.808,392Zm424-24a23.944,23.944,0,0,1-20.08,23.656A21.746,21.746,0,0,1,440,392H363.864L257.872,309.512l94.784-75.792L464,300.528Zm0-86.128L356.12,217.144a8,8,0,0,0-9.12.608l-102.136,81.68L180.9,249.688a8,8,0,0,0-9.28-.384L16,351.056V112A24,24,0,0,1,40,88H440a24,24,0,0,1,24,24Z" fill="#f97f7f"/>
          <path id="Caminho_40" data-name="Caminho 40" d="M240,120a48,48,0,1,0,48,48A48,48,0,0,0,240,120Zm0,80a32,32,0,1,1,32-32A32,32,0,0,1,240,200Z" fill="#f97f7f"/>
        </g>
      </g>
    </g>
    <g id="picture-2" data-name="picture" transform="translate(256 513.715)">
      <g id="Grupo_17-2" data-name="Grupo 17" transform="translate(3 898)">
        <g id="Grupo_16-2" data-name="Grupo 16">
          <path id="Caminho_39-2" data-name="Caminho 39" d="M440,72H40C17.92,72.027.026,90.309,0,112.867v261.55c.026,22.559,17.92,40.841,40,40.867H440a36.265,36.265,0,0,0,6.7-.6c19.249-3.292,33.341-20.33,33.3-40.271V112.867C479.974,90.308,462.08,72.027,440,72ZM40,398.938a24.208,24.208,0,0,1-23.9-22.363L175.6,270.026,337.808,398.938Zm424-24.52a24.315,24.315,0,0,1-20.08,24.169,21.3,21.3,0,0,1-3.92.351H363.864L257.872,314.661l94.784-77.435L464,305.483Zm0-88L356.12,220.291a7.863,7.863,0,0,0-9.12.621L244.864,304.363,180.9,253.54a7.863,7.863,0,0,0-9.28-.392L16,357.106V112.867c0-13.542,10.745-24.52,24-24.52H440c13.255,0,24,10.978,24,24.52Z" transform="translate(0 -72)" fill="#f97f7f"/>
          <path id="Caminho_40-2" data-name="Caminho 40" d="M240,120a48,48,0,1,0,48,48A48,48,0,0,0,240,120Zm0,80a32,32,0,1,1,32-32A32,32,0,0,1,240,200Z" transform="translate(0 -72)" fill="#f97f7f"/>
        </g>
      </g>
    </g>
    <g id="picture-3" data-name="picture" transform="translate(259 2032)">
      <g id="Grupo_17-3" data-name="Grupo 17">
        <g id="Grupo_16-3" data-name="Grupo 16">
          <path id="Caminho_39-3" data-name="Caminho 39" d="M440,72H40A40.048,40.048,0,0,0,0,112V368a40.048,40.048,0,0,0,40,40H440a37.031,37.031,0,0,0,6.7-.584A39.889,39.889,0,0,0,480,368V112A40.047,40.047,0,0,0,440,72ZM40,392a24,24,0,0,1-23.9-21.888L175.6,265.824,337.808,392Zm424-24a23.944,23.944,0,0,1-20.08,23.656A21.746,21.746,0,0,1,440,392H363.864L257.872,309.512l94.784-75.792L464,300.528Zm0-86.128L356.12,217.144a8,8,0,0,0-9.12.608l-102.136,81.68L180.9,249.688a8,8,0,0,0-9.28-.384L16,351.056V112A24,24,0,0,1,40,88H440a24,24,0,0,1,24,24Z" fill="#f97f7f"/>
          <path id="Caminho_40-3" data-name="Caminho 40" d="M240,120a48,48,0,1,0,48,48A48,48,0,0,0,240,120Zm0,80a32,32,0,1,1,32-32A32,32,0,0,1,240,200Z" fill="#f97f7f"/>
        </g>
      </g>
    </g>
    <g id="picture-4" data-name="picture" transform="translate(259 2848)">
      <g id="Grupo_17-4" data-name="Grupo 17">
        <g id="Grupo_16-4" data-name="Grupo 16">
          <path id="Caminho_39-4" data-name="Caminho 39" d="M440,72H40A40.048,40.048,0,0,0,0,112V368a40.048,40.048,0,0,0,40,40H440a37.031,37.031,0,0,0,6.7-.584A39.889,39.889,0,0,0,480,368V112A40.047,40.047,0,0,0,440,72ZM40,392a24,24,0,0,1-23.9-21.888L175.6,265.824,337.808,392Zm424-24a23.944,23.944,0,0,1-20.08,23.656A21.746,21.746,0,0,1,440,392H363.864L257.872,309.512l94.784-75.792L464,300.528Zm0-86.128L356.12,217.144a8,8,0,0,0-9.12.608l-102.136,81.68L180.9,249.688a8,8,0,0,0-9.28-.384L16,351.056V112A24,24,0,0,1,40,88H440a24,24,0,0,1,24,24Z" fill="#f97f7f"/>
          <path id="Caminho_40-4" data-name="Caminho 40" d="M240,120a48,48,0,1,0,48,48A48,48,0,0,0,240,120Zm0,80a32,32,0,1,1,32-32A32,32,0,0,1,240,200Z" fill="#f97f7f"/>
        </g>
      </g>
    </g>
  </g>
</svg>
