<svg xmlns="http://www.w3.org/2000/svg" xmlns:xlink="http://www.w3.org/1999/xlink" width="1080" height="3510" viewBox="0 0 1080 3510">
  <defs>
    <clipPath id="clip-How_To_Use">
      <rect width="1080" height="3510"/>
    </clipPath>
  </defs>
  <g id="How_To_Use" data-name="How To Use" clip-path="url(#clip-How_To_Use)">
    <rect width="1080" height="3510" fill="#7a7a7a"/>
    <rect id="Retângulo_7" data-name="Retângulo 7" width="1080" height="180" fill="#232222"/>
    <text id="How_To_Use-2" data-name="How To Use" transform="translate(542 122)" fill="#fff" font-size="74" font-family="SegoeUI, Segoe UI"><tspan x="-192.877" y="0">How To Use</tspan></text>
    <path id="Caminho_1" data-name="Caminho 1" d="M16,15a6,6,0,1,0-6-6A6,6,0,0,0,16,15Zm0,30a6,6,0,1,0,6,6A6,6,0,0,0,16,45Zm0-21a6,6,0,1,0,6,6A6,6,0,0,0,16,24Z" transform="translate(989 60)" fill="#fff"/>
    <path id="Caminho_12" data-name="Caminho 12" d="M76,19H20l6.4-4.8a4,4,0,0,0-4.8-6.4l-16,12a4,4,0,0,0,0,6.4l16,12a4,4,0,0,0,4.8-6.4L20,27H76a16,16,0,1,1,0,32H8a4,4,0,1,0,0,8H76a24,24,0,0,0,0-48Z" transform="translate(51 53)" fill="#fff"/>
    <text id="Lorem_ipsum_dolor_sit_amet_consetetur_sadipscing_elitr_sed_diam_nonumy_eirmod_tempor_invidunt_ut_labore_et_dolore_magna_aliquyam_erat_sed_diam_voluptua._At_vero_eos_et_accusam_et_justo_duo_dolores_et_ea_rebum._Stet_clita_kasd_gubergren_no_sea_takimata_" data-name="Lorem ipsum dolor sit amet, consetetur sadipscing elitr, sed diam nonumy eirmod tempor invidunt ut labore et dolore magna aliquyam erat, sed diam voluptua. At vero eos et accusam et justo duo dolores et ea rebum. Stet clita kasd gubergren, no sea takimata " transform="translate(103 253)" fill="#fff" font-size="60" font-family="ArialMT, Arial"><tspan x="0" y="54">Lorem ipsum dolor sit amet, </tspan><tspan x="0" y="123">consetetur sadipscing elitr, sed </tspan><tspan x="0" y="192">diam nonumy eirmod tempor </tspan><tspan x="0" y="261">invidunt ut labore et dolore </tspan><tspan x="0" y="330">magna aliquyam erat, sed diam </tspan><tspan x="0" y="399">voluptua. At vero eos et accusam </tspan><tspan x="0" y="468">et justo duo dolores et ea rebum. </tspan><tspan x="0" y="537">Stet clita kasd gubergren, no sea </tspan></text>
    <text id="Lorem_ipsum_dolor_sit_amet_consetetur_sadipscing_elitr_sed_diam_nonumy_eirmod_tempor_invidunt_ut_labore_et_dolore_magna_aliquyam_erat_sed_diam_voluptua._At_vero_eos_et_accusam_et_justo_duo_dolores_et_ea_rebum._Stet_clita_kasd_gubergren_no_sea_takimata_2" data-name="Lorem ipsum dolor sit amet, consetetur sadipscing elitr, sed diam nonumy eirmod tempor invidunt ut labore et dolore magna aliquyam erat, sed diam voluptua. At vero eos et accusam et justo duo dolores et ea rebum. Stet clita kasd gubergren, no sea takimata " transform="translate(92 1581)" fill="#fff" font-size="60" font-family="ArialMT, Arial"><tspan x="0" y="54">Lorem ipsum dolor sit amet, </tspan><tspan x="0" y="123">consetetur sadipscing elitr, sed </tspan><tspan x="0" y="192">diam nonumy eirmod tempor </tspan><tspan x="0" y="261">invidunt ut labore et dolore </tspan><tspan x="0" y="330">magna aliquyam erat, sed diam </tspan><tspan x="0" y="399">voluptua. At vero eos et accusam </tspan><tspan x="0" y="468">et justo duo dolores et ea rebum. </tspan><tspan x="0" y="537">Stet clita kasd gubergren, no sea </tspan></text>
    <text id="Lorem_ipsum_dolor_sit_amet_consetetur_sadipscing_elitr_sed_diam_nonumy_eirmod_tempor_invidunt_ut_labore_et_dolore_magna_aliquyam_erat_sed_diam_voluptua._At_vero_eos_et_accusam_et_justo_duo_dolores_et_ea_rebum._Stet_clita_kasd_gubergren_no_sea_takimata_3" data-name="Lorem ipsum dolor sit amet, consetetur sadipscing elitr, sed diam nonumy eirmod tempor invidunt ut labore et dolore magna aliquyam erat, sed diam voluptua. At vero eos et accusam et justo duo dolores et ea rebum. Stet clita kasd gubergren, no sea takimata " transform="translate(92 2882)" fill="#fff" font-size="60" font-family="ArialMT, Arial"><tspan x="0" y="54">Lorem ipsum dolor sit amet, </tspan><tspan x="0" y="123">consetetur sadipscing elitr, sed </tspan><tspan x="0" y="192">diam nonumy eirmod tempor </tspan><tspan x="0" y="261">invidunt ut labore et dolore </tspan><tspan x="0" y="330">magna aliquyam erat, sed diam </tspan><tspan x="0" y="399">voluptua. At vero eos et accusam </tspan><tspan x="0" y="468">et justo duo dolores et ea rebum. </tspan><tspan x="0" y="537">Stet clita kasd gubergren, no sea </tspan></text>
    <text id="Lorem_ipsum_dolor_sit_amet_consetetur_sadipscing_elitr_sed_diam_nonumy_eirmod_tempor_invidunt_ut_labore_et_dolore_magna_aliquyam_erat_sed_diam_voluptua._At_vero_eos_et_accusam_et_justo_duo_dolores_et_ea_rebum._Stet_clita_kasd_gubergren_no_sea_takimata_4" data-name="Lorem ipsum dolor sit amet, consetetur sadipscing elitr, sed diam nonumy eirmod tempor invidunt ut labore et dolore magna aliquyam erat, sed diam voluptua. At vero eos et accusam et justo duo dolores et ea rebum. Stet clita kasd gubergren, no sea takimata " transform="translate(92 1581)" fill="#fff" font-size="60" font-family="ArialMT, Arial"><tspan x="0" y="54">Lorem ipsum dolor sit amet, </tspan><tspan x="0" y="123">consetetur sadipscing elitr, sed </tspan><tspan x="0" y="192">diam nonumy eirmod tempor </tspan><tspan x="0" y="261">invidunt ut labore et dolore </tspan><tspan x="0" y="330">magna aliquyam erat, sed diam </tspan><tspan x="0" y="399">voluptua. At vero eos et accusam </tspan><tspan x="0" y="468">et justo duo dolores et ea rebum. </tspan><tspan x="0" y="537">Stet clita kasd gubergren, no sea </tspan></text>
    <g id="picture" transform="translate(148 789)">
      <g id="Grupo_17" data-name="Grupo 17" transform="translate(0 72)">
        <g id="Grupo_16" data-name="Grupo 16">
          <path id="Caminho_39" data-name="Caminho 39" d="M718.72,72H65.338A65.417,65.417,0,0,0,0,137.338V555.5a65.417,65.417,0,0,0,65.338,65.338H718.72a60.486,60.486,0,0,0,10.938-.954,65.156,65.156,0,0,0,54.4-64.384V137.338A65.416,65.416,0,0,0,718.72,72ZM65.338,594.706a39.2,39.2,0,0,1-39.046-35.753L286.835,388.6l264.96,206.1Zm692.585-39.2a39.112,39.112,0,0,1-32.8,38.641,35.52,35.52,0,0,1-6.4.562H594.356L421.222,459.965l154.825-123.8L757.923,445.29Zm0-140.686L581.706,309.086a13.068,13.068,0,0,0-14.9.993L399.974,443.5,295.5,362.245a13.068,13.068,0,0,0-15.158-.627L26.135,527.825V137.338a39.2,39.2,0,0,1,39.2-39.2H718.72a39.2,39.2,0,0,1,39.2,39.2Z" transform="translate(0 -72)" fill="#f97f7f"/>
          <path id="Caminho_40" data-name="Caminho 40" d="M270.406,120a78.406,78.406,0,1,0,78.406,78.406A78.405,78.405,0,0,0,270.406,120Zm0,130.676a52.271,52.271,0,1,1,52.271-52.271A52.271,52.271,0,0,1,270.406,250.676Z" transform="translate(121.623 -41.594)" fill="#f97f7f"/>
        </g>
      </g>
    </g>
    <g id="picture-2" data-name="picture" transform="translate(148 2117)">
      <g id="Grupo_17-2" data-name="Grupo 17" transform="translate(0 72)">
        <g id="Grupo_16-2" data-name="Grupo 16">
          <path id="Caminho_39-2" data-name="Caminho 39" d="M718.72,72H65.338A65.417,65.417,0,0,0,0,137.338V555.5a65.417,65.417,0,0,0,65.338,65.338H718.72a60.486,60.486,0,0,0,10.938-.954,65.156,65.156,0,0,0,54.4-64.384V137.338A65.416,65.416,0,0,0,718.72,72ZM65.338,594.706a39.2,39.2,0,0,1-39.046-35.753L286.835,388.6l264.96,206.1Zm692.585-39.2a39.112,39.112,0,0,1-32.8,38.641,35.52,35.52,0,0,1-6.4.562H594.356L421.222,459.965l154.825-123.8L757.923,445.29Zm0-140.686L581.706,309.086a13.068,13.068,0,0,0-14.9.993L399.974,443.5,295.5,362.245a13.068,13.068,0,0,0-15.158-.627L26.135,527.825V137.338a39.2,39.2,0,0,1,39.2-39.2H718.72a39.2,39.2,0,0,1,39.2,39.2Z" transform="translate(0 -72)" fill="#f97f7f"/>
          <path id="Caminho_40-2" data-name="Caminho 40" d="M270.406,120a78.406,78.406,0,1,0,78.406,78.406A78.405,78.405,0,0,0,270.406,120Zm0,130.676a52.271,52.271,0,1,1,52.271-52.271A52.271,52.271,0,0,1,270.406,250.676Z" transform="translate(121.623 -41.594)" fill="#f97f7f"/>
        </g>
      </g>
    </g>
  </g>
</svg>
