<svg xmlns="http://www.w3.org/2000/svg" xmlns:xlink="http://www.w3.org/1999/xlink" width="1080" height="2340" viewBox="0 0 1080 2340">
  <defs>
    <linearGradient id="linear-gradient" x1="0.163" y1="0.736" x2="0.838" y2="0.263" gradientUnits="objectBoundingBox">
      <stop offset="0" stop-color="#3ddeed"/>
      <stop offset="0.05" stop-color="#3dd9ed"/>
      <stop offset="0.11" stop-color="#3dcaed"/>
      <stop offset="0.17" stop-color="#3db2ed"/>
      <stop offset="0.29" stop-color="#12c2ed"/>
      <stop offset="0.36" stop-color="#00c9ed"/>
      <stop offset="0.38" stop-color="#0ac7ed"/>
      <stop offset="0.46" stop-color="#26c2ed"/>
      <stop offset="0.53" stop-color="#37bfed"/>
      <stop offset="0.58" stop-color="#3dbeed"/>
      <stop offset="0.67" stop-color="#4ed2f6"/>
      <stop offset="0.77" stop-color="#5adffd"/>
      <stop offset="0.85" stop-color="#5ee4ff"/>
      <stop offset="0.85" stop-color="#5de4ff"/>
      <stop offset="0.87" stop-color="#40e6ff"/>
      <stop offset="0.88" stop-color="#29e7ff"/>
      <stop offset="0.9" stop-color="#16e8ff"/>
      <stop offset="0.92" stop-color="#0ae8ff"/>
      <stop offset="0.94" stop-color="#02e9ff"/>
      <stop offset="1" stop-color="#00e9ff"/>
    </linearGradient>
    <linearGradient id="linear-gradient-2" x1="0.163" y1="0.736" x2="0.838" y2="0.264" xlink:href="#linear-gradient"/>
    <linearGradient id="linear-gradient-3" x1="0.162" y1="0.736" x2="0.838" y2="0.264" xlink:href="#linear-gradient"/>
    <linearGradient id="linear-gradient-4" x1="0.162" y1="0.738" x2="0.839" y2="0.264" xlink:href="#linear-gradient"/>
    <linearGradient id="linear-gradient-5" x1="0.162" y1="0.737" x2="0.837" y2="0.264" xlink:href="#linear-gradient"/>
    <linearGradient id="linear-gradient-6" x1="0.163" y1="0.736" x2="0.838" y2="0.264" xlink:href="#linear-gradient"/>
    <linearGradient id="linear-gradient-7" x1="0.084" y1="0.796" x2="0.916" y2="0.203" xlink:href="#linear-gradient"/>
    <linearGradient id="linear-gradient-8" x1="0.06" y1="0.828" x2="0.931" y2="0.178" xlink:href="#linear-gradient"/>
    <linearGradient id="linear-gradient-9" x1="0.06" y1="0.844" x2="0.911" y2="0.276" xlink:href="#linear-gradient"/>
    <linearGradient id="linear-gradient-10" x1="0.044" y1="0.846" x2="0.954" y2="0.159" xlink:href="#linear-gradient"/>
    <linearGradient id="linear-gradient-11" x1="0.034" y1="0.859" x2="0.966" y2="0.141" xlink:href="#linear-gradient"/>
    <linearGradient id="linear-gradient-12" x1="0.037" y1="0.853" x2="0.961" y2="0.145" xlink:href="#linear-gradient"/>
    <linearGradient id="linear-gradient-13" x1="0.044" y1="0.84" x2="0.948" y2="0.167" xlink:href="#linear-gradient"/>
    <linearGradient id="linear-gradient-14" x1="0.008" y1="0.885" x2="0.992" y2="0.115" xlink:href="#linear-gradient"/>
    <linearGradient id="linear-gradient-15" x1="0.06" y1="0.82" x2="0.945" y2="0.176" xlink:href="#linear-gradient"/>
    <linearGradient id="linear-gradient-16" x1="0.012" y1="0.903" x2="0.984" y2="0.101" xlink:href="#linear-gradient"/>
    <linearGradient id="linear-gradient-17" x1="0.01" y1="0.902" x2="0.988" y2="0.1" xlink:href="#linear-gradient"/>
    <linearGradient id="linear-gradient-18" x1="0.088" y1="0.786" x2="0.907" y2="0.213" xlink:href="#linear-gradient"/>
    <linearGradient id="linear-gradient-19" x1="0.09" y1="0.787" x2="0.909" y2="0.213" xlink:href="#linear-gradient"/>
    <linearGradient id="linear-gradient-20" x1="0.091" y1="0.787" x2="0.909" y2="0.213" xlink:href="#linear-gradient"/>
    <linearGradient id="linear-gradient-21" x1="0.089" y1="0.787" x2="0.908" y2="0.214" xlink:href="#linear-gradient"/>
    <linearGradient id="linear-gradient-22" x1="0.091" y1="0.784" x2="0.909" y2="0.211" xlink:href="#linear-gradient"/>
    <linearGradient id="linear-gradient-23" x1="0.11" y1="0.735" x2="0.87" y2="0.278" xlink:href="#linear-gradient"/>
    <linearGradient id="linear-gradient-24" x1="0.091" y1="0.787" x2="0.91" y2="0.213" xlink:href="#linear-gradient"/>
    <linearGradient id="linear-gradient-25" x1="0.162" y1="0.737" x2="0.838" y2="0.263" xlink:href="#linear-gradient"/>
    <linearGradient id="linear-gradient-26" x1="0.162" y1="0.736" x2="0.838" y2="0.264" xlink:href="#linear-gradient"/>
    <linearGradient id="linear-gradient-27" x1="0.162" y1="0.736" x2="0.838" y2="0.264" xlink:href="#linear-gradient"/>
    <linearGradient id="linear-gradient-28" x1="0.162" y1="0.736" x2="0.838" y2="0.264" xlink:href="#linear-gradient"/>
    <linearGradient id="linear-gradient-29" x1="0.163" y1="0.736" x2="0.838" y2="0.264" xlink:href="#linear-gradient"/>
    <linearGradient id="linear-gradient-30" x1="0.163" y1="0.739" x2="0.84" y2="0.265" xlink:href="#linear-gradient"/>
    <linearGradient id="linear-gradient-31" x1="0.164" y1="0.736" x2="0.838" y2="0.264" xlink:href="#linear-gradient"/>
    <linearGradient id="linear-gradient-32" x1="0.161" y1="0.737" x2="0.836" y2="0.264" xlink:href="#linear-gradient"/>
    <linearGradient id="linear-gradient-33" x1="0.162" y1="0.736" x2="0.838" y2="0.264" xlink:href="#linear-gradient"/>
    <linearGradient id="linear-gradient-34" x1="0.162" y1="0.737" x2="0.838" y2="0.264" xlink:href="#linear-gradient"/>
    <linearGradient id="linear-gradient-35" x1="0.161" y1="0.737" x2="0.837" y2="0.263" xlink:href="#linear-gradient"/>
    <linearGradient id="linear-gradient-36" x1="0.16" y1="0.737" x2="0.837" y2="0.263" xlink:href="#linear-gradient"/>
    <linearGradient id="linear-gradient-37" x1="0.164" y1="0.738" x2="0.839" y2="0.265" xlink:href="#linear-gradient"/>
    <linearGradient id="linear-gradient-38" x1="0.163" y1="0.736" x2="0.838" y2="0.264" xlink:href="#linear-gradient"/>
    <linearGradient id="linear-gradient-39" x1="0.162" y1="0.736" x2="0.838" y2="0.264" xlink:href="#linear-gradient"/>
    <linearGradient id="linear-gradient-40" x1="0.162" y1="0.736" x2="0.838" y2="0.264" xlink:href="#linear-gradient"/>
    <linearGradient id="linear-gradient-41" x1="0.164" y1="0.736" x2="0.839" y2="0.264" xlink:href="#linear-gradient"/>
    <linearGradient id="linear-gradient-42" x1="0.162" y1="0.737" x2="0.838" y2="0.263" xlink:href="#linear-gradient"/>
    <linearGradient id="linear-gradient-43" x1="0.159" y1="0.737" x2="0.836" y2="0.263" xlink:href="#linear-gradient"/>
    <linearGradient id="linear-gradient-44" x1="0.164" y1="0.736" x2="0.837" y2="0.264" xlink:href="#linear-gradient"/>
    <linearGradient id="linear-gradient-45" x1="0.164" y1="0.736" x2="0.838" y2="0.264" xlink:href="#linear-gradient"/>
    <linearGradient id="linear-gradient-46" x1="0.209" y1="1.02" x2="0.792" y2="-0.194" gradientUnits="objectBoundingBox">
      <stop offset="0" stop-color="#ff7300"/>
      <stop offset="0.18" stop-color="#f97c01"/>
      <stop offset="0.47" stop-color="#ea9602"/>
      <stop offset="0.55" stop-color="#e59e03"/>
      <stop offset="0.87" stop-color="#e5c500"/>
      <stop offset="0.99" stop-color="#bf6f00"/>
    </linearGradient>
    <linearGradient id="linear-gradient-47" x1="0.22" y1="0.923" x2="0.784" y2="-0.166" xlink:href="#linear-gradient-46"/>
    <linearGradient id="linear-gradient-48" x1="0.093" y1="0.63" x2="0.827" y2="0.41" xlink:href="#linear-gradient-46"/>
    <linearGradient id="linear-gradient-49" x1="-0.008" y1="0.637" x2="0.761" y2="0.418" xlink:href="#linear-gradient-46"/>
    <linearGradient id="linear-gradient-50" x1="0.149" y1="0.631" x2="0.748" y2="0.408" xlink:href="#linear-gradient-46"/>
    <linearGradient id="linear-gradient-51" x1="0.245" y1="0.864" x2="0.769" y2="-0.002" xlink:href="#linear-gradient-46"/>
    <linearGradient id="linear-gradient-52" x1="0.287" y1="0.737" x2="0.73" y2="0.205" xlink:href="#linear-gradient-46"/>
    <linearGradient id="linear-gradient-53" x1="0.268" y1="0.8" x2="0.714" y2="0.262" xlink:href="#linear-gradient-46"/>
    <linearGradient id="linear-gradient-54" x1="0.257" y1="0.799" x2="0.743" y2="0.202" xlink:href="#linear-gradient-46"/>
    <linearGradient id="linear-gradient-55" x1="0.093" y1="0.63" x2="0.827" y2="0.41" xlink:href="#linear-gradient-46"/>
    <linearGradient id="linear-gradient-56" x1="0.287" y1="0.737" x2="0.73" y2="0.205" xlink:href="#linear-gradient-46"/>
    <linearGradient id="linear-gradient-57" x1="0.067" y1="1.093" x2="0.988" y2="-0.013" xlink:href="#linear-gradient-46"/>
    <linearGradient id="linear-gradient-58" x1="0.08" y1="1.177" x2="0.998" y2="0.07" xlink:href="#linear-gradient-46"/>
    <linearGradient id="linear-gradient-59" x1="-0.247" y1="0.784" x2="1.189" y2="0.198" xlink:href="#linear-gradient-46"/>
    <linearGradient id="linear-gradient-60" x1="-0.165" y1="0.815" x2="1.107" y2="0.163" xlink:href="#linear-gradient-46"/>
    <linearGradient id="linear-gradient-61" x1="-1.143" y1="0.672" x2="2.223" y2="0.316" xlink:href="#linear-gradient-46"/>
    <linearGradient id="linear-gradient-62" x1="-2.459" y1="0.669" x2="3.539" y2="0.325" xlink:href="#linear-gradient-46"/>
    <linearGradient id="linear-gradient-63" x1="-10.13" y1="0.67" x2="11.13" y2="0.33" xlink:href="#linear-gradient-46"/>
    <linearGradient id="linear-gradient-64" x1="-10.128" y1="0.67" x2="11.13" y2="0.33" xlink:href="#linear-gradient-46"/>
    <linearGradient id="linear-gradient-65" x1="-0.449" y1="0.679" x2="1.525" y2="0.3" xlink:href="#linear-gradient-46"/>
    <linearGradient id="linear-gradient-66" x1="-0.158" y1="0.828" x2="1.099" y2="0.16" xlink:href="#linear-gradient-46"/>
    <linearGradient id="linear-gradient-67" x1="-0.221" y1="0.796" x2="1.126" y2="0.187" xlink:href="#linear-gradient-46"/>
    <linearGradient id="linear-gradient-68" x1="-0.069" y1="0.839" x2="0.986" y2="0.101" xlink:href="#linear-gradient-46"/>
    <linearGradient id="linear-gradient-69" x1="0.015" y1="0.899" x2="1.069" y2="0.161" xlink:href="#linear-gradient-46"/>
    <linearGradient id="linear-gradient-70" x1="0.187" y1="0.779" x2="0.862" y2="0.207" xlink:href="#linear-gradient-46"/>
    <linearGradient id="linear-gradient-72" x1="0.101" y1="1.028" x2="1.07" y2="0.049" xlink:href="#linear-gradient-46"/>
    <clipPath id="clip-Main">
      <rect width="1080" height="2340"/>
    </clipPath>
  </defs>
  <g id="Main" clip-path="url(#clip-Main)">
    <rect width="1080" height="2340" fill="#7a7a7a"/>
    <g id="Retângulo_1" data-name="Retângulo 1" transform="translate(256 1453)" fill="#fff" stroke="#707070" stroke-width="1">
      <rect width="570" height="132" rx="19" stroke="none"/>
      <rect x="0.5" y="0.5" width="569" height="131" rx="18.5" fill="none"/>
    </g>
    <text id="Load_Profile" data-name="Load Profile" transform="translate(361 1548)" fill="#707070" font-size="69" font-family="SegoeUI, Segoe UI"><tspan x="0" y="0">Load Profile</tspan></text>
    <g id="Retângulo_2" data-name="Retângulo 2" transform="translate(256 1453)" fill="#fff" stroke="#707070" stroke-width="1">
      <rect width="570" height="132" rx="19" stroke="none"/>
      <rect x="0.5" y="0.5" width="569" height="131" rx="18.5" fill="none"/>
    </g>
    <text id="Load_Profile-2" data-name="Load Profile" transform="translate(361 1548)" fill="#707070" font-size="69" font-family="SegoeUI, Segoe UI"><tspan x="0" y="0">Load Profile</tspan></text>
    <g id="Retângulo_3" data-name="Retângulo 3" transform="translate(256 1453)" fill="#fff" stroke="#707070" stroke-width="1">
      <rect width="570" height="132" rx="19" stroke="none"/>
      <rect x="0.5" y="0.5" width="569" height="131" rx="18.5" fill="none"/>
    </g>
    <text id="Load_Profile-3" data-name="Load Profile" transform="translate(361 1548)" fill="#707070" font-size="69" font-family="SegoeUI, Segoe UI"><tspan x="0" y="0">Load Profile</tspan></text>
    <g id="Retângulo_4" data-name="Retângulo 4" transform="translate(256 1453)" fill="#fff" stroke="#707070" stroke-width="1">
      <rect width="570" height="132" rx="19" stroke="none"/>
      <rect x="0.5" y="0.5" width="569" height="131" rx="18.5" fill="none"/>
    </g>
    <text id="Load_Profile-4" data-name="Load Profile" transform="translate(361 1548)" fill="#707070" font-size="69" font-family="SegoeUI, Segoe UI"><tspan x="0" y="0">Load Profile</tspan></text>
    <g id="Retângulo_5" data-name="Retângulo 5" transform="translate(256 1453)" fill="#d0e6e9" stroke="#707070" stroke-width="1">
      <rect width="570" height="132" rx="19" stroke="none"/>
      <rect x="0.5" y="0.5" width="569" height="131" rx="18.5" fill="none"/>
    </g>
    <text id="Load_Profile-5" data-name="Load Profile" transform="translate(364 1548)" font-size="69" font-family="SegoeUI, Segoe UI"><tspan x="0" y="0">Load Profile</tspan></text>
    <g id="Retângulo_6" data-name="Retângulo 6" transform="translate(256 1658)" fill="#bcccdb" stroke="#707070" stroke-width="1">
      <rect width="570" height="132" rx="19" stroke="none"/>
      <rect x="0.5" y="0.5" width="569" height="131" rx="18.5" fill="none"/>
    </g>
    <text id="New_Profile" data-name="New Profile" transform="translate(361 1753)" font-size="69" font-family="SegoeUI, Segoe UI"><tspan x="0" y="0">New Profile</tspan></text>
    <rect id="Retângulo_7" data-name="Retângulo 7" width="1080" height="180" fill="#232222"/>
    <g id="Grupo_1" data-name="Grupo 1" transform="translate(60 60)">
      <line id="Linha_1" data-name="Linha 1" x2="90" fill="none" stroke="#fff" stroke-width="5"/>
      <line id="Linha_2" data-name="Linha 2" x2="90" transform="translate(0 30)" fill="none" stroke="#fff" stroke-width="5"/>
      <line id="Linha_3" data-name="Linha 3" x2="90" transform="translate(0 60)" fill="none" stroke="#fff" stroke-width="5"/>
    </g>
    <text id="Star_Tracker" data-name="Star Tracker" transform="translate(542 122)" fill="#fff" font-size="74" font-family="SegoeUI, Segoe UI"><tspan x="-188.378" y="0">Star Tracker</tspan></text>
    <path id="Caminho_1" data-name="Caminho 1" d="M16,15a6,6,0,1,0-6-6A6,6,0,0,0,16,15Zm0,30a6,6,0,1,0,6,6A6,6,0,0,0,16,45Zm0-21a6,6,0,1,0,6,6A6,6,0,0,0,16,24Z" transform="translate(989 60)" fill="#fff"/>
    <g id="Prancheta_1" data-name="Prancheta 1" transform="translate(18.43 387.65)">
      <g id="Camada_1" data-name="Camada 1" transform="translate(59.57 49.35)">
        <g id="Grupo_22" data-name="Grupo 22" transform="translate(40.209 25.319)">
          <path id="Caminho_50" data-name="Caminho 50" d="M330.569,209.242l8.981,24.394a2.317,2.317,0,0,0,4.36,0l8.981-24.325A71.714,71.714,0,0,1,395.4,166.8l24.325-8.968a2.331,2.331,0,0,0,0-4.374l-24.353-8.954A71.7,71.7,0,0,1,352.865,102l-8.981-24.325a2.317,2.317,0,0,0-4.36,0L330.569,102a71.769,71.769,0,0,1-42.507,42.507l-24.339,8.968a2.331,2.331,0,0,0,0,4.374l24.339,8.968a71.755,71.755,0,0,1,42.507,42.425Z" transform="translate(-24.562 -64.723)" fill="url(#linear-gradient)"/>
          <path id="Caminho_51" data-name="Caminho 51" d="M668.541,272.277l-24.325-8.968A71.755,71.755,0,0,1,601.709,220.8l-8.968-24.339a2.331,2.331,0,0,0-4.374,0L579.4,220.8a71.769,71.769,0,0,1-42.507,42.507l-24.339,8.968a2.331,2.331,0,0,0,0,4.374l24.339,8.968A71.755,71.755,0,0,1,579.4,328.126l8.968,24.325a2.331,2.331,0,0,0,4.374,0l8.968-24.325a71.742,71.742,0,0,1,42.507-42.507l24.325-8.968a2.331,2.331,0,0,0,0-4.374Z" transform="translate(67.805 -20.625)" fill="url(#linear-gradient-2)"/>
          <path id="Caminho_52" data-name="Caminho 52" d="M731.572,326.413l-16.537-6.1a48.733,48.733,0,0,1-28.8-28.864l-6.1-16.537a1.577,1.577,0,0,0-2.962,0l-6.1,16.537A48.76,48.76,0,0,1,642.2,320.311l-16.537,6.1a1.577,1.577,0,0,0,0,2.962l16.537,6.1a48.774,48.774,0,0,1,28.878,28.878l6.1,16.537a1.577,1.577,0,0,0,2.962,0l6.1-16.537a48.761,48.761,0,0,1,28.8-28.878l16.537-6.1a1.577,1.577,0,0,0,0-2.962Z" transform="translate(109.973 8.676)" fill="url(#linear-gradient-3)"/>
          <path id="Caminho_53" data-name="Caminho 53" d="M551.06,316.83l-9.461-3.5a27.9,27.9,0,0,1-16.455-16.454l-3.565-9.516a.891.891,0,0,0-1.687,0l-3.5,9.461a27.9,27.9,0,0,1-16.454,16.454l-9.461,3.5a.891.891,0,0,0-.59.85.919.919,0,0,0,.59.85l9.461,3.483A27.89,27.89,0,0,1,516.4,338.413l3.5,9.448a.891.891,0,0,0,1.686,0l3.5-9.448a27.891,27.891,0,0,1,16.455-16.454l9.461-3.483a.919.919,0,0,0,.59-.85.891.891,0,0,0-.521-.8Z" transform="translate(59.958 13.46)" fill="url(#linear-gradient-4)"/>
          <path id="Caminho_54" data-name="Caminho 54" d="M631.208,104.474l-11.532-4.264a33.979,33.979,0,0,1-20.143-20.129l-4.251-11.532a1.1,1.1,0,0,0-2.071,0l-4.251,11.532a34.02,34.02,0,0,1-20.143,20.129l-11.532,4.264a1.083,1.083,0,0,0-.727,1.028,1.111,1.111,0,0,0,.727,1.042l11.532,4.251a34.006,34.006,0,0,1,20.143,20.143l4.251,11.532a1.111,1.111,0,0,0,2.07,0l4.251-11.532A34.006,34.006,0,0,1,619.677,110.8l11.532-4.251a1.111,1.111,0,0,0,.727-1.042,1.083,1.083,0,0,0-.727-1.028Z" transform="translate(84.707 -67.815)" fill="url(#linear-gradient-5)"/>
          <path id="Caminho_55" data-name="Caminho 55" d="M654.575,373.907l-14.507-5.348a42.782,42.782,0,0,1-25.34-25.326l-5.348-14.507a1.44,1.44,0,0,0-2.674,0l-5.348,14.507a42.8,42.8,0,0,1-25.326,25.326l-14.507,5.348a1.39,1.39,0,0,0,0,2.605l14.507,5.361A42.768,42.768,0,0,1,601.359,407.2l5.348,14.507a1.44,1.44,0,0,0,2.674,0l5.348-14.507a42.754,42.754,0,0,1,25.34-25.326l14.507-5.361a1.39,1.39,0,0,0,0-2.605Z" transform="translate(86.214 28.701)" fill="url(#linear-gradient-6)"/>
          <path id="Caminho_56" data-name="Caminho 56" d="M515.307,206.811a8.227,8.227,0,0,0,4.923-1.645l1.152-.864a8.229,8.229,0,0,0-9.859-13.177h0l-1.152.864a8.227,8.227,0,0,0,4.936,14.809Z" transform="translate(66.339 -22.65)" fill="url(#linear-gradient-7)"/>
          <path id="Caminho_57" data-name="Caminho 57" d="M495.616,161.475a8.227,8.227,0,0,0,5.074-1.755l6.17-4.84a8.227,8.227,0,1,0-10.147-12.944h0l-6.17,4.84a8.227,8.227,0,0,0,5.073,14.7Z" transform="translate(59.032 -41.008)" fill="url(#linear-gradient-8)"/>
          <path id="Caminho_58" data-name="Caminho 58" d="M425.8,317.537a72.01,72.01,0,0,0,10.311.74,70.494,70.494,0,0,0,42.411-14.165l78.419-58.633a8.229,8.229,0,0,0-9.695-13.3l-.164.123-78.406,58.633A54.645,54.645,0,1,1,403.24,203.4l100.688-75.279a8.227,8.227,0,1,0-9.777-13.233h-.082L393.395,190.166a71.07,71.07,0,0,0,32.4,127.275Z" transform="translate(13.547 -50.939)" fill="url(#linear-gradient-9)"/>
          <path id="Caminho_59" data-name="Caminho 59" d="M502.231,126.794a8.228,8.228,0,0,0,5.184-1.838l10.64-8.638a8.232,8.232,0,1,0-10.38-12.78l-10.641,8.639a8.227,8.227,0,0,0,5.2,14.617Z" transform="translate(61.48 -55.237)" fill="url(#linear-gradient-10)"/>
          <path id="Caminho_60" data-name="Caminho 60" d="M477.411,148.031a8.228,8.228,0,0,0,5.184-1.838l15.439-12.546a8.228,8.228,0,0,0-10.366-12.78l-15.453,12.547a8.227,8.227,0,0,0,5.2,14.617Z" transform="translate(52.267 -48.803)" fill="url(#linear-gradient-11)"/>
          <path id="Caminho_61" data-name="Caminho 61" d="M463.756,139.949l-13.931,11.367a8.228,8.228,0,1,0,10.366,12.78l14-11.367a8.232,8.232,0,1,0-10.38-12.78Z" transform="translate(43.955 -41.722)" fill="url(#linear-gradient-12)"/>
          <path id="Caminho_62" data-name="Caminho 62" d="M531.916,161.238a8.227,8.227,0,0,0,5.293-1.933l9.6-8.118a8.227,8.227,0,1,0-10.449-12.7l-.137.11-9.6,8.118a8.227,8.227,0,0,0,5.307,14.521Z" transform="translate(72.507 -42.347)" fill="url(#linear-gradient-13)"/>
          <path id="Caminho_63" data-name="Caminho 63" d="M495.616,196.986a8.227,8.227,0,0,0,5.293-1.933l32.772-27.575a8.227,8.227,0,1,0-10.449-12.711l-.137.123-32.772,27.575a8.227,8.227,0,0,0,5.293,14.521Z" transform="translate(59.032 -36.232)" fill="url(#linear-gradient-14)"/>
          <path id="Caminho_64" data-name="Caminho 64" d="M480.964,203.434a8.227,8.227,0,0,0,5.293-1.933l5.4-4.552a8.227,8.227,0,0,0-10.586-12.588l-5.238,4.374a8.447,8.447,0,0,0-2.742,8.913,8.227,8.227,0,0,0,7.871,5.787Z" transform="translate(53.595 -25.211)" fill="url(#linear-gradient-15)"/>
          <path id="Caminho_65" data-name="Caminho 65" d="M505.709,152.419a8.227,8.227,0,0,0,11.559,1.371h0l39.546-31.03a8.227,8.227,0,1,0-10.147-12.944h0l-39.559,31.126a8.227,8.227,0,0,0-1.371,11.546Z" transform="translate(65.187 -52.931)" fill="url(#linear-gradient-16)"/>
          <path id="Caminho_66" data-name="Caminho 66" d="M460.03,198.772l38.929-30.8a8.229,8.229,0,0,0-10.215-12.9l-38.942,30.8a8.227,8.227,0,0,0,10.2,12.9Z" transform="translate(43.979 -36.084)" fill="url(#linear-gradient-17)"/>
          <path id="Caminho_67" data-name="Caminho 67" d="M479.6,120.5a9.763,9.763,0,1,0-5.9-9.009h0a9.516,9.516,0,0,0,5.9,9.009Z" transform="translate(53.948 -55.209)" fill="url(#linear-gradient-18)"/>
          <path id="Caminho_68" data-name="Caminho 68" d="M428.4,178.27a44.976,44.976,0,1,0,44.976,44.976h0A45.017,45.017,0,0,0,428.4,178.27Zm0,73.483a28.521,28.521,0,1,1,28.521-28.521h0A28.549,28.549,0,0,1,428.4,251.753Z" transform="translate(20.436 -26.813)" fill="url(#linear-gradient-19)"/>
          <path id="Caminho_69" data-name="Caminho 69" d="M412.689,216.88a8.776,8.776,0,1,0,8.762,8.776,8.776,8.776,0,0,0-8.762-8.776Z" transform="translate(28.038 -12.481)" fill="url(#linear-gradient-20)"/>
          <path id="Caminho_70" data-name="Caminho 70" d="M416.751,208.319a8.776,8.776,0,1,0-8.776,8.762A8.776,8.776,0,0,0,416.751,208.319Z" transform="translate(26.294 -18.921)" fill="url(#linear-gradient-21)"/>
          <path id="Caminho_71" data-name="Caminho 71" d="M422.83,219.372a8.776,8.776,0,1,0,8.776-8.762A8.776,8.776,0,0,0,422.83,219.372Z" transform="translate(35.065 -14.808)" fill="url(#linear-gradient-22)"/>
          <path id="Caminho_72" data-name="Caminho 72" d="M279.074,213.674A47.032,47.032,0,0,0,227.188,150.6c-17.346-14.754-30.167-18.964-38.106-12.492-2.537,2.084-10.284,8.392.507,31.853.946,2.057,2.016,4.2,3.167,6.376-.617,1.275-1.193,2.578-1.714,3.922a47.156,47.156,0,0,0,44.043,63.857,46.621,46.621,0,0,0,12.821-1.824c.562.425,1.111.85,1.659,1.248,9.064,6.637,16.55,9.941,22.611,9.941a13.712,13.712,0,0,0,8.227-2.619c9.215-6.733,4.484-22.378-1.988-35.651.219-.507.439-1.015.631-1.536Zm-79.023-61.293a47.542,47.542,0,0,1,8.68,5.1,50.528,50.528,0,0,0-5.485,4.114,46.772,46.772,0,0,1-3.195-9.256Zm24.682,73.181a30.688,30.688,0,0,1-19.7-30.29c3.414,4.9,7.171,9.873,11.175,14.782,5.073,6.212,10.3,12.039,15.495,17.291a31.21,31.21,0,0,1-6.966-1.728Zm26.053-2.331a204.575,204.575,0,0,1-22.351-23.626,214.14,214.14,0,0,1-16.372-22.817,30.619,30.619,0,1,1,38.723,46.443ZM264.5,233.708a35.907,35.907,0,0,0,2.742-2.413,37.4,37.4,0,0,1,1.371,4.69,38.918,38.918,0,0,1-4.223-2.262Z" transform="translate(-53.585 -42.815)" fill="url(#linear-gradient-23)"/>
          <path id="Caminho_73" data-name="Caminho 73" d="M675.641,248.63a61.485,61.485,0,1,0-61.471-61.476,61.488,61.488,0,0,0,61.471,61.476Zm-41.068-80.284H662.9a8.433,8.433,0,0,0,8.474-7.2,8.227,8.227,0,0,0-8.159-9.256H647.175c7.761-5.485,17.675-9.955,28.466-9.955a45.25,45.25,0,1,1-23.475,84h16.07a8.433,8.433,0,0,0,8.474-7.2,8.227,8.227,0,0,0-8.227-9.256H636.534s-.151-.384-.219-.384a38.724,38.724,0,0,1-4.114-10.586h21.83a8.447,8.447,0,0,0,8.488-7.2,8.227,8.227,0,0,0-8.227-9.256H630.885a49.58,49.58,0,0,1,3.716-13.712Z" transform="translate(106.092 -46.342)" fill="url(#linear-gradient-24)"/>
          <path id="Caminho_74" data-name="Caminho 74" d="M450.108,117.2l-11.532-4.251A34.006,34.006,0,0,1,418.434,92.8l-4.251-11.532a1.111,1.111,0,0,0-2.071,0L407.862,92.8a34.006,34.006,0,0,1-20.143,20.143L376.187,117.2a1.111,1.111,0,0,0-.727,1.042,1.083,1.083,0,0,0,.727,1.028l11.532,4.264a34.02,34.02,0,0,1,20.143,20.129l4.251,11.546a1.111,1.111,0,0,0,1.042.713,1.1,1.1,0,0,0,1.028-.713l4.251-11.546a34.047,34.047,0,0,1,20.143-20.129l11.532-4.264a1.083,1.083,0,0,0,.727-1.028,1.111,1.111,0,0,0-.727-1.042Z" transform="translate(17.481 -63.082)" fill="url(#linear-gradient-25)"/>
          <path id="Caminho_75" data-name="Caminho 75" d="M256.3,293.215l-24.325-8.968a71.714,71.714,0,0,1-42.507-42.507l-8.954-24.325a2.317,2.317,0,0,0-4.36,0l-8.981,24.325a71.714,71.714,0,0,1-42.507,42.507l-24.325,8.968a2.317,2.317,0,0,0,0,4.36l24.353,8.968a71.7,71.7,0,0,1,42.507,42.507l8.981,24.339a2.317,2.317,0,0,0,4.36,0l8.954-24.339A71.769,71.769,0,0,1,232,306.543l24.325-8.981a2.317,2.317,0,0,0,0-4.36Z" transform="translate(-85.216 -12.851)" fill="url(#linear-gradient-26)"/>
          <path id="Caminho_76" data-name="Caminho 76" d="M172.591,194.859l-9.256-3.414a27.287,27.287,0,0,1-16.153-16.153l-3.414-9.256a.891.891,0,0,0-.836-.576.878.878,0,0,0-.823.576l-3.414,9.256a27.287,27.287,0,0,1-16.153,16.153l-9.256,3.414a.878.878,0,0,0-.576.823.905.905,0,0,0,.576.836l9.256,3.414a27.26,27.26,0,0,1,16.153,16.153l3.414,9.242a.891.891,0,0,0,.836.59.864.864,0,0,0,.823-.59l3.414-9.242a27.26,27.26,0,0,1,16.153-16.153l9.256-3.414a.9.9,0,0,0,.576-.836A.878.878,0,0,0,172.591,194.859Z" transform="translate(-80.053 -31.568)" fill="url(#linear-gradient-27)"/>
          <path id="Caminho_77" data-name="Caminho 77" d="M278.835,99.121l-8.927-3.332A26.3,26.3,0,0,1,254.318,80.2l-3.3-8.927a.836.836,0,0,0-.8-.562.864.864,0,0,0-.809.562L246.118,80.2a26.3,26.3,0,0,1-15.549,15.591l-8.94,3.291a.864.864,0,0,0-.548.809.85.85,0,0,0,.548.8l8.94,3.332a26.3,26.3,0,0,1,15.591,15.591l3.291,8.927a.864.864,0,0,0,.809.562.836.836,0,0,0,.8-.562l3.3-8.927a26.3,26.3,0,0,1,15.55-15.591l8.927-3.3a.823.823,0,0,0,.562-.8.836.836,0,0,0-.562-.8Z" transform="translate(-39.826 -66.74)" fill="url(#linear-gradient-28)"/>
          <path id="Caminho_78" data-name="Caminho 78" d="M204.724,113.749l-9.242-3.414a27.259,27.259,0,0,1-16.139-16.153l-3.414-9.256a.9.9,0,0,0-.836-.576.878.878,0,0,0-.823.576l-3.414,9.256a27.287,27.287,0,0,1-16.194,16.153l-9.256,3.414a.891.891,0,0,0-.576.836.878.878,0,0,0,.576.823l9.256,3.414a27.287,27.287,0,0,1,16.153,16.153l3.414,9.256a.877.877,0,0,0,.823.576.905.905,0,0,0,.836-.576l3.414-9.256a27.26,27.26,0,0,1,16.153-16.153l9.256-3.414a.878.878,0,0,0,.576-.823.891.891,0,0,0-.562-.836Z" transform="translate(-68.13 -61.676)" fill="url(#linear-gradient-29)"/>
          <path id="Caminho_79" data-name="Caminho 79" d="M138.142,152.634l-7.61-2.852a22.364,22.364,0,0,1-13.287-13.287l-2.742-7.61a.74.74,0,0,0-1.371,0l-2.742,7.61a22.406,22.406,0,0,1-13.41,13.287l-7.624,2.811a.74.74,0,0,0,0,1.371l7.61,2.742a22.392,22.392,0,0,1,13.3,13.287l2.742,7.61a.74.74,0,0,0,1.371,0l2.742-7.61a22.364,22.364,0,0,1,13.287-13.287l7.61-2.742a.727.727,0,0,0,0-1.371Z" transform="translate(-88.894 -45.316)" fill="url(#linear-gradient-30)"/>
          <path id="Caminho_80" data-name="Caminho 80" d="M139.392,93.172l-5.485-2.016a16.221,16.221,0,0,1-9.6-9.6l-2.016-5.485a.535.535,0,0,0-.494-.343.521.521,0,0,0-.494.343l-2.029,5.485a16.139,16.139,0,0,1-9.6,9.6l-5.485,2.016a.535.535,0,0,0-.343.494.521.521,0,0,0,.343.494l5.485,2.029a16.112,16.112,0,0,1,9.6,9.6l2.029,5.485a.521.521,0,0,0,.494.343.535.535,0,0,0,.494-.343l2.016-5.485a16.18,16.18,0,0,1,9.6-9.6l5.485-2.029a.521.521,0,0,0,.343-.494.535.535,0,0,0-.343-.494Z" transform="translate(-83.342 -64.876)" fill="url(#linear-gradient-31)"/>
          <path id="Caminho_81" data-name="Caminho 81" d="M682.593,105.8l-5.046-1.879a15.083,15.083,0,0,1-8.9-8.885l-1.879-5.1a.48.48,0,0,0-.9,0l-1.879,5.087a15.084,15.084,0,0,1-8.9,8.9L650,105.8a.48.48,0,0,0-.329.453.521.521,0,0,0,.329.466l5.087,1.879a14.96,14.96,0,0,1,8.9,8.885l1.879,5.087a.48.48,0,0,0,.9,0l1.879-5.087a14.96,14.96,0,0,1,8.9-8.885l5.087-1.879a.494.494,0,0,0,.315-.466A.48.48,0,0,0,682.593,105.8Z" transform="translate(119.27 -59.721)" fill="url(#linear-gradient-32)"/>
          <path id="Caminho_82" data-name="Caminho 82" d="M292.948,325.514l-11.532-4.251a34.034,34.034,0,0,1-20.143-20.143l-4.251-11.532a1.1,1.1,0,0,0-2.07,0L250.7,301.121a34.006,34.006,0,0,1-20.143,20.143l-11.532,4.251a1.1,1.1,0,0,0-.727,1.028,1.111,1.111,0,0,0,.727,1.042l11.532,4.251A34.006,34.006,0,0,1,250.7,351.979l4.251,11.532a1.1,1.1,0,0,0,2.071,0l4.251-11.532a34.006,34.006,0,0,1,20.143-20.143l11.532-4.251a1.111,1.111,0,0,0,.727-1.042A1.1,1.1,0,0,0,292.948,325.514Z" transform="translate(-40.858 14.237)" fill="url(#linear-gradient-33)"/>
          <path id="Caminho_83" data-name="Caminho 83" d="M278.6,438.433l-8.748-3.236a25.724,25.724,0,0,1-15.275-15.275l-3.236-8.776a.836.836,0,0,0-1.563,0l-3.236,8.748a25.724,25.724,0,0,1-15.275,15.275l-8.748,3.236a.837.837,0,0,0-.549.782.823.823,0,0,0,.549.782l8.748,3.236a25.751,25.751,0,0,1,15.275,15.275l3.236,8.762a.85.85,0,0,0,.782.535.823.823,0,0,0,.782-.535l3.236-8.762A25.793,25.793,0,0,1,269.853,443.2l8.748-3.236a.823.823,0,0,0,.548-.782A.836.836,0,0,0,278.6,438.433Z" transform="translate(-39.495 59.432)" fill="url(#linear-gradient-34)"/>
          <path id="Caminho_84" data-name="Caminho 84" d="M376.28,257.6l-17.291-6.376a50.968,50.968,0,0,1-30.167-30.167l-6.376-17.291a1.659,1.659,0,0,0-3.113,0l-6.376,17.291a51.009,51.009,0,0,1-30.167,30.167l-17.3,6.376a1.673,1.673,0,0,0,0,3.113l17.3,6.376a50.967,50.967,0,0,1,30.167,30.167l6.376,17.291a1.659,1.659,0,0,0,3.113,0l6.376-17.291a50.967,50.967,0,0,1,30.167-30.167l17.291-6.376a1.659,1.659,0,0,0,0-3.113Z" transform="translate(-23.735 -17.752)" fill="url(#linear-gradient-35)"/>
          <path id="Caminho_85" data-name="Caminho 85" d="M286.839,473.356l-5.485-2.029a16.235,16.235,0,0,1-9.6-9.6l-2.029-5.485a.535.535,0,0,0-1,0l-2.029,5.485a16.235,16.235,0,0,1-9.6,9.6l-5.485,2.029a.535.535,0,0,0-.343.494.521.521,0,0,0,.343.494l5.485,2.029a16.221,16.221,0,0,1,9.6,9.6l2.029,5.485a.535.535,0,0,0,1,0l2.029-5.485a16.222,16.222,0,0,1,9.6-9.6l5.485-2.029a.521.521,0,0,0,.343-.494A.535.535,0,0,0,286.839,473.356Z" transform="translate(-28.619 76.244)" fill="url(#linear-gradient-36)"/>
          <path id="Caminho_86" data-name="Caminho 86" d="M561.56,394.285l-6.4-2.413A18.813,18.813,0,0,1,543.968,380.7l-2.372-6.417a.6.6,0,0,0-1.138,0l-2.372,6.417a18.813,18.813,0,0,1-11.244,11.175l-6.4,2.372a.617.617,0,0,0-.4.576.644.644,0,0,0,.4.576l6.4,2.358a18.84,18.84,0,0,1,11.189,11.189l2.372,6.4a.6.6,0,0,0,1.138,0l2.372-6.4A18.84,18.84,0,0,1,555.1,397.754l6.4-2.358a.617.617,0,0,0,.4-.576A.59.59,0,0,0,561.56,394.285Z" transform="translate(71.15 45.798)" fill="url(#linear-gradient-37)"/>
          <path id="Caminho_87" data-name="Caminho 87" d="M424.4,533.458l-8.227-3.03a24.229,24.229,0,0,1-14.343-14.343l-3.03-8.227a.8.8,0,0,0-.74-.507.809.809,0,0,0-.741.507l-3.017,8.227a24.229,24.229,0,0,1-14.343,14.343l-8.227,3.031a.782.782,0,0,0-.521.74.8.8,0,0,0,.521.74l8.227,3.017A24.257,24.257,0,0,1,394.3,552.3l3.017,8.227a.8.8,0,0,0,.74.521.782.782,0,0,0,.74-.521l3.03-8.227a24.229,24.229,0,0,1,14.343-14.343l8.227-3.017a.809.809,0,0,0,.507-.74.8.8,0,0,0-.507-.74Z" transform="translate(15.904 95.344)" fill="url(#linear-gradient-38)"/>
          <path id="Caminho_88" data-name="Caminho 88" d="M283.936,385.26l-6.705-2.482a19.787,19.787,0,0,1-11.724-11.71l-2.468-6.705a.644.644,0,0,0-1.207,0l-2.482,6.705a19.773,19.773,0,0,1-11.71,11.71l-6.705,2.482a.631.631,0,0,0-.425.6.644.644,0,0,0,.425.6l6.705,2.468a19.841,19.841,0,0,1,11.724,11.724l2.468,6.705a.644.644,0,0,0,1.207,0l2.468-6.705a19.841,19.841,0,0,1,11.724-11.724l6.705-2.468a.644.644,0,0,0,.425-.6A.631.631,0,0,0,283.936,385.26Z" transform="translate(-32.613 42.111)" fill="url(#linear-gradient-39)"/>
          <path id="Caminho_89" data-name="Caminho 89" d="M307.56,499.933l-4.525-1.673a13.342,13.342,0,0,1-7.884-7.871l-1.659-4.525a.439.439,0,0,0-.411-.274.412.412,0,0,0-.4.274l-1.673,4.525a13.273,13.273,0,0,1-7.884,7.871l-4.511,1.673a.411.411,0,0,0-.274.4.439.439,0,0,0,.274.411l4.511,1.659a13.328,13.328,0,0,1,7.884,7.884l1.673,4.525a.411.411,0,0,0,.4.274.439.439,0,0,0,.411-.274l1.659-4.525a13.41,13.41,0,0,1,7.884-7.884l4.525-1.659a.439.439,0,0,0,.274-.411.411.411,0,0,0-.274-.4Z" transform="translate(-18.57 87.266)" fill="url(#linear-gradient-40)"/>
          <path id="Caminho_90" data-name="Caminho 90" d="M244.183,369.272l-6.719-2.468a19.828,19.828,0,0,1-11.71-11.724l-2.482-6.705a.658.658,0,0,0-.6-.425.672.672,0,0,0-.6.425L219.6,355.08A19.814,19.814,0,0,1,207.873,366.8l-6.76,2.468a.644.644,0,0,0,0,1.207l6.705,2.468a19.773,19.773,0,0,1,11.724,11.724l2.468,6.705a.645.645,0,0,0,.6.425.617.617,0,0,0,.6-.425l2.482-6.705a19.786,19.786,0,0,1,11.71-11.724l6.719-2.468a.644.644,0,0,0,0-1.207Z" transform="translate(-47.393 36.174)" fill="url(#linear-gradient-41)"/>
          <path id="Caminho_91" data-name="Caminho 91" d="M237.526,417.9l-6.705-2.468A19.745,19.745,0,0,1,219.1,403.72L216.629,397a.658.658,0,0,0-.6-.411.631.631,0,0,0-.6.411l-2.482,6.719a19.773,19.773,0,0,1-11.71,11.71l-6.719,2.468a.658.658,0,0,0-.411.6.631.631,0,0,0,.411.6l6.719,2.482a19.772,19.772,0,0,1,11.71,11.71l2.482,6.719a.644.644,0,0,0,.6.411.658.658,0,0,0,.6-.411L219.1,433.3a19.746,19.746,0,0,1,11.724-11.71l6.705-2.482a.644.644,0,0,0,.425-.6.672.672,0,0,0-.425-.6Z" transform="translate(-49.841 54.229)" fill="url(#linear-gradient-42)"/>
          <path id="Caminho_92" data-name="Caminho 92" d="M340.4,519.628l-3.826-1.371a11.3,11.3,0,0,1-6.691-6.678l-1.371-3.826a.343.343,0,0,0-.343-.233.37.37,0,0,0-.343.233l-1.371,3.826a11.244,11.244,0,0,1-6.678,6.678l-3.826,1.371a.37.37,0,0,0,0,.686l3.826,1.371a11.3,11.3,0,0,1,6.691,6.678l1.371,3.826a.371.371,0,0,0,.7,0l1.371-3.826a11.3,11.3,0,0,1,6.691-6.678l3.826-1.371a.37.37,0,0,0,0-.686Z" transform="translate(-4.694 95.407)" fill="url(#linear-gradient-43)"/>
          <path id="Caminho_93" data-name="Caminho 93" d="M537.794,452.418l-3.661-1.371a10.846,10.846,0,0,1-6.376-6.376l-1.371-3.661a.356.356,0,0,0-.658,0l-1.371,3.661a10.846,10.846,0,0,1-6.376,6.376l-3.661,1.371a.356.356,0,0,0,0,.658l3.661,1.371a10.846,10.846,0,0,1,6.376,6.376l1.371,3.661a.356.356,0,0,0,.658,0l1.371-3.661a10.846,10.846,0,0,1,6.376-6.376l3.661-1.371a.343.343,0,0,0,0-.658Z" transform="translate(68.945 70.636)" fill="url(#linear-gradient-44)"/>
          <path id="Caminho_94" data-name="Caminho 94" d="M558.844,431.468,555.2,430.1a10.764,10.764,0,0,1-6.39-6.376l-1.371-3.661a.329.329,0,0,0-.329-.219.357.357,0,0,0-.329.219l-1.371,3.661a10.7,10.7,0,0,1-6.376,6.376l-3.647,1.371a.37.37,0,0,0-.233.329.357.357,0,0,0,.233.329l3.647,1.371a10.764,10.764,0,0,1,6.376,6.39l1.371,3.647a.37.37,0,0,0,.329.233.343.343,0,0,0,.329-.233l1.371-3.647a10.819,10.819,0,0,1,6.39-6.39l3.647-1.371a.356.356,0,0,0,.233-.329.37.37,0,0,0-.233-.329Z" transform="translate(76.759 62.859)" fill="url(#linear-gradient-45)"/>
        </g>
        <g id="Grupo_23" data-name="Grupo 23" transform="translate(38.764 261.27)">
          <path id="Caminho_95" data-name="Caminho 95" d="M655.5,704.75a13.013,13.013,0,1,0-.8-7.98l-36.241,31.346H502.98L393.05,618.2a3.277,3.277,0,0,0-2.317-.96H327.849a13.026,13.026,0,1,0,0,6.555h61.526l110,109.916a3.346,3.346,0,0,0,2.317.96H619.766a3.331,3.331,0,0,0,2.139-.8Zm5.485-5.2a2.69,2.69,0,1,1-.041,0ZM315.276,626.989a6.486,6.486,0,1,1,6.486-6.472,6.486,6.486,0,0,1-6.486,6.472Z" transform="translate(-8.262 -103.435)" fill="url(#linear-gradient-46)"/>
          <path id="Caminho_96" data-name="Caminho 96" d="M675.961,648.613a3.264,3.264,0,0,0-4.621-.343l-37.023,32.059H518.793L408.864,570.4a3.278,3.278,0,0,0-2.317-.96l-53.216.425v6.541l51.859-.411,109.943,109.93a3.222,3.222,0,0,0,2.3.96H635.5a3.345,3.345,0,0,0,2.153-.809l37.982-32.909a3.236,3.236,0,0,0,.329-4.607Z" transform="translate(10.712 -117.559)" fill="url(#linear-gradient-47)"/>
          <path id="Caminho_97" data-name="Caminho 97" d="M120.6,670.436,231.5,781.312a3.263,3.263,0,0,0,5.581-2.3,3.332,3.332,0,0,0-.946-2.331l-109.943-109.9V510.539a13.026,13.026,0,1,0-6.554,0V668.119A3.4,3.4,0,0,0,120.6,670.436Zm-4.114-172.457a2.686,2.686,0,1,1-.027,0Z" transform="translate(-79.655 -148.939)" fill="url(#linear-gradient-48)"/>
          <path id="Caminho_98" data-name="Caminho 98" d="M94.947,488.51a3.291,3.291,0,0,0-3.277,3.277v186.2a3.25,3.25,0,0,0,.974,2.317L186.3,773.954a13.04,13.04,0,1,0,1.508-7.747L98.238,676.64V491.8a3.3,3.3,0,0,0-3.291-3.291ZM199.159,765.974a6.472,6.472,0,1,1-6.472,6.472A6.472,6.472,0,0,1,199.159,765.974Z" transform="translate(-86.418 -147.601)" fill="url(#linear-gradient-49)"/>
          <path id="Caminho_99" data-name="Caminho 99" d="M212.012,598.5a13.026,13.026,0,1,0-6.541,0v78.447a3.346,3.346,0,0,0,.946,2.317l56.946,57.262a13.026,13.026,0,1,0,1.933-7.336L212.012,675.6Zm-9.749-12.56a6.486,6.486,0,1,1,6.486,6.472,6.486,6.486,0,0,1-6.486-6.472Zm80.558,150.079a6.486,6.486,0,1,1-6.472-6.472,6.486,6.486,0,0,1,6.472,6.472Z" transform="translate(-47.796 -116.288)" fill="url(#linear-gradient-50)"/>
          <path id="Caminho_100" data-name="Caminho 100" d="M365.962,567.989a13.04,13.04,0,1,0-25.093,4.868l-13.794,10.531-59.044-.3L158.1,473.17a3.277,3.277,0,0,0-2.317-.96H91.117a3.277,3.277,0,0,0,0,6.554h63.322L264.369,588.68a3.222,3.222,0,0,0,2.3.96l61.622.288a3.237,3.237,0,0,0,2.139-.8l14.37-11.038a12.958,12.958,0,0,0,21.158-10.106Zm-19.512,0a6.486,6.486,0,1,1,6.486,6.486,6.486,6.486,0,0,1-6.486-6.486Z" transform="translate(-87.84 -153.651)" fill="url(#linear-gradient-51)"/>
          <path id="Caminho_101" data-name="Caminho 101" d="M487.386,707.238,376.51,596.335a3.277,3.277,0,0,1,4.635-4.635L491.06,701.629H568a13.026,13.026,0,1,1,0,6.555H489.7a3.332,3.332,0,0,1-2.317-.946Zm93.173,4.114a2.686,2.686,0,1,0,0,.027Z" transform="translate(18.96 -109.652)" fill="url(#linear-gradient-52)"/>
          <path id="Caminho_102" data-name="Caminho 102" d="M440.865,700.368a3.291,3.291,0,0,1-3.277,3.277H340.712a3.263,3.263,0,0,1-2.317-.96l-93.653-93.64a13.054,13.054,0,1,1,7.761-1.522L342.056,697.1h95.518a3.291,3.291,0,0,1,3.291,3.263ZM252.736,596.156a6.472,6.472,0,1,0-6.472,6.486A6.472,6.472,0,0,0,252.736,596.156Z" transform="translate(-33.891 -112.518)" fill="url(#linear-gradient-53)"/>
          <path id="Caminho_103" data-name="Caminho 103" d="M397.309,719.1a13.026,13.026,0,1,1,0,6.555H318.863a3.3,3.3,0,0,1-2.317-.96l-75.512-73.949a13.054,13.054,0,1,1,7.336-1.933l71.837,70.3h77.1Zm12.56,9.749a6.472,6.472,0,1,0-6.472-6.472,6.472,6.472,0,0,0,6.472,6.472ZM241.54,631.288a6.486,6.486,0,1,0,6.472,6.472,6.486,6.486,0,0,0-6.472-6.472Z" transform="translate(-35.64 -97.066)" fill="url(#linear-gradient-54)"/>
          <path id="Caminho_104" data-name="Caminho 104" d="M180.256,499.582l110.9,110.889a3.277,3.277,0,0,0,4.635-4.635L185.864,495.921V339.7a13.026,13.026,0,1,0-6.554,0V497.279a3.263,3.263,0,0,0,.946,2.3Zm-4.114-172.457a2.685,2.685,0,1,1-.027,0Z" transform="translate(-57.505 -212.356)" fill="url(#linear-gradient-55)"/>
          <path id="Caminho_105" data-name="Caminho 105" d="M514.281,662.7l-110.9-110.889a3.291,3.291,0,0,1,0-4.635,3.236,3.236,0,0,1,2.3-.946,3.332,3.332,0,0,1,2.331.946l109.9,109.93h76.952a13.026,13.026,0,1,1,0,6.555h-78.3a3.277,3.277,0,0,1-2.29-.96Zm93.173,4.114a2.531,2.531,0,1,0-.027.041Z" transform="translate(28.936 -126.175)" fill="url(#linear-gradient-56)"/>
          <path id="Caminho_106" data-name="Caminho 106" d="M616.179,629.074,727.068,518.185a3.277,3.277,0,1,0-4.635-4.635L612.518,623.479H535.58a13.026,13.026,0,1,0,0,6.554h78.3A3.222,3.222,0,0,0,616.179,629.074Zm-93.174,4.114a2.686,2.686,0,1,1,0,.041Z" transform="translate(68.848 -138.662)" fill="url(#linear-gradient-57)"/>
          <path id="Caminho_107" data-name="Caminho 107" d="M497.56,599.771a3.291,3.291,0,0,0,3.277,3.277h96.876a3.264,3.264,0,0,0,2.317-.96l93.653-93.653a13.054,13.054,0,1,0-7.761-1.522l-89.553,89.581H500.906a3.291,3.291,0,0,0-3.346,3.277ZM685.69,495.56a6.472,6.472,0,1,1,6.472,6.486,6.472,6.472,0,0,1-6.472-6.486Z" transform="translate(64.251 -149.865)" fill="url(#linear-gradient-58)"/>
          <path id="Caminho_108" data-name="Caminho 108" d="M689.754,660.9,578.865,771.775a3.277,3.277,0,0,1-4.635-4.635l109.93-109.916V580.3a13.026,13.026,0,1,1,6.554,0v78.282a3.236,3.236,0,0,1-.96,2.317Zm4.114-93.174a2.684,2.684,0,1,0,.041,0Z" transform="translate(92.355 -123.043)" fill="url(#linear-gradient-59)"/>
          <path id="Caminho_109" data-name="Caminho 109" d="M627.01,486.9,516.121,597.759a3.291,3.291,0,0,1-4.635,0,3.236,3.236,0,0,1-.946-2.3,3.332,3.332,0,0,1,.946-2.331l109.93-109.9V450.669a13.026,13.026,0,1,1,6.555,0v33.91a3.277,3.277,0,0,1-.96,2.317Zm4.114-48.787a2.686,2.686,0,1,0,.041,0Z" transform="translate(69.069 -171.163)" fill="url(#linear-gradient-60)"/>
          <path id="Caminho_110" data-name="Caminho 110" d="M114.92,349.19V495.909h6.554V349.19a13.026,13.026,0,1,0-6.554,0Zm3.291-19.046a6.486,6.486,0,1,1-6.486,6.486A6.486,6.486,0,0,1,118.21,330.143Z" transform="translate(-81.407 -208.833)" fill="url(#linear-gradient-61)"/>
          <path id="Caminho_111" data-name="Caminho 111" d="M682.07,472.869V765.512h6.554V472.869a13.026,13.026,0,1,0-6.554,0Zm3.277-19.1a6.472,6.472,0,1,1-6.472,6.472A6.472,6.472,0,0,1,685.347,453.769Z" transform="translate(129.122 -162.922)" fill="url(#linear-gradient-62)"/>
          <rect id="Retângulo_16" data-name="Retângulo 16" width="6.554" height="287.199" transform="translate(837.409 181.164)" fill="url(#linear-gradient-63)"/>
          <rect id="Retângulo_17" data-name="Retângulo 17" width="6.554" height="287.199" transform="translate(1.975)" fill="url(#linear-gradient-64)"/>
          <path id="Caminho_112" data-name="Caminho 112" d="M174.643,572.39v69.52h6.541V572.39h0a13.026,13.026,0,1,0-6.554,0Zm3.277-19.046a6.438,6.438,0,1,1-.069,0Z" transform="translate(-59.243 -125.98)" fill="url(#linear-gradient-65)"/>
          <path id="Caminho_113" data-name="Caminho 113" d="M596.028,462a12.985,12.985,0,0,0-12.876,11.518L479.53,575.989a3.222,3.222,0,0,0-.96,2.3v55.616h6.554V579.595l99.618-98.4A13,13,0,1,0,596.028,462Zm0,19.5a6.445,6.445,0,1,0,0-.055Z" transform="translate(57.201 -157.442)" fill="url(#linear-gradient-66)"/>
          <path id="Caminho_114" data-name="Caminho 114" d="M525.693,482a13,13,0,0,0-12.876,11.518L459.34,548.49a3.264,3.264,0,0,0-.96,2.317v55.6h6.554V552.082L514.3,501.211A13,13,0,1,0,525.693,482Zm0,19.512a6.432,6.432,0,1,0,0-.069Z" transform="translate(49.707 -150.017)" fill="url(#linear-gradient-67)"/>
          <path id="Caminho_115" data-name="Caminho 115" d="M317.008,556.152,267.85,605.31l4.621,4.621,49.158-49.158h0a13.013,13.013,0,1,0-4.635-4.621ZM332.79,545a6.472,6.472,0,1,1-9.16,0,6.472,6.472,0,0,1,9.16,0Z" transform="translate(-21.019 -129.775)" fill="url(#linear-gradient-68)"/>
          <path id="Caminho_116" data-name="Caminho 116" d="M328.331,593.242l49.158-49.158-4.635-4.635L323.7,588.608h0a13.013,13.013,0,1,0,4.635,4.635ZM312.548,604.39a6.459,6.459,0,1,1,4.573,1.9,6.472,6.472,0,0,1-4.573-1.9Z" transform="translate(-7.565 -128.691)" fill="url(#linear-gradient-69)"/>
          <path id="Caminho_117" data-name="Caminho 117" d="M147.819,660.313,258.709,771.189a3.291,3.291,0,0,0,4.635,0,3.236,3.236,0,0,0,.946-2.3,3.332,3.332,0,0,0-.946-2.331l-109.93-109.9V537.809a13.026,13.026,0,1,0-6.554,0V658a3.277,3.277,0,0,0,.96,2.318Zm-4.114-135.078a2.689,2.689,0,1,1-.041,0Z" transform="translate(-69.551 -138.816)" fill="url(#linear-gradient-70)"/>
          <path id="Caminho_118" data-name="Caminho 118" d="M147.819,492.727,258.709,603.6a3.291,3.291,0,0,0,4.635,0,3.25,3.25,0,0,0,.946-2.317,3.3,3.3,0,0,0-.946-2.317L153.414,489.052V370.21a13.027,13.027,0,1,0-6.554,0v120.2a3.277,3.277,0,0,0,.96,2.317Zm-4.114-135.078a2.684,2.684,0,1,1-.041,0Z" transform="translate(-69.551 -201.03)" fill="url(#linear-gradient-70)"/>
          <path id="Caminho_119" data-name="Caminho 119" d="M659.58,498.913,548.691,609.775a3.291,3.291,0,0,1-4.635,0,3.236,3.236,0,0,1-.946-2.3,3.331,3.331,0,0,1,.946-2.331L654.027,495.252V418.3a13.026,13.026,0,1,1,6.554,0v78.3a3.278,3.278,0,0,1-1,2.317Zm4.114-93.173a2.686,2.686,0,1,0,.041,0Z" transform="translate(81.159 -183.179)" fill="url(#linear-gradient-72)"/>
        </g>
      </g>
      <g id="Shutter" transform="translate(299.406 291.57)">
        <g id="Grupo_24" data-name="Grupo 24" transform="translate(0)">
          <path id="Caminho_120" data-name="Caminho 120" d="M576.062,313.547s39.929,57.865,18.964,155.687L442.41,312.82Z" transform="translate(-157.293 -193.768)" fill="rgba(255,255,255,0.21)"/>
          <path id="Caminho_121" data-name="Caminho 121" d="M576.443,461.907s-12.93,69.136-97.123,123.162l3.414-218.529Z" transform="translate(-143.592 -173.827)" fill="rgba(255,255,255,0.21)"/>
          <path id="Caminho_122" data-name="Caminho 122" d="M512.747,564.113s-57.865,39.875-155.687,18.964L513.487,430.42Z" transform="translate(-188.975 -150.114)" fill="rgba(255,255,255,0.21)"/>
          <path id="Caminho_123" data-name="Caminho 123" d="M381.2,564.473S312.089,551.528,258.05,467.35l218.5,3.442Z" transform="translate(-225.729 -136.406)" fill="rgba(255,255,255,0.21)"/>
          <path id="Caminho_124" data-name="Caminho 124" d="M259.533,501s-39.957-57.892-18.95-155.728L393.225,501.684Z" transform="translate(-234.479 -181.723)" fill="rgba(255,255,255,0.21)"/>
          <path id="Caminho_125" data-name="Caminho 125" d="M339.616,246.27l-3.442,218.5L242.48,369.391S255.424,300.3,339.616,246.27Z" transform="translate(-231.508 -218.472)" fill="rgba(255,255,255,0.21)"/>
          <path id="Caminho_126" data-name="Caminho 126" d="M322.171,251.039S380.049,211.1,477.858,232.1L321.54,384.718Z" transform="translate(-202.161 -225.997)" fill="rgba(255,255,255,0.21)"/>
          <path id="Caminho_127" data-name="Caminho 127" d="M470.615,234s69.1,12.9,123.121,97.123L375.22,327.667Z" transform="translate(-182.234 -223.027)" fill="rgba(255,255,255,0.21)"/>
          <path id="Caminho_128" data-name="Caminho 128" d="M478.937,352.4s18.5,26.807,8.789,72.1L417,352.07Z" transform="translate(-166.725 -179.198)" fill="rgba(255,255,255,0.21)"/>
          <path id="Caminho_129" data-name="Caminho 129" d="M479.106,421.117s-5.992,32-44.976,57.028l1.577-101.2Z" transform="translate(-160.367 -169.963)" fill="rgba(255,255,255,0.21)"/>
          <path id="Caminho_130" data-name="Caminho 130" d="M449.608,468.44s-26.793,18.5-72.1,8.789l72.441-70.7Z" transform="translate(-181.384 -158.983)" fill="rgba(255,255,255,0.21)"/>
          <path id="Caminho_131" data-name="Caminho 131" d="M388.688,468.606s-32-5.992-57.028-44.976l101.181,1.591Z" transform="translate(-198.404 -152.635)" fill="rgba(255,255,255,0.21)"/>
          <path id="Caminho_132" data-name="Caminho 132" d="M332.338,439.212s-18.5-26.807-8.762-72.112l70.686,72.427Z" transform="translate(-202.456 -173.619)" fill="rgba(255,255,255,0.21)"/>
          <path id="Caminho_133" data-name="Caminho 133" d="M369.426,321.25l-1.591,101.2-43.385-44.18S330.442,346.275,369.426,321.25Z" transform="translate(-201.081 -190.639)" fill="rgba(255,255,255,0.21)"/>
          <path id="Caminho_134" data-name="Caminho 134" d="M361.375,323.46s26.807-18.5,72.1-8.776L361.06,385.37Z" transform="translate(-187.491 -194.125)" fill="rgba(255,255,255,0.21)"/>
          <path id="Caminho_135" data-name="Caminho 135" d="M430.1,315.57s31.99,5.978,57.015,44.976l-101.2-1.591Z" transform="translate(-178.262 -192.747)" fill="rgba(255,255,255,0.21)"/>
          <path id="Caminho_136" data-name="Caminho 136" d="M427.944,373.033s7.158,10.38,3.4,27.932L403.92,372.91Z" transform="translate(-171.581 -171.463)" fill="rgba(255,255,255,0.21)"/>
          <path id="Caminho_137" data-name="Caminho 137" d="M427.994,399.64s-2.317,12.341-17.414,22.09l.576-39.23Z" transform="translate(-169.109 -167.903)" fill="rgba(255,255,255,0.21)"/>
          <path id="Caminho_138" data-name="Caminho 138" d="M416.558,417.944s-10.38,7.158-27.918,3.4l28.055-27.424Z" transform="translate(-177.253 -163.663)" fill="rgba(255,255,255,0.21)"/>
          <path id="Caminho_139" data-name="Caminho 139" d="M392.98,417.994s-12.341-2.317-22.09-17.414l39.189.617Z" transform="translate(-183.842 -161.191)" fill="rgba(255,255,255,0.21)"/>
          <path id="Caminho_140" data-name="Caminho 140" d="M371.157,406.611s-7.171-10.38-3.4-27.931l27.424,28.055Z" transform="translate(-185.412 -169.321)" fill="rgba(255,255,255,0.21)"/>
          <path id="Caminho_141" data-name="Caminho 141" d="M385.514,360.92l-.617,39.2-16.8-17.154S370.417,370.628,385.514,360.92Z" transform="translate(-184.877 -175.913)" fill="rgba(255,255,255,0.21)"/>
          <path id="Caminho_142" data-name="Caminho 142" d="M382.4,361.774s10.38-7.158,27.918-3.387L382.28,385.811Z" transform="translate(-179.614 -177.261)" fill="rgba(255,255,255,0.21)"/>
          <path id="Caminho_143" data-name="Caminho 143" d="M409.009,358.73s12.341,2.3,22.09,17.414l-39.189-.59Z" transform="translate(-176.039 -176.726)" fill="rgba(255,255,255,0.21)"/>
        </g>
      </g>
    </g>
    <g id="Retângulo_18" data-name="Retângulo 18" transform="translate(255 1875)" fill="#c9bcdb" stroke="#707070" stroke-width="1">
      <rect width="570" height="132" rx="19" stroke="none"/>
      <rect x="0.5" y="0.5" width="569" height="131" rx="18.5" fill="none"/>
    </g>
    <text id="Connect_Device" data-name="Connect Device" transform="translate(537 1974)" fill="#1c0606" stroke="#707070" stroke-width="1" font-size="65" font-family="ArialMT, Arial"><tspan x="-229.42" y="0">Connect Device</tspan></text>
  </g>
</svg>
