<svg xmlns="http://www.w3.org/2000/svg" xmlns:xlink="http://www.w3.org/1999/xlink" width="1080" height="2340" viewBox="0 0 1080 2340">
  <defs>
    <linearGradient id="linear-gradient" x1="0.163" y1="0.736" x2="0.838" y2="0.263" gradientUnits="objectBoundingBox">
      <stop offset="0" stop-color="#3ddeed"/>
      <stop offset="0.05" stop-color="#3dd9ed"/>
      <stop offset="0.11" stop-color="#3dcaed"/>
      <stop offset="0.17" stop-color="#3db2ed"/>
      <stop offset="0.29" stop-color="#12c2ed"/>
      <stop offset="0.36" stop-color="#00c9ed"/>
      <stop offset="0.38" stop-color="#0ac7ed"/>
      <stop offset="0.46" stop-color="#26c2ed"/>
      <stop offset="0.53" stop-color="#37bfed"/>
      <stop offset="0.58" stop-color="#3dbeed"/>
      <stop offset="0.67" stop-color="#4ed2f6"/>
      <stop offset="0.77" stop-color="#5adffd"/>
      <stop offset="0.85" stop-color="#5ee4ff"/>
      <stop offset="0.85" stop-color="#5de4ff"/>
      <stop offset="0.87" stop-color="#40e6ff"/>
      <stop offset="0.88" stop-color="#29e7ff"/>
      <stop offset="0.9" stop-color="#16e8ff"/>
      <stop offset="0.92" stop-color="#0ae8ff"/>
      <stop offset="0.94" stop-color="#02e9ff"/>
      <stop offset="1" stop-color="#00e9ff"/>
    </linearGradient>
    <linearGradient id="linear-gradient-2" x1="0.163" y1="0.736" x2="0.838" y2="0.264" xlink:href="#linear-gradient"/>
    <linearGradient id="linear-gradient-3" x1="0.162" y1="0.736" x2="0.838" y2="0.264" xlink:href="#linear-gradient"/>
    <linearGradient id="linear-gradient-4" x1="0.162" y1="0.738" x2="0.839" y2="0.264" xlink:href="#linear-gradient"/>
    <linearGradient id="linear-gradient-5" x1="0.162" y1="0.737" x2="0.837" y2="0.264" xlink:href="#linear-gradient"/>
    <linearGradient id="linear-gradient-6" x1="0.163" y1="0.736" x2="0.838" y2="0.264" xlink:href="#linear-gradient"/>
    <linearGradient id="linear-gradient-7" x1="0.084" y1="0.796" x2="0.916" y2="0.203" xlink:href="#linear-gradient"/>
    <linearGradient id="linear-gradient-8" x1="0.06" y1="0.828" x2="0.931" y2="0.178" xlink:href="#linear-gradient"/>
    <linearGradient id="linear-gradient-9" x1="0.06" y1="0.844" x2="0.911" y2="0.276" xlink:href="#linear-gradient"/>
    <linearGradient id="linear-gradient-10" x1="0.044" y1="0.846" x2="0.954" y2="0.159" xlink:href="#linear-gradient"/>
    <linearGradient id="linear-gradient-11" x1="0.034" y1="0.859" x2="0.966" y2="0.141" xlink:href="#linear-gradient"/>
    <linearGradient id="linear-gradient-12" x1="0.037" y1="0.853" x2="0.961" y2="0.145" xlink:href="#linear-gradient"/>
    <linearGradient id="linear-gradient-13" x1="0.044" y1="0.84" x2="0.948" y2="0.167" xlink:href="#linear-gradient"/>
    <linearGradient id="linear-gradient-14" x1="0.008" y1="0.885" x2="0.992" y2="0.115" xlink:href="#linear-gradient"/>
    <linearGradient id="linear-gradient-15" x1="0.06" y1="0.82" x2="0.945" y2="0.176" xlink:href="#linear-gradient"/>
    <linearGradient id="linear-gradient-16" x1="0.012" y1="0.903" x2="0.984" y2="0.101" xlink:href="#linear-gradient"/>
    <linearGradient id="linear-gradient-17" x1="0.01" y1="0.902" x2="0.988" y2="0.1" xlink:href="#linear-gradient"/>
    <linearGradient id="linear-gradient-18" x1="0.088" y1="0.786" x2="0.907" y2="0.213" xlink:href="#linear-gradient"/>
    <linearGradient id="linear-gradient-19" x1="0.09" y1="0.787" x2="0.909" y2="0.213" xlink:href="#linear-gradient"/>
    <linearGradient id="linear-gradient-20" x1="0.091" y1="0.787" x2="0.909" y2="0.213" xlink:href="#linear-gradient"/>
    <linearGradient id="linear-gradient-21" x1="0.089" y1="0.787" x2="0.908" y2="0.214" xlink:href="#linear-gradient"/>
    <linearGradient id="linear-gradient-22" x1="0.091" y1="0.784" x2="0.909" y2="0.211" xlink:href="#linear-gradient"/>
    <linearGradient id="linear-gradient-23" x1="0.11" y1="0.735" x2="0.87" y2="0.278" xlink:href="#linear-gradient"/>
    <linearGradient id="linear-gradient-24" x1="0.091" y1="0.787" x2="0.91" y2="0.213" xlink:href="#linear-gradient"/>
    <linearGradient id="linear-gradient-25" x1="0.162" y1="0.737" x2="0.838" y2="0.263" xlink:href="#linear-gradient"/>
    <linearGradient id="linear-gradient-26" x1="0.162" y1="0.736" x2="0.838" y2="0.264" xlink:href="#linear-gradient"/>
    <linearGradient id="linear-gradient-27" x1="0.162" y1="0.736" x2="0.838" y2="0.264" xlink:href="#linear-gradient"/>
    <linearGradient id="linear-gradient-28" x1="0.162" y1="0.736" x2="0.838" y2="0.264" xlink:href="#linear-gradient"/>
    <linearGradient id="linear-gradient-29" x1="0.163" y1="0.736" x2="0.838" y2="0.264" xlink:href="#linear-gradient"/>
    <linearGradient id="linear-gradient-30" x1="0.163" y1="0.739" x2="0.84" y2="0.265" xlink:href="#linear-gradient"/>
    <linearGradient id="linear-gradient-31" x1="0.164" y1="0.736" x2="0.838" y2="0.264" xlink:href="#linear-gradient"/>
    <linearGradient id="linear-gradient-32" x1="0.161" y1="0.737" x2="0.836" y2="0.264" xlink:href="#linear-gradient"/>
    <linearGradient id="linear-gradient-33" x1="0.162" y1="0.736" x2="0.838" y2="0.264" xlink:href="#linear-gradient"/>
    <linearGradient id="linear-gradient-34" x1="0.162" y1="0.737" x2="0.838" y2="0.264" xlink:href="#linear-gradient"/>
    <linearGradient id="linear-gradient-35" x1="0.161" y1="0.737" x2="0.837" y2="0.263" xlink:href="#linear-gradient"/>
    <linearGradient id="linear-gradient-36" x1="0.16" y1="0.737" x2="0.837" y2="0.263" xlink:href="#linear-gradient"/>
    <linearGradient id="linear-gradient-37" x1="0.164" y1="0.738" x2="0.839" y2="0.265" xlink:href="#linear-gradient"/>
    <linearGradient id="linear-gradient-38" x1="0.163" y1="0.736" x2="0.838" y2="0.264" xlink:href="#linear-gradient"/>
    <linearGradient id="linear-gradient-39" x1="0.162" y1="0.736" x2="0.838" y2="0.264" xlink:href="#linear-gradient"/>
    <linearGradient id="linear-gradient-40" x1="0.162" y1="0.736" x2="0.838" y2="0.264" xlink:href="#linear-gradient"/>
    <linearGradient id="linear-gradient-41" x1="0.164" y1="0.736" x2="0.839" y2="0.264" xlink:href="#linear-gradient"/>
    <linearGradient id="linear-gradient-42" x1="0.162" y1="0.737" x2="0.838" y2="0.263" xlink:href="#linear-gradient"/>
    <linearGradient id="linear-gradient-43" x1="0.159" y1="0.737" x2="0.836" y2="0.263" xlink:href="#linear-gradient"/>
    <linearGradient id="linear-gradient-44" x1="0.164" y1="0.736" x2="0.837" y2="0.264" xlink:href="#linear-gradient"/>
    <linearGradient id="linear-gradient-45" x1="0.164" y1="0.736" x2="0.838" y2="0.264" xlink:href="#linear-gradient"/>
    <linearGradient id="linear-gradient-46" x1="0.209" y1="1.02" x2="0.792" y2="-0.194" gradientUnits="objectBoundingBox">
      <stop offset="0" stop-color="#ff7300"/>
      <stop offset="0.18" stop-color="#f97c01"/>
      <stop offset="0.47" stop-color="#ea9602"/>
      <stop offset="0.55" stop-color="#e59e03"/>
      <stop offset="0.87" stop-color="#e5c500"/>
      <stop offset="0.99" stop-color="#bf6f00"/>
    </linearGradient>
    <linearGradient id="linear-gradient-47" x1="0.22" y1="0.923" x2="0.784" y2="-0.166" xlink:href="#linear-gradient-46"/>
    <linearGradient id="linear-gradient-48" x1="0.093" y1="0.63" x2="0.827" y2="0.41" xlink:href="#linear-gradient-46"/>
    <linearGradient id="linear-gradient-49" x1="-0.008" y1="0.637" x2="0.761" y2="0.418" xlink:href="#linear-gradient-46"/>
    <linearGradient id="linear-gradient-50" x1="0.149" y1="0.631" x2="0.748" y2="0.408" xlink:href="#linear-gradient-46"/>
    <linearGradient id="linear-gradient-51" x1="0.245" y1="0.864" x2="0.769" y2="-0.002" xlink:href="#linear-gradient-46"/>
    <linearGradient id="linear-gradient-52" x1="0.287" y1="0.737" x2="0.73" y2="0.205" xlink:href="#linear-gradient-46"/>
    <linearGradient id="linear-gradient-53" x1="0.268" y1="0.8" x2="0.714" y2="0.262" xlink:href="#linear-gradient-46"/>
    <linearGradient id="linear-gradient-54" x1="0.257" y1="0.799" x2="0.743" y2="0.202" xlink:href="#linear-gradient-46"/>
    <linearGradient id="linear-gradient-55" x1="0.093" y1="0.63" x2="0.827" y2="0.41" xlink:href="#linear-gradient-46"/>
    <linearGradient id="linear-gradient-56" x1="0.287" y1="0.737" x2="0.73" y2="0.205" xlink:href="#linear-gradient-46"/>
    <linearGradient id="linear-gradient-57" x1="0.067" y1="1.093" x2="0.988" y2="-0.013" xlink:href="#linear-gradient-46"/>
    <linearGradient id="linear-gradient-58" x1="0.08" y1="1.177" x2="0.998" y2="0.07" xlink:href="#linear-gradient-46"/>
    <linearGradient id="linear-gradient-59" x1="-0.247" y1="0.784" x2="1.189" y2="0.198" xlink:href="#linear-gradient-46"/>
    <linearGradient id="linear-gradient-60" x1="-0.165" y1="0.815" x2="1.107" y2="0.163" xlink:href="#linear-gradient-46"/>
    <linearGradient id="linear-gradient-61" x1="-1.143" y1="0.672" x2="2.223" y2="0.316" xlink:href="#linear-gradient-46"/>
    <linearGradient id="linear-gradient-62" x1="-2.459" y1="0.669" x2="3.539" y2="0.325" xlink:href="#linear-gradient-46"/>
    <linearGradient id="linear-gradient-63" x1="-10.13" y1="0.67" x2="11.13" y2="0.33" xlink:href="#linear-gradient-46"/>
    <linearGradient id="linear-gradient-64" x1="-10.128" y1="0.67" x2="11.13" y2="0.33" xlink:href="#linear-gradient-46"/>
    <linearGradient id="linear-gradient-65" x1="-0.449" y1="0.679" x2="1.525" y2="0.3" xlink:href="#linear-gradient-46"/>
    <linearGradient id="linear-gradient-66" x1="-0.158" y1="0.828" x2="1.099" y2="0.16" xlink:href="#linear-gradient-46"/>
    <linearGradient id="linear-gradient-67" x1="-0.221" y1="0.796" x2="1.126" y2="0.187" xlink:href="#linear-gradient-46"/>
    <linearGradient id="linear-gradient-68" x1="-0.069" y1="0.839" x2="0.986" y2="0.101" xlink:href="#linear-gradient-46"/>
    <linearGradient id="linear-gradient-69" x1="0.015" y1="0.899" x2="1.069" y2="0.161" xlink:href="#linear-gradient-46"/>
    <linearGradient id="linear-gradient-70" x1="0.187" y1="0.779" x2="0.862" y2="0.207" xlink:href="#linear-gradient-46"/>
    <linearGradient id="linear-gradient-72" x1="0.101" y1="1.028" x2="1.07" y2="0.049" xlink:href="#linear-gradient-46"/>
    <clipPath id="clip-Menu">
      <rect width="1080" height="2340"/>
    </clipPath>
  </defs>
  <g id="Menu" clip-path="url(#clip-Menu)">
    <rect width="1080" height="2340" fill="#7a7a7a"/>
    <rect id="Retângulo_7" data-name="Retângulo 7" width="1080" height="180" fill="#232222"/>
    <g id="Grupo_7" data-name="Grupo 7">
      <rect id="Retângulo_8" data-name="Retângulo 8" width="674" height="1486" transform="translate(0 854)" fill="#595959"/>
    </g>
    <g id="Grupo_2" data-name="Grupo 2" transform="translate(38 896)">
      <path id="Caminho_3" data-name="Caminho 3" d="M97.324,39.251,88,36.143,92.39,27.36a4.934,4.934,0,0,0-.937-5.625L80.943,11.226a4.934,4.934,0,0,0-5.674-.937L66.487,14.68,63.378,5.355A4.934,4.934,0,0,0,58.74,2h-14.8a4.934,4.934,0,0,0-4.687,3.355L36.143,14.68,27.36,10.289a4.934,4.934,0,0,0-5.625.937L11.226,21.736a4.934,4.934,0,0,0-.937,5.674l4.391,8.782L5.355,39.3A4.934,4.934,0,0,0,2,43.939v14.8a4.934,4.934,0,0,0,3.355,4.687l9.325,3.108-4.391,8.782a4.934,4.934,0,0,0,.937,5.625L21.736,91.452a4.934,4.934,0,0,0,5.674.937L36.192,88,39.3,97.324a4.934,4.934,0,0,0,4.687,3.355h14.8a4.934,4.934,0,0,0,4.687-3.355L66.585,88l8.782,4.391a4.934,4.934,0,0,0,5.575-.937L91.452,80.943a4.934,4.934,0,0,0,.937-5.674L88,66.487l9.325-3.108a4.934,4.934,0,0,0,3.355-4.638v-14.8a4.934,4.934,0,0,0-3.355-4.687ZM90.811,55.188,84.89,57.161a9.868,9.868,0,0,0-5.723,13.914L81.979,76.7l-5.427,5.427-5.477-2.96A9.868,9.868,0,0,0,57.309,84.89l-1.974,5.921H47.491L45.517,84.89A9.868,9.868,0,0,0,31.6,79.167l-5.625,2.812-5.427-5.427,2.96-5.477a9.868,9.868,0,0,0-5.723-13.914l-5.921-1.974v-7.7l5.921-1.974A9.868,9.868,0,0,0,23.512,31.6L20.7,26.127,26.127,20.7,31.6,23.512a9.868,9.868,0,0,0,13.914-5.723l1.974-5.921h7.7l1.974,5.921a9.868,9.868,0,0,0,13.914,5.723L76.7,20.7l5.427,5.427L79.167,31.6A9.868,9.868,0,0,0,84.89,45.369l5.921,1.974ZM51.339,31.6A19.736,19.736,0,1,0,71.075,51.339,19.736,19.736,0,0,0,51.339,31.6Zm0,29.6a9.868,9.868,0,1,1,9.868-9.868A9.868,9.868,0,0,1,51.339,61.207Z" transform="translate(-2 -2)" fill="#fff" opacity="0.8"/>
      <text id="Settings" transform="translate(138 75.025)" fill="#fff" font-size="68" font-family="SegoeUI, Segoe UI"><tspan x="0" y="0">Settings</tspan></text>
    </g>
    <g id="Grupo_3" data-name="Grupo 3" transform="translate(38 1063.835)">
      <text id="Profiles" transform="translate(138 74.165)" fill="#fff" font-size="69" font-family="SegoeUI, Segoe UI"><tspan x="0" y="0">Profiles</tspan></text>
      <path id="Caminho_10" data-name="Caminho 10" d="M100.519,38.08a4.927,4.927,0,0,0-4.237-3.3l-28.036-4.09L55.682,5.215a4.927,4.927,0,0,0-8.869,0L34.248,30.64,6.212,34.779a4.853,4.853,0,0,0-2.759,8.278L23.8,62.765,18.875,90.752a4.927,4.927,0,0,0,7.243,5.321L51.247,82.918,76.376,96.073a4.582,4.582,0,0,0,2.267.591A4.953,4.953,0,0,0,83.521,90.8L78.593,62.815,98.943,43.106A4.927,4.927,0,0,0,100.519,38.08Zm-30.3,19.709a4.927,4.927,0,0,0-1.429,4.336l3.548,20.694L53.809,72.965a5.223,5.223,0,0,0-4.632,0L30.651,82.819,34.2,62.125a4.927,4.927,0,0,0-1.429-4.336L17.989,43.007,38.732,40a4.927,4.927,0,0,0,3.745-2.71l8.77-18.773L60.51,37.341a4.927,4.927,0,0,0,3.745,2.71L85,43.056Z" transform="translate(-2.006 -1.156)" fill="#fff" opacity="0.8"/>
    </g>
    <g id="Grupo_5" data-name="Grupo 5" transform="translate(38 1387)">
      <text id="Debug" transform="translate(138 77.445)" fill="#fff" font-size="69" font-family="SegoeUI, Segoe UI"><tspan x="0" y="0">Debug</tspan></text>
      <path id="Caminho_9" data-name="Caminho 9" d="M96.293,75.442,86.017,64.917a15.291,15.291,0,0,0-16.879-2.83L64.67,57.62a34.751,34.751,0,1,0-7,7l4.418,4.418a14.893,14.893,0,0,0,2.631,17.177L75.244,96.74a14.972,14.972,0,1,0,21.049-21.3Zm-42.1-21.049a24.822,24.822,0,1,1,7.293-17.574,24.822,24.822,0,0,1-7.293,17.574Zm35.1,35.1a4.964,4.964,0,0,1-7.05,0L71.719,78.967a4.985,4.985,0,1,1,7.05-7.05L89.293,82.442a4.964,4.964,0,0,1,0,7.05Z" transform="translate(-2.096 -2.046)" fill="#fff" opacity="0.8"/>
    </g>
    <g id="Grupo_4" data-name="Grupo 4" transform="translate(38 1227.883)">
      <text id="How_to_Use" data-name="How to Use" transform="translate(138.207 73.117)" fill="#fff" font-size="68" font-family="SegoeUI, Segoe UI"><tspan x="0" y="0">How to Use</tspan></text>
      <path id="Caminho_11" data-name="Caminho 11" d="M101.4,8.991a7.021,7.021,0,0,0-9.97,0l-52.31,52.38L17.139,39.324A7.175,7.175,0,1,0,7.168,49.645L34.131,76.608a7.021,7.021,0,0,0,9.971,0l57.3-57.3a7.021,7.021,0,0,0,0-10.322Z" transform="translate(-4.978 4.028)" fill="#fff" opacity="0.8"/>
    </g>
    <g id="Grupo_6" data-name="Grupo 6" transform="translate(38 1555)">
      <text id="About" transform="translate(137.69 77.679)" fill="#fff" font-size="68" font-family="SegoeUI, Segoe UI"><tspan x="0" y="0">About</tspan></text>
      <path id="Caminho_8" data-name="Caminho 8" d="M51.339,2a49.339,49.339,0,1,0,49.339,49.339A49.339,49.339,0,0,0,51.339,2Zm0,88.811A39.472,39.472,0,1,1,90.811,51.339,39.472,39.472,0,0,1,51.339,90.811Zm0-41.939a4.934,4.934,0,0,0-4.934,4.934v14.8a4.934,4.934,0,1,0,9.868,0v-14.8A4.934,4.934,0,0,0,51.339,48.872Zm0-19.736A6.167,6.167,0,1,0,57.507,35.3,6.167,6.167,0,0,0,51.339,29.137Z" transform="translate(-2 -2)" fill="#fff" opacity="0.8"/>
    </g>
    <g id="Grupo_1" data-name="Grupo 1" transform="translate(60 60)">
      <line id="Linha_1" data-name="Linha 1" x2="90" fill="none" stroke="#fff" stroke-width="5"/>
      <line id="Linha_2" data-name="Linha 2" x2="90" transform="translate(0 30)" fill="none" stroke="#fff" stroke-width="5"/>
      <line id="Linha_3" data-name="Linha 3" x2="90" transform="translate(0 60)" fill="none" stroke="#fff" stroke-width="5"/>
    </g>
    <text id="Star_Tracker" data-name="Star Tracker" transform="translate(542 122)" fill="#fff" font-size="74" font-family="SegoeUI, Segoe UI"><tspan x="-188.378" y="0">Star Tracker</tspan></text>
    <path id="Caminho_1" data-name="Caminho 1" d="M16,15a6,6,0,1,0-6-6A6,6,0,0,0,16,15Zm0,30a6,6,0,1,0,6,6A6,6,0,0,0,16,45Zm0-21a6,6,0,1,0,6,6A6,6,0,0,0,16,24Z" transform="translate(989 60)" fill="#fff"/>
    <rect id="Retângulo_9" data-name="Retângulo 9" width="674" height="674" transform="translate(0 180)" fill="#e7e7e7"/>
    <g id="Prancheta_1" data-name="Prancheta 1" transform="translate(-70.57 117.65)">
      <g id="Camada_1" data-name="Camada 1" transform="translate(98.334 74.669)">
        <g id="Grupo_22" data-name="Grupo 22" transform="translate(1.06)">
          <path id="Caminho_50" data-name="Caminho 50" d="M312.33,173.735l6.585,17.886a1.7,1.7,0,0,0,3.2,0l6.585-17.836a52.583,52.583,0,0,1,31.168-31.168l17.836-6.575a1.709,1.709,0,0,0,0-3.207l-17.856-6.565A52.573,52.573,0,0,1,328.677,95.1l-6.585-17.836a1.7,1.7,0,0,0-3.2,0L312.33,95.1a52.623,52.623,0,0,1-31.168,31.168l-17.846,6.575a1.709,1.709,0,0,0,0,3.207l17.846,6.575a52.613,52.613,0,0,1,31.168,31.107Z" transform="translate(-87.957 -67.77)" fill="url(#linear-gradient)"/>
          <path id="Caminho_51" data-name="Caminho 51" d="M626.521,251.645l-17.836-6.575A52.613,52.613,0,0,1,577.518,213.9l-6.575-17.846a1.709,1.709,0,0,0-3.207,0L561.16,213.9a52.623,52.623,0,0,1-31.168,31.168l-17.846,6.575a1.709,1.709,0,0,0,0,3.207l17.846,6.575A52.613,52.613,0,0,1,561.16,292.6l6.575,17.836a1.709,1.709,0,0,0,3.207,0l6.575-17.836a52.6,52.6,0,0,1,31.167-31.168l17.836-6.575a1.709,1.709,0,0,0,0-3.207Z" transform="translate(-86.612 -67.127)" fill="url(#linear-gradient-2)"/>
          <path id="Caminho_52" data-name="Caminho 52" d="M703.042,312.4l-12.125-4.474A35.732,35.732,0,0,1,669.8,286.759l-4.474-12.125a1.156,1.156,0,0,0-2.172,0l-4.474,12.125a35.752,35.752,0,0,1-21.174,21.164L625.384,312.4a1.156,1.156,0,0,0,0,2.172l12.125,4.474a35.762,35.762,0,0,1,21.174,21.174l4.474,12.125a1.156,1.156,0,0,0,2.172,0l4.474-12.125a35.753,35.753,0,0,1,21.114-21.174l12.125-4.474a1.156,1.156,0,0,0,0-2.172Z" transform="translate(-85.998 -66.701)" fill="url(#linear-gradient-3)"/>
          <path id="Caminho_53" data-name="Caminho 53" d="M534.741,308.809l-6.937-2.564a20.46,20.46,0,0,1-12.065-12.065l-2.614-6.978a.654.654,0,0,0-1.237,0l-2.564,6.937A20.46,20.46,0,0,1,497.26,306.2l-6.937,2.564a.653.653,0,0,0-.432.623.674.674,0,0,0,.432.623l6.937,2.554a20.45,20.45,0,0,1,12.065,12.065l2.564,6.927a.653.653,0,0,0,1.237,0l2.564-6.927a20.45,20.45,0,0,1,12.065-12.065l6.937-2.554a.673.673,0,0,0,.432-.623.654.654,0,0,0-.382-.583Z" transform="translate(-86.726 -66.631)" fill="url(#linear-gradient-4)"/>
          <path id="Caminho_54" data-name="Caminho 54" d="M611.294,94.695l-8.455-3.127a24.914,24.914,0,0,1-14.769-14.759l-3.117-8.455a.8.8,0,0,0-1.518,0l-3.117,8.455a24.944,24.944,0,0,1-14.769,14.759l-8.455,3.127a.794.794,0,0,0-.533.754.814.814,0,0,0,.533.764l8.456,3.117A24.934,24.934,0,0,1,580.318,114.1l3.117,8.455a.814.814,0,0,0,1.518,0l3.117-8.455a24.935,24.935,0,0,1,14.77-14.769l8.455-3.117a.814.814,0,0,0,.533-.764.794.794,0,0,0-.533-.754Z" transform="translate(-86.366 -67.815)" fill="url(#linear-gradient-5)"/>
          <path id="Caminho_55" data-name="Caminho 55" d="M629.51,361.612l-10.637-3.921a31.369,31.369,0,0,1-18.58-18.57l-3.921-10.637a1.056,1.056,0,0,0-1.961,0l-3.921,10.637a31.379,31.379,0,0,1-18.57,18.57l-10.637,3.921a1.019,1.019,0,0,0,0,1.91l10.637,3.931a31.359,31.359,0,0,1,18.57,18.57l3.921,10.637a1.056,1.056,0,0,0,1.96,0l3.921-10.637a31.348,31.348,0,0,1,18.58-18.57l10.637-3.931a1.019,1.019,0,0,0,0-1.91Z" transform="translate(-86.344 -66.409)" fill="url(#linear-gradient-6)"/>
          <path id="Caminho_56" data-name="Caminho 56" d="M513.112,202.188a6.032,6.032,0,0,0,3.61-1.206l.844-.633a6.033,6.033,0,0,0-7.229-9.662h0l-.844.633a6.032,6.032,0,0,0,3.62,10.858Z" transform="translate(-86.633 -67.157)" fill="url(#linear-gradient-7)"/>
          <path id="Caminho_57" data-name="Caminho 57" d="M493.422,155.755a6.032,6.032,0,0,0,3.72-1.287l4.524-3.549a6.032,6.032,0,1,0-7.44-9.491h0l-4.524,3.549a6.032,6.032,0,0,0,3.72,10.778Z" transform="translate(-86.74 -67.424)" fill="url(#linear-gradient-8)"/>
          <path id="Caminho_58" data-name="Caminho 58" d="M409.54,263.045a52.8,52.8,0,0,0,7.561.543A51.688,51.688,0,0,0,448.2,253.2l57.5-42.991a6.034,6.034,0,0,0-7.108-9.752l-.121.09L440.979,243.54A40.067,40.067,0,1,1,393,179.355l73.827-55.2a6.032,6.032,0,1,0-7.169-9.7h-.06l-73.817,55.2a52.11,52.11,0,0,0,23.758,93.322Z" transform="translate(-87.402 -67.569)" fill="url(#linear-gradient-9)"/>
          <path id="Caminho_59" data-name="Caminho 59" d="M500.033,120.1a6.033,6.033,0,0,0,3.8-1.348l7.8-6.334a6.036,6.036,0,1,0-7.611-9.37l-7.8,6.334a6.032,6.032,0,0,0,3.811,10.718Z" transform="translate(-86.704 -67.631)" fill="url(#linear-gradient-10)"/>
          <path id="Caminho_60" data-name="Caminho 60" d="M475.212,140.294a6.033,6.033,0,0,0,3.8-1.348l11.32-9.2a6.033,6.033,0,0,0-7.6-9.37l-11.331,9.2a6.032,6.032,0,0,0,3.81,10.718Z" transform="translate(-86.838 -67.538)" fill="url(#linear-gradient-11)"/>
          <path id="Caminho_61" data-name="Caminho 61" d="M459.227,139.457l-10.215,8.335a6.033,6.033,0,1,0,7.6,9.37l10.265-8.335a6.036,6.036,0,0,0-7.611-9.37Z" transform="translate(-86.959 -67.435)" fill="url(#linear-gradient-12)"/>
          <path id="Caminho_62" data-name="Caminho 62" d="M529.722,154.618A6.033,6.033,0,0,0,533.6,153.2l7.038-5.952a6.032,6.032,0,1,0-7.661-9.31l-.1.08-7.038,5.952a6.032,6.032,0,0,0,3.891,10.647Z" transform="translate(-86.544 -67.444)" fill="url(#linear-gradient-13)"/>
          <path id="Caminho_63" data-name="Caminho 63" d="M493.422,185.224a6.033,6.033,0,0,0,3.881-1.418l24.029-20.219a6.032,6.032,0,1,0-7.661-9.32l-.1.091-24.029,20.219a6.032,6.032,0,0,0,3.881,10.647Z" transform="translate(-86.74 -67.355)" fill="url(#linear-gradient-14)"/>
          <path id="Caminho_64" data-name="Caminho 64" d="M478.772,197.872a6.032,6.032,0,0,0,3.881-1.418l3.961-3.338a6.032,6.032,0,0,0-7.762-9.23l-3.841,3.207A6.193,6.193,0,0,0,473,193.629a6.033,6.033,0,0,0,5.771,4.243Z" transform="translate(-86.819 -67.194)" fill="url(#linear-gradient-15)"/>
          <path id="Caminho_65" data-name="Caminho 65" d="M505.247,140.545a6.032,6.032,0,0,0,8.476,1.005h0l29-22.752a6.032,6.032,0,1,0-7.44-9.491h0L506.272,132.13a6.032,6.032,0,0,0-1.005,8.466Z" transform="translate(-86.65 -67.598)" fill="url(#linear-gradient-16)"/>
          <path id="Caminho_66" data-name="Caminho 66" d="M456.512,186.639l28.543-22.581a6.033,6.033,0,0,0-7.49-9.461l-28.554,22.581a6.032,6.032,0,0,0,7.48,9.461Z" transform="translate(-86.959 -67.352)" fill="url(#linear-gradient-17)"/>
          <path id="Caminho_67" data-name="Caminho 67" d="M478.023,115.5A7.158,7.158,0,1,0,473.7,108.9h0a6.978,6.978,0,0,0,4.323,6.606Z" transform="translate(-86.814 -67.631)" fill="url(#linear-gradient-18)"/>
          <path id="Caminho_68" data-name="Caminho 68" d="M416.4,178.27a32.977,32.977,0,1,0,32.977,32.977h0A33.008,33.008,0,0,0,416.4,178.27Zm0,53.88a20.912,20.912,0,1,1,20.912-20.912h0A20.933,20.933,0,0,1,416.4,232.15Z" transform="translate(-87.302 -67.217)" fill="url(#linear-gradient-19)"/>
          <path id="Caminho_69" data-name="Caminho 69" d="M410.345,216.88a6.435,6.435,0,1,0,6.424,6.435,6.435,6.435,0,0,0-6.424-6.435Z" transform="translate(-87.191 -67.009)" fill="url(#linear-gradient-20)"/>
          <path id="Caminho_70" data-name="Caminho 70" d="M412.069,205.975a6.435,6.435,0,1,0-6.435,6.425A6.435,6.435,0,0,0,412.069,205.975Z" transform="translate(-87.217 -67.103)" fill="url(#linear-gradient-21)"/>
          <path id="Caminho_71" data-name="Caminho 71" d="M422.83,217.035a6.435,6.435,0,1,0,6.435-6.425A6.435,6.435,0,0,0,422.83,217.035Z" transform="translate(-87.089 -67.043)" fill="url(#linear-gradient-22)"/>
          <path id="Caminho_72" data-name="Caminho 72" d="M253.715,192.73a34.485,34.485,0,0,0-38.045-46.249c-12.718-10.818-22.119-13.9-27.94-9.159-1.86,1.528-7.541,6.153.372,23.356.694,1.508,1.478,3.077,2.322,4.675-.452.935-.875,1.89-1.257,2.875a34.576,34.576,0,0,0,32.294,46.822,34.185,34.185,0,0,0,9.4-1.337c.412.312.814.623,1.217.915,6.646,4.866,12.135,7.289,16.579,7.289A10.054,10.054,0,0,0,254.69,220c6.756-4.937,3.288-16.408-1.458-26.141.161-.372.322-.744.462-1.126Zm-57.942-44.942a34.859,34.859,0,0,1,6.364,3.74,37.045,37.045,0,0,0-4.022,3.016,34.294,34.294,0,0,1-2.343-6.786Zm18.1,53.658a22.5,22.5,0,0,1-14.448-22.209c2.5,3.589,5.258,7.239,8.194,10.838,3.72,4.554,7.551,8.827,11.361,12.678a22.884,22.884,0,0,1-5.107-1.267Zm19.1-1.709a150,150,0,0,1-16.388-17.323,157.014,157.014,0,0,1-12-16.73,22.451,22.451,0,1,1,28.393,34.053Zm10.054,7.681a26.329,26.329,0,0,0,2.011-1.77,27.425,27.425,0,0,1,1.005,3.438,28.535,28.535,0,0,1-3.1-1.659Z" transform="translate(-88.38 -67.45)" fill="url(#linear-gradient-23)"/>
          <path id="Caminho_73" data-name="Caminho 73" d="M659.242,215.825a45.082,45.082,0,1,0-45.072-45.076,45.085,45.085,0,0,0,45.072,45.076ZM629.13,156.958H649.9a6.183,6.183,0,0,0,6.213-5.278,6.032,6.032,0,0,0-5.982-6.786H638.37c5.691-4.022,12.96-7.3,20.872-7.3a33.178,33.178,0,1,1-17.213,61.591h11.783a6.183,6.183,0,0,0,6.213-5.278,6.033,6.033,0,0,0-6.032-6.786H630.568s-.111-.282-.161-.282a28.394,28.394,0,0,1-3.016-7.762H643.4a6.193,6.193,0,0,0,6.223-5.278,6.032,6.032,0,0,0-6.032-6.786H626.426a36.354,36.354,0,0,1,2.725-10.054Z" transform="translate(-86.055 -67.502)" fill="url(#linear-gradient-24)"/>
          <path id="Caminho_74" data-name="Caminho 74" d="M430.194,107.424l-8.455-3.117a24.934,24.934,0,0,1-14.769-14.769l-3.117-8.455a.814.814,0,0,0-1.518,0l-3.117,8.455a24.934,24.934,0,0,1-14.769,14.769l-8.455,3.117a.814.814,0,0,0-.533.764.794.794,0,0,0,.533.754l8.456,3.127a24.944,24.944,0,0,1,14.769,14.759l3.117,8.466a.814.814,0,0,0,.764.523.8.8,0,0,0,.754-.523l3.117-8.466a24.964,24.964,0,0,1,14.769-14.759l8.455-3.127a.794.794,0,0,0,.533-.754.814.814,0,0,0-.533-.764Z" transform="translate(-87.345 -67.746)" fill="url(#linear-gradient-25)"/>
          <path id="Caminho_75" data-name="Caminho 75" d="M214.281,272.585l-17.836-6.575a52.583,52.583,0,0,1-31.168-31.168l-6.565-17.836a1.7,1.7,0,0,0-3.2,0l-6.585,17.836a52.583,52.583,0,0,1-31.168,31.168l-17.836,6.575a1.7,1.7,0,0,0,0,3.2l17.856,6.575a52.573,52.573,0,0,1,31.168,31.168l6.585,17.846a1.7,1.7,0,0,0,3.2,0l6.565-17.846a52.623,52.623,0,0,1,31.168-31.168l17.836-6.585a1.7,1.7,0,0,0,0-3.2Z" transform="translate(-88.84 -67.014)" fill="url(#linear-gradient-26)"/>
          <path id="Caminho_76" data-name="Caminho 76" d="M156.616,187.016l-6.786-2.5a20.008,20.008,0,0,1-11.844-11.844l-2.5-6.786a.654.654,0,0,0-.613-.422.643.643,0,0,0-.6.422l-2.5,6.787a20.008,20.008,0,0,1-11.844,11.844l-6.786,2.5a.643.643,0,0,0-.422.6.664.664,0,0,0,.422.613l6.786,2.5a19.987,19.987,0,0,1,11.844,11.844l2.5,6.776a.654.654,0,0,0,.613.432.633.633,0,0,0,.6-.432l2.5-6.776a19.987,19.987,0,0,1,11.844-11.844l6.786-2.5a.664.664,0,0,0,.422-.613A.643.643,0,0,0,156.616,187.016Z" transform="translate(-88.765 -67.287)" fill="url(#linear-gradient-27)"/>
          <path id="Caminho_77" data-name="Caminho 77" d="M263.428,91.542,256.883,89.1a19.284,19.284,0,0,1-11.431-11.431l-2.423-6.545a.613.613,0,0,0-.583-.412.633.633,0,0,0-.593.412l-2.413,6.545a19.284,19.284,0,0,1-11.4,11.431l-6.555,2.413a.633.633,0,0,0-.4.593.623.623,0,0,0,.4.583l6.555,2.443a19.284,19.284,0,0,1,11.431,11.431l2.413,6.545a.633.633,0,0,0,.593.412.613.613,0,0,0,.583-.412l2.423-6.545a19.284,19.284,0,0,1,11.4-11.431l6.545-2.423a.6.6,0,0,0,.412-.583.613.613,0,0,0-.412-.583Z" transform="translate(-88.179 -67.799)" fill="url(#linear-gradient-28)"/>
          <path id="Caminho_78" data-name="Caminho 78" d="M188.746,105.906l-6.776-2.5a19.987,19.987,0,0,1-11.834-11.844l-2.5-6.786a.664.664,0,0,0-.613-.422.643.643,0,0,0-.6.422l-2.5,6.786A20.008,20.008,0,0,1,152.039,103.4l-6.786,2.5a.654.654,0,0,0-.422.613.643.643,0,0,0,.422.6l6.786,2.5a20.007,20.007,0,0,1,11.844,11.844l2.5,6.786a.643.643,0,0,0,.6.422.664.664,0,0,0,.613-.422l2.5-6.787a19.987,19.987,0,0,1,11.844-11.844l6.786-2.5a.643.643,0,0,0,.422-.6.654.654,0,0,0-.412-.613Z" transform="translate(-88.592 -67.725)" fill="url(#linear-gradient-29)"/>
          <path id="Caminho_79" data-name="Caminho 79" d="M125,146.175l-5.58-2.091a16.4,16.4,0,0,1-9.742-9.742l-2.011-5.58a.543.543,0,0,0-1.005,0l-2.011,5.58a16.428,16.428,0,0,1-9.833,9.742l-5.59,2.061a.543.543,0,0,0,0,1.005l5.58,2.011a16.418,16.418,0,0,1,9.752,9.742l2.011,5.58a.543.543,0,0,0,1.005,0l2.011-5.58a16.4,16.4,0,0,1,9.742-9.742l5.58-2.011a.533.533,0,0,0,0-1.005Z" transform="translate(-88.894 -67.487)" fill="url(#linear-gradient-30)"/>
          <path id="Caminho_80" data-name="Caminho 80" d="M129.91,88.519l-4.022-1.478A11.894,11.894,0,0,1,118.851,80l-1.478-4.022a.392.392,0,0,0-.362-.251.382.382,0,0,0-.362.251L115.161,80a11.834,11.834,0,0,1-7.038,7.038L104.1,88.519a.392.392,0,0,0-.251.362.382.382,0,0,0,.251.362l4.022,1.488a11.814,11.814,0,0,1,7.038,7.038l1.488,4.022a.382.382,0,0,0,.362.251.392.392,0,0,0,.362-.251l1.478-4.022a11.864,11.864,0,0,1,7.038-7.038l4.022-1.488a.382.382,0,0,0,.251-.362.392.392,0,0,0-.251-.362Z" transform="translate(-88.813 -67.772)" fill="url(#linear-gradient-31)"/>
          <path id="Caminho_81" data-name="Caminho 81" d="M673.81,101.484l-3.7-1.377a11.059,11.059,0,0,1-6.525-6.515l-1.377-3.74a.352.352,0,0,0-.664,0l-1.377,3.73a11.06,11.06,0,0,1-6.525,6.525l-3.73,1.377a.352.352,0,0,0-.241.332.382.382,0,0,0,.241.342l3.73,1.377a10.969,10.969,0,0,1,6.525,6.515l1.377,3.73a.352.352,0,0,0,.664,0l1.377-3.73a10.969,10.969,0,0,1,6.525-6.515l3.73-1.377a.362.362,0,0,0,.231-.342A.352.352,0,0,0,673.81,101.484Z" transform="translate(-85.863 -67.697)" fill="url(#linear-gradient-32)"/>
          <path id="Caminho_82" data-name="Caminho 82" d="M273.034,315.734l-8.455-3.117a24.954,24.954,0,0,1-14.769-14.769l-3.117-8.455a.8.8,0,0,0-1.518,0l-3.117,8.455a24.934,24.934,0,0,1-14.769,14.769l-8.455,3.117a.8.8,0,0,0-.533.754.814.814,0,0,0,.533.764l8.456,3.117a24.934,24.934,0,0,1,14.769,14.769l3.117,8.455a.8.8,0,0,0,1.518,0l3.117-8.455a24.934,24.934,0,0,1,14.769-14.769l8.455-3.117a.814.814,0,0,0,.533-.764A.8.8,0,0,0,273.034,315.734Z" transform="translate(-88.194 -66.62)" fill="url(#linear-gradient-33)"/>
          <path id="Caminho_83" data-name="Caminho 83" d="M263.493,431.01l-6.414-2.373a18.861,18.861,0,0,1-11.2-11.2L243.506,411a.613.613,0,0,0-1.146,0l-2.373,6.415a18.861,18.861,0,0,1-11.2,11.2l-6.415,2.373a.613.613,0,0,0-.4.573.6.6,0,0,0,.4.573l6.415,2.373a18.882,18.882,0,0,1,11.2,11.2l2.373,6.424a.623.623,0,0,0,.573.392.6.6,0,0,0,.573-.392l2.373-6.425a18.912,18.912,0,0,1,11.2-11.2l6.414-2.373a.6.6,0,0,0,.4-.573A.613.613,0,0,0,263.493,431.01Z" transform="translate(-88.175 -65.962)" fill="url(#linear-gradient-34)"/>
          <path id="Caminho_84" data-name="Caminho 84" d="M346.441,242.947l-12.678-4.675a37.371,37.371,0,0,1-22.119-22.119l-4.675-12.678a1.216,1.216,0,0,0-2.282,0l-4.675,12.678a37.4,37.4,0,0,1-22.119,22.119L265.2,242.947a1.227,1.227,0,0,0,0,2.282l12.688,4.675a37.371,37.371,0,0,1,22.119,22.119l4.675,12.678a1.217,1.217,0,0,0,2.282,0l4.675-12.678A37.371,37.371,0,0,1,333.763,249.9l12.678-4.675a1.217,1.217,0,0,0,0-2.282Z" transform="translate(-87.945 -67.086)" fill="url(#linear-gradient-35)"/>
          <path id="Caminho_85" data-name="Caminho 85" d="M277.35,468.7l-4.022-1.488a11.9,11.9,0,0,1-7.038-7.038l-1.488-4.022a.392.392,0,0,0-.734,0l-1.488,4.022a11.9,11.9,0,0,1-7.038,7.038l-4.022,1.488a.392.392,0,0,0-.251.362.382.382,0,0,0,.251.362l4.022,1.488a11.894,11.894,0,0,1,7.038,7.038l1.488,4.022a.392.392,0,0,0,.734,0l1.488-4.022a11.894,11.894,0,0,1,7.038-7.038l4.022-1.488a.382.382,0,0,0,.251-.362A.392.392,0,0,0,277.35,468.7Z" transform="translate(-88.016 -65.717)" fill="url(#linear-gradient-36)"/>
          <path id="Caminho_86" data-name="Caminho 86" d="M550.484,388.84l-4.7-1.77a13.794,13.794,0,0,1-8.2-8.194l-1.739-4.705a.442.442,0,0,0-.834,0l-1.739,4.705a13.794,13.794,0,0,1-8.244,8.194l-4.7,1.739a.452.452,0,0,0-.292.422.472.472,0,0,0,.291.422l4.7,1.729a13.814,13.814,0,0,1,8.2,8.2l1.739,4.7a.442.442,0,0,0,.835,0l1.739-4.7a13.814,13.814,0,0,1,8.2-8.2l4.7-1.729a.452.452,0,0,0,.292-.422A.433.433,0,0,0,550.484,388.84Z" transform="translate(-86.563 -66.16)" fill="url(#linear-gradient-37)"/>
          <path id="Caminho_87" data-name="Caminho 87" d="M410.21,526.493l-6.032-2.222a17.766,17.766,0,0,1-10.517-10.517l-2.222-6.032a.583.583,0,0,0-.543-.372.593.593,0,0,0-.543.372l-2.212,6.032a17.766,17.766,0,0,1-10.517,10.516l-6.032,2.222a.573.573,0,0,0-.382.543.583.583,0,0,0,.382.543l6.032,2.212a17.786,17.786,0,0,1,10.517,10.517l2.212,6.032a.583.583,0,0,0,.543.382.573.573,0,0,0,.543-.382l2.222-6.032a17.766,17.766,0,0,1,10.517-10.517l6.032-2.212a.593.593,0,0,0,.372-.543.583.583,0,0,0-.372-.543Z" transform="translate(-87.368 -65.439)" fill="url(#linear-gradient-38)"/>
          <path id="Caminho_88" data-name="Caminho 88" d="M272.351,379.574l-4.916-1.82a14.508,14.508,0,0,1-8.6-8.586l-1.81-4.916a.473.473,0,0,0-.885,0l-1.82,4.916a14.5,14.5,0,0,1-8.586,8.586l-4.916,1.82a.462.462,0,0,0-.312.442.472.472,0,0,0,.312.442l4.916,1.81a14.548,14.548,0,0,1,8.6,8.6l1.81,4.916a.473.473,0,0,0,.885,0l1.81-4.916a14.548,14.548,0,0,1,8.6-8.6l4.916-1.81a.473.473,0,0,0,.312-.442A.462.462,0,0,0,272.351,379.574Z" transform="translate(-88.074 -66.214)" fill="url(#linear-gradient-39)"/>
          <path id="Caminho_89" data-name="Caminho 89" d="M299.765,496.107l-3.318-1.227a9.783,9.783,0,0,1-5.781-5.771l-1.217-3.318a.322.322,0,0,0-.3-.2.3.3,0,0,0-.292.2l-1.227,3.318a9.733,9.733,0,0,1-5.781,5.771l-3.308,1.227a.3.3,0,0,0-.2.292.322.322,0,0,0,.2.3l3.308,1.217a9.773,9.773,0,0,1,5.781,5.781l1.227,3.318a.3.3,0,0,0,.292.2.322.322,0,0,0,.3-.2l1.217-3.318a9.833,9.833,0,0,1,5.781-5.781l3.318-1.217a.322.322,0,0,0,.2-.3.3.3,0,0,0-.2-.292Z" transform="translate(-87.87 -65.556)" fill="url(#linear-gradient-40)"/>
          <path id="Caminho_90" data-name="Caminho 90" d="M232.581,363.584l-4.926-1.81a14.538,14.538,0,0,1-8.586-8.6l-1.82-4.916a.483.483,0,0,0-.442-.312.493.493,0,0,0-.442.312l-1.81,4.917a14.528,14.528,0,0,1-8.6,8.6L201,363.584a.473.473,0,0,0,0,.885l4.916,1.81a14.5,14.5,0,0,1,8.6,8.6l1.81,4.916a.473.473,0,0,0,.442.312.452.452,0,0,0,.442-.312l1.82-4.916a14.508,14.508,0,0,1,8.586-8.6l4.926-1.81a.473.473,0,0,0,0-.885Z" transform="translate(-88.29 -66.3)" fill="url(#linear-gradient-41)"/>
          <path id="Caminho_91" data-name="Caminho 91" d="M225.941,412.214l-4.916-1.81a14.478,14.478,0,0,1-8.6-8.586l-1.81-4.927a.483.483,0,0,0-.442-.3.463.463,0,0,0-.442.3l-1.82,4.926a14.5,14.5,0,0,1-8.586,8.586l-4.926,1.81a.483.483,0,0,0-.3.442.463.463,0,0,0,.3.442l4.926,1.82a14.5,14.5,0,0,1,8.586,8.586l1.82,4.926a.473.473,0,0,0,.442.3.483.483,0,0,0,.442-.3l1.81-4.927a14.478,14.478,0,0,1,8.6-8.586l4.916-1.82a.472.472,0,0,0,.312-.442.493.493,0,0,0-.312-.442Z" transform="translate(-88.325 -66.037)" fill="url(#linear-gradient-42)"/>
          <path id="Caminho_92" data-name="Caminho 92" d="M333.817,516.4l-2.805-1.005a8.285,8.285,0,0,1-4.906-4.9l-1.005-2.805a.251.251,0,0,0-.251-.171.271.271,0,0,0-.251.171l-1.005,2.805a8.244,8.244,0,0,1-4.9,4.9l-2.805,1.005a.271.271,0,0,0,0,.5l2.805,1.005a8.285,8.285,0,0,1,4.906,4.9l1.005,2.805a.272.272,0,0,0,.513,0l1.005-2.805a8.285,8.285,0,0,1,4.906-4.9l2.805-1.005a.271.271,0,0,0,0-.5Z" transform="translate(-87.668 -65.438)" fill="url(#linear-gradient-43)"/>
          <path id="Caminho_93" data-name="Caminho 93" d="M531.473,449.316l-2.684-1.005a7.953,7.953,0,0,1-4.675-4.675l-1.005-2.684a.261.261,0,0,0-.483,0l-1.005,2.684a7.953,7.953,0,0,1-4.675,4.675l-2.684,1.005a.261.261,0,0,0,0,.483l2.684,1.005a7.953,7.953,0,0,1,4.675,4.675l1.005,2.684a.261.261,0,0,0,.483,0l1.005-2.684a7.953,7.953,0,0,1,4.675-4.675l2.684-1.005a.251.251,0,0,0,0-.483Z" transform="translate(-86.595 -65.798)" fill="url(#linear-gradient-44)"/>
          <path id="Caminho_94" data-name="Caminho 94" d="M552.523,428.366l-2.674-1.005a7.893,7.893,0,0,1-4.685-4.675L544.158,420a.241.241,0,0,0-.241-.161.261.261,0,0,0-.241.161l-1.005,2.684A7.842,7.842,0,0,1,538,427.36l-2.674,1.005a.272.272,0,0,0-.171.241.261.261,0,0,0,.171.241L538,429.854a7.892,7.892,0,0,1,4.675,4.685l1.005,2.674a.272.272,0,0,0,.241.171.251.251,0,0,0,.241-.171l1.005-2.674a7.932,7.932,0,0,1,4.685-4.685l2.674-1.005a.261.261,0,0,0,.171-.241A.272.272,0,0,0,552.523,428.366Z" transform="translate(-86.482 -65.912)" fill="url(#linear-gradient-45)"/>
        </g>
        <g id="Grupo_23" data-name="Grupo 23" transform="translate(0 173.006)">
          <path id="Caminho_95" data-name="Caminho 95" d="M561.253,678.8a9.541,9.541,0,1,0-.583-5.852L534.1,695.935H449.421l-80.6-80.593a2.4,2.4,0,0,0-1.7-.7H321.011a9.551,9.551,0,1,0,0,4.806h45.113l80.654,80.593a2.453,2.453,0,0,0,1.7.7h86.575a2.442,2.442,0,0,0,1.568-.583Zm4.022-3.81a1.971,1.971,0,1,1-.03,0ZM311.791,621.787a4.756,4.756,0,1,1,4.756-4.745,4.756,4.756,0,0,1-4.756,4.745Z" transform="translate(-86.681 -237.903)" fill="url(#linear-gradient-46)"/>
          <path id="Caminho_96" data-name="Caminho 96" d="M589.892,627.492a2.393,2.393,0,0,0-3.388-.251l-27.146,23.506H474.652l-80.6-80.6a2.4,2.4,0,0,0-1.7-.7l-39.02.312v4.8l38.024-.3,80.613,80.6a2.362,2.362,0,0,0,1.689.7h86.565a2.453,2.453,0,0,0,1.578-.593l27.85-24.13a2.373,2.373,0,0,0,.241-3.378Z" transform="translate(-86.405 -238.109)" fill="url(#linear-gradient-47)"/>
          <path id="Caminho_97" data-name="Caminho 97" d="M117.742,620.941l81.317,81.3a2.393,2.393,0,0,0,4.092-1.689,2.443,2.443,0,0,0-.694-1.709l-80.613-80.583V503.7a9.551,9.551,0,1,0-4.806,0V619.242A2.493,2.493,0,0,0,117.742,620.941Zm-3.016-126.45a1.969,1.969,0,1,1-.02,0Z" transform="translate(-87.721 -238.566)" fill="url(#linear-gradient-48)"/>
          <path id="Caminho_98" data-name="Caminho 98" d="M94.073,488.51a2.413,2.413,0,0,0-2.4,2.4V627.437a2.383,2.383,0,0,0,.714,1.7l68.669,68.669a9.561,9.561,0,1,0,1.106-5.681L96.486,626.452V490.923a2.423,2.423,0,0,0-2.413-2.413Zm76.411,203.444a4.745,4.745,0,1,1-4.746,4.746A4.745,4.745,0,0,1,170.484,691.954Z" transform="translate(-87.819 -238.546)" fill="url(#linear-gradient-49)"/>
          <path id="Caminho_99" data-name="Caminho 99" d="M207.664,591.661a9.551,9.551,0,1,0-4.8,0V649.18a2.453,2.453,0,0,0,.694,1.7l41.754,41.986a9.551,9.551,0,1,0,1.418-5.379l-39.07-39.291Zm-7.148-9.209a4.756,4.756,0,1,1,4.756,4.745,4.756,4.756,0,0,1-4.756-4.745Zm59.068,110.042a4.756,4.756,0,1,1-4.746-4.746,4.756,4.756,0,0,1,4.746,4.746Z" transform="translate(-87.257 -238.09)" fill="url(#linear-gradient-50)"/>
          <path id="Caminho_100" data-name="Caminho 100" d="M291.766,542.438a9.561,9.561,0,1,0-18.4,3.569l-10.114,7.721-43.293-.221-80.6-80.593a2.4,2.4,0,0,0-1.7-.7H90.243a2.4,2.4,0,0,0,0,4.806h46.43l80.6,80.593a2.362,2.362,0,0,0,1.689.7l45.183.211a2.374,2.374,0,0,0,1.568-.583l10.537-8.094a9.5,9.5,0,0,0,15.513-7.41Zm-14.307,0a4.756,4.756,0,1,1,4.756,4.755,4.756,4.756,0,0,1-4.756-4.755Z" transform="translate(-87.84 -238.634)" fill="url(#linear-gradient-51)"/>
          <path id="Caminho_101" data-name="Caminho 101" d="M457.551,676.159l-81.3-81.317a2.4,2.4,0,1,1,3.4-3.4l80.593,80.6h56.413a9.551,9.551,0,1,1,0,4.806H459.25a2.443,2.443,0,0,1-1.7-.694Zm68.317,3.016a1.967,1.967,0,1,0,0,.02Z" transform="translate(-86.285 -237.993)" fill="url(#linear-gradient-52)"/>
          <path id="Caminho_102" data-name="Caminho 102" d="M385.459,669.063a2.413,2.413,0,0,1-2.4,2.4H312.024a2.393,2.393,0,0,1-1.7-.7L241.656,602.1a9.572,9.572,0,1,1,5.691-1.116l65.663,65.683h70.037a2.413,2.413,0,0,1,2.413,2.393ZM247.517,592.652a4.746,4.746,0,1,0-4.746,4.756A4.745,4.745,0,0,0,247.517,592.652Z" transform="translate(-87.054 -238.035)" fill="url(#linear-gradient-53)"/>
          <path id="Caminho_103" data-name="Caminho 103" d="M352.266,693.9a9.551,9.551,0,1,1,0,4.806H294.746a2.423,2.423,0,0,1-1.7-.7L237.68,643.783a9.571,9.571,0,1,1,5.379-1.418l52.673,51.547h56.534Zm9.21,7.148a4.745,4.745,0,1,0-4.746-4.745,4.745,4.745,0,0,0,4.746,4.745ZM238.052,629.516a4.755,4.755,0,1,0,4.746,4.745,4.755,4.755,0,0,0-4.746-4.745Z" transform="translate(-87.08 -237.81)" fill="url(#linear-gradient-54)"/>
          <path id="Caminho_104" data-name="Caminho 104" d="M177.4,450.091,258.719,531.4a2.4,2.4,0,0,0,3.4-3.4l-80.6-80.593V332.861a9.551,9.551,0,1,0-4.806,0V448.4A2.393,2.393,0,0,0,177.4,450.091Zm-3.016-126.45a1.969,1.969,0,1,1-.02,0Z" transform="translate(-87.398 -239.489)" fill="url(#linear-gradient-55)"/>
          <path id="Caminho_105" data-name="Caminho 105" d="M484.441,631.629l-81.317-81.307a2.413,2.413,0,0,1,0-3.4,2.372,2.372,0,0,1,1.689-.694,2.443,2.443,0,0,1,1.709.694l80.583,80.6h56.423a9.551,9.551,0,1,1,0,4.806H486.12a2.4,2.4,0,0,1-1.679-.7Zm68.317,3.016a1.856,1.856,0,1,0-.02.03Z" transform="translate(-86.14 -238.234)" fill="url(#linear-gradient-56)"/>
          <path id="Caminho_106" data-name="Caminho 106" d="M587.839,598l81.307-81.307a2.4,2.4,0,1,0-3.4-3.4l-80.593,80.6H528.741a9.551,9.551,0,1,0,0,4.806H586.15A2.362,2.362,0,0,0,587.839,598Zm-68.317,3.016a1.97,1.97,0,1,1,0,.03Z" transform="translate(-85.558 -238.416)" fill="url(#linear-gradient-57)"/>
          <path id="Caminho_107" data-name="Caminho 107" d="M497.56,568.463a2.413,2.413,0,0,0,2.4,2.4h71.032a2.393,2.393,0,0,0,1.7-.7l68.669-68.669a9.571,9.571,0,1,0-5.691-1.116L570.01,566.06h-70a2.413,2.413,0,0,0-2.453,2.4ZM635.5,492.052a4.746,4.746,0,1,1,4.745,4.756,4.746,4.746,0,0,1-4.745-4.756Z" transform="translate(-85.625 -238.579)" fill="url(#linear-gradient-58)"/>
          <path id="Caminho_108" data-name="Caminho 108" d="M658.679,632.559l-81.307,81.3a2.4,2.4,0,0,1-3.4-3.4l80.6-80.593v-56.4a9.551,9.551,0,1,1,4.806,0v57.4a2.373,2.373,0,0,1-.7,1.7Zm3.016-68.317a1.968,1.968,0,1,0,.03,0Z" transform="translate(-85.216 -238.188)" fill="url(#linear-gradient-59)"/>
          <path id="Caminho_109" data-name="Caminho 109" d="M595.939,470.394l-81.307,81.287a2.413,2.413,0,0,1-3.4,0,2.373,2.373,0,0,1-.694-1.689,2.443,2.443,0,0,1,.694-1.709l80.6-80.583V443.831a9.551,9.551,0,1,1,4.806,0v24.864a2.4,2.4,0,0,1-.7,1.7Zm3.016-35.772a1.969,1.969,0,1,0,.03,0Z" transform="translate(-85.555 -238.889)" fill="url(#linear-gradient-60)"/>
          <path id="Caminho_110" data-name="Caminho 110" d="M112.318,342.351V449.929h4.806V342.351a9.551,9.551,0,1,0-4.806,0Zm2.413-13.965a4.756,4.756,0,1,1-4.756,4.756A4.756,4.756,0,0,1,114.731,328.386Z" transform="translate(-87.746 -239.438)" fill="url(#linear-gradient-61)"/>
          <path id="Caminho_111" data-name="Caminho 111" d="M679.468,466.031V680.6h4.806V466.031a9.551,9.551,0,1,0-4.806,0Zm2.4-14.005a4.745,4.745,0,1,1-4.745,4.745A4.745,4.745,0,0,1,681.871,452.026Z" transform="translate(-84.68 -238.769)" fill="url(#linear-gradient-62)"/>
          <rect id="Retângulo_16" data-name="Retângulo 16" width="4.806" height="210.582" transform="translate(614.011 132.834)" fill="url(#linear-gradient-63)"/>
          <rect id="Retângulo_17" data-name="Retângulo 17" width="4.806" height="210.582" transform="translate(1.448)" fill="url(#linear-gradient-64)"/>
          <path id="Caminho_112" data-name="Caminho 112" d="M172.038,565.551v50.974h4.8V565.551h0a9.551,9.551,0,1,0-4.806,0Zm2.4-13.965a4.72,4.72,0,1,1-.05,0Z" transform="translate(-87.424 -238.231)" fill="url(#linear-gradient-65)"/>
          <path id="Caminho_113" data-name="Caminho 113" d="M564.693,462a9.521,9.521,0,0,0-9.441,8.445l-75.979,75.134a2.362,2.362,0,0,0-.7,1.689v40.779h4.806V548.224l73.043-72.148A9.531,9.531,0,1,0,564.693,462Zm0,14.3a4.725,4.725,0,1,0,0-.04Z" transform="translate(-85.728 -238.689)" fill="url(#linear-gradient-66)"/>
          <path id="Caminho_114" data-name="Caminho 114" d="M507.735,482a9.531,9.531,0,0,0-9.441,8.445l-39.211,40.307a2.393,2.393,0,0,0-.7,1.7V573.22h4.806V533.386l36.195-37.3A9.531,9.531,0,1,0,507.735,482Zm0,14.307a4.715,4.715,0,1,0,0-.05Z" transform="translate(-85.837 -238.581)" fill="url(#linear-gradient-67)"/>
          <path id="Caminho_115" data-name="Caminho 115" d="M303.894,550.917,267.85,586.961l3.388,3.388,36.044-36.044h0a9.541,9.541,0,1,0-3.4-3.388Zm11.572-8.174a4.746,4.746,0,1,1-6.716,0A4.746,4.746,0,0,1,315.466,542.743Z" transform="translate(-86.867 -238.286)" fill="url(#linear-gradient-68)"/>
          <path id="Caminho_116" data-name="Caminho 116" d="M321.866,578.892l36.044-36.044-3.4-3.4-36.044,36.044h0a9.541,9.541,0,1,0,3.4,3.4Zm-11.572,8.174a4.736,4.736,0,1,1,3.353,1.391,4.746,4.746,0,0,1-3.353-1.391Z" transform="translate(-86.671 -238.271)" fill="url(#linear-gradient-69)"/>
          <path id="Caminho_117" data-name="Caminho 117" d="M144.962,620.794l81.307,81.3a2.413,2.413,0,0,0,3.4,0,2.373,2.373,0,0,0,.694-1.689,2.443,2.443,0,0,0-.694-1.709l-80.6-80.583V530.971a9.551,9.551,0,1,0-4.806,0v88.124a2.4,2.4,0,0,0,.7,1.7Zm-3.016-99.042a1.971,1.971,0,1,1-.03,0Z" transform="translate(-87.574 -238.418)" fill="url(#linear-gradient-70)"/>
          <path id="Caminho_118" data-name="Caminho 118" d="M144.962,453.2l81.307,81.3a2.413,2.413,0,0,0,3.4,0,2.383,2.383,0,0,0,.694-1.7,2.423,2.423,0,0,0-.694-1.7l-80.6-80.593V363.371a9.551,9.551,0,1,0-4.806,0V451.5a2.4,2.4,0,0,0,.7,1.7Zm-3.016-99.043a1.968,1.968,0,1,1-.03,0Z" transform="translate(-87.574 -239.324)" fill="url(#linear-gradient-70)"/>
          <path id="Caminho_119" data-name="Caminho 119" d="M628.509,470.569,547.2,551.856a2.413,2.413,0,0,1-3.4,0,2.373,2.373,0,0,1-.694-1.689,2.443,2.443,0,0,1,.694-1.709l80.633-80.573V411.461a9.551,9.551,0,1,1,4.806,0V468.87a2.4,2.4,0,0,1-.734,1.7Zm3.016-68.317a1.969,1.969,0,1,0,.03,0Z" transform="translate(-85.379 -239.064)" fill="url(#linear-gradient-72)"/>
        </g>
      </g>
      <g id="Shutter" transform="translate(245.765 233.707)">
        <g id="Grupo_24" data-name="Grupo 24" transform="translate(0)">
          <path id="Caminho_120" data-name="Caminho 120" d="M540.407,313.353s29.277,42.428,13.9,114.154L442.41,312.82Z" transform="translate(-233.355 -225.528)" fill="rgba(0,0,0,0.22)"/>
          <path id="Caminho_121" data-name="Caminho 121" d="M550.533,436.466s-9.481,50.693-71.213,90.305l2.5-160.231Z" transform="translate(-233.155 -225.238)" fill="rgba(0,0,0,0.22)"/>
          <path id="Caminho_122" data-name="Caminho 122" d="M471.214,528.447s-42.428,29.237-114.154,13.9l114.7-111.932Z" transform="translate(-233.816 -224.892)" fill="rgba(0,0,0,0.22)"/>
          <path id="Caminho_123" data-name="Caminho 123" d="M348.345,538.563s-50.672-9.491-90.3-71.213l160.211,2.524Z" transform="translate(-234.351 -224.693)" fill="rgba(0,0,0,0.22)"/>
          <path id="Caminho_124" data-name="Caminho 124" d="M252.849,459.454s-29.3-42.448-13.895-114.184L350.876,459.957Z" transform="translate(-234.479 -225.353)" fill="rgba(0,0,0,0.22)"/>
          <path id="Caminho_125" data-name="Caminho 125" d="M313.7,246.27l-2.524,160.211-68.7-69.936S251.971,285.883,313.7,246.27Z" transform="translate(-234.435 -225.888)" fill="rgba(0,0,0,0.22)"/>
          <path id="Caminho_126" data-name="Caminho 126" d="M322,244.359s42.438-29.287,114.154-13.885L321.54,342.376Z" transform="translate(-234.008 -225.997)" fill="rgba(0,0,0,0.22)"/>
          <path id="Caminho_127" data-name="Caminho 127" d="M445.166,234s50.662,9.461,90.275,71.213L375.22,302.679Z" transform="translate(-233.718 -225.954)" fill="rgba(0,0,0,0.22)"/>
          <path id="Caminho_128" data-name="Caminho 128" d="M462.414,352.311s13.563,19.656,6.445,52.864L417,352.07Z" transform="translate(-233.492 -225.316)" fill="rgba(0,0,0,0.22)"/>
          <path id="Caminho_129" data-name="Caminho 129" d="M467.107,409.334s-4.394,23.466-32.977,41.815l1.156-74.2Z" transform="translate(-233.399 -225.181)" fill="rgba(0,0,0,0.22)"/>
          <path id="Caminho_130" data-name="Caminho 130" d="M430.374,451.924s-19.646,13.563-52.864,6.445l53.116-51.839Z" transform="translate(-233.705 -225.021)" fill="rgba(0,0,0,0.22)"/>
          <path id="Caminho_131" data-name="Caminho 131" d="M373.475,456.607s-23.466-4.394-41.815-32.977l74.189,1.166Z" transform="translate(-233.953 -224.929)" fill="rgba(0,0,0,0.22)"/>
          <path id="Caminho_132" data-name="Caminho 132" d="M329.246,419.974s-13.563-19.656-6.425-52.874l51.829,53.105Z" transform="translate(-234.012 -225.235)" fill="rgba(0,0,0,0.22)"/>
          <path id="Caminho_133" data-name="Caminho 133" d="M357.427,321.25l-1.166,74.2L324.45,363.055S328.844,339.6,357.427,321.25Z" transform="translate(-233.992 -225.483)" fill="rgba(0,0,0,0.22)"/>
          <path id="Caminho_134" data-name="Caminho 134" d="M361.291,320.366s19.656-13.563,52.864-6.435l-53.1,51.829Z" transform="translate(-233.794 -225.533)" fill="rgba(0,0,0,0.22)"/>
          <path id="Caminho_135" data-name="Caminho 135" d="M418.314,315.57s23.456,4.384,41.8,32.977l-74.2-1.166Z" transform="translate(-233.66 -225.513)" fill="rgba(0,0,0,0.22)"/>
          <path id="Caminho_136" data-name="Caminho 136" d="M421.535,373s5.248,7.611,2.493,20.48L403.92,372.91Z" transform="translate(-233.563 -225.203)" fill="rgba(0,0,0,0.22)"/>
          <path id="Caminho_137" data-name="Caminho 137" d="M423.349,395.068s-1.7,9.049-12.769,16.2L411,382.5Z" transform="translate(-233.527 -225.151)" fill="rgba(0,0,0,0.22)"/>
          <path id="Caminho_138" data-name="Caminho 138" d="M409.11,411.535s-7.611,5.248-20.47,2.493l20.571-20.108Z" transform="translate(-233.645 -225.09)" fill="rgba(0,0,0,0.22)"/>
          <path id="Caminho_139" data-name="Caminho 139" d="M387.087,413.349s-9.049-1.7-16.2-12.769l28.734.452Z" transform="translate(-233.741 -225.054)" fill="rgba(0,0,0,0.22)"/>
          <path id="Caminho_140" data-name="Caminho 140" d="M369.958,399.16s-5.258-7.611-2.493-20.48l20.108,20.571Z" transform="translate(-233.764 -225.172)" fill="rgba(0,0,0,0.22)"/>
          <path id="Caminho_141" data-name="Caminho 141" d="M380.869,360.92l-.452,28.745L368.1,377.087S369.8,368.038,380.869,360.92Z" transform="translate(-233.756 -225.268)" fill="rgba(0,0,0,0.22)"/>
          <path id="Caminho_142" data-name="Caminho 142" d="M382.37,360.578s7.611-5.248,20.47-2.483L382.28,378.2Z" transform="translate(-233.68 -225.288)" fill="rgba(0,0,0,0.22)"/>
          <path id="Caminho_143" data-name="Caminho 143" d="M404.447,358.73s9.049,1.689,16.2,12.769l-28.734-.432Z" transform="translate(-233.628 -225.28)" fill="rgba(0,0,0,0.22)"/>
        </g>
      </g>
    </g>
  </g>
</svg>
