<svg xmlns="http://www.w3.org/2000/svg" xmlns:xlink="http://www.w3.org/1999/xlink" width="1080" height="2340" viewBox="0 0 1080 2340">
  <defs>
    <filter id="Tilt_the_sistem_until_the_indicated_angle." x="101" y="1882" width="853" height="188" filterUnits="userSpaceOnUse">
      <feOffset dy="3" input="SourceAlpha"/>
      <feGaussianBlur stdDeviation="3" result="blur"/>
      <feFlood flood-color="#271701" flood-opacity="0.671"/>
      <feComposite operator="in" in2="blur"/>
      <feComposite in="SourceGraphic"/>
    </filter>
    <radialGradient id="radial-gradient" cx="0.5" cy="0.5" r="0.5" gradientUnits="objectBoundingBox">
      <stop offset="0" stop-color="#f5ec00"/>
      <stop offset="1" stop-color="#fff501"/>
    </radialGradient>
    <clipPath id="clip-Profile_X_-_Inclination">
      <rect width="1080" height="2340"/>
    </clipPath>
  </defs>
  <g id="Profile_X_-_Inclination" data-name="Profile X - Inclination" clip-path="url(#clip-Profile_X_-_Inclination)">
    <rect width="1080" height="2340" fill="#7a7a7a"/>
    <rect id="Retângulo_7" data-name="Retângulo 7" width="1080" height="180" fill="#232222"/>
    <text id="Device_Inclination_2_3_" data-name="Device Inclination (2/3)" transform="translate(542 122)" fill="#fff" font-size="65" font-family="SegoeUI, Segoe UI"><tspan x="-329.396" y="0">Device Inclination (2/3)</tspan></text>
    <path id="Caminho_1" data-name="Caminho 1" d="M16,15a6,6,0,1,0-6-6A6,6,0,0,0,16,15Zm0,30a6,6,0,1,0,6,6A6,6,0,0,0,16,45Zm0-21a6,6,0,1,0,6,6A6,6,0,0,0,16,24Z" transform="translate(989 60)" fill="#fff"/>
    <g id="Retângulo_1" data-name="Retângulo 1" transform="translate(242 2111)" fill="#fff" stroke="#707070" stroke-width="1">
      <rect width="570" height="132" rx="19" stroke="none"/>
      <rect x="0.5" y="0.5" width="569" height="131" rx="18.5" fill="none"/>
    </g>
    <text id="Load_Profile" data-name="Load Profile" transform="translate(347 2206)" fill="#707070" font-size="69" font-family="SegoeUI, Segoe UI"><tspan x="0" y="0">Load Profile</tspan></text>
    <g id="Retângulo_2" data-name="Retângulo 2" transform="translate(242 2111)" fill="#fff" stroke="#707070" stroke-width="1">
      <rect width="570" height="132" rx="19" stroke="none"/>
      <rect x="0.5" y="0.5" width="569" height="131" rx="18.5" fill="none"/>
    </g>
    <text id="Load_Profile-2" data-name="Load Profile" transform="translate(347 2206)" fill="#707070" font-size="69" font-family="SegoeUI, Segoe UI"><tspan x="0" y="0">Load Profile</tspan></text>
    <g id="Retângulo_3" data-name="Retângulo 3" transform="translate(242 2111)" fill="#fff" stroke="#707070" stroke-width="1">
      <rect width="570" height="132" rx="19" stroke="none"/>
      <rect x="0.5" y="0.5" width="569" height="131" rx="18.5" fill="none"/>
    </g>
    <text id="Load_Profile-3" data-name="Load Profile" transform="translate(347 2206)" fill="#707070" font-size="69" font-family="SegoeUI, Segoe UI"><tspan x="0" y="0">Load Profile</tspan></text>
    <g id="Retângulo_4" data-name="Retângulo 4" transform="translate(242 2111)" fill="#fff" stroke="#707070" stroke-width="1">
      <rect width="570" height="132" rx="19" stroke="none"/>
      <rect x="0.5" y="0.5" width="569" height="131" rx="18.5" fill="none"/>
    </g>
    <text id="Load_Profile-4" data-name="Load Profile" transform="translate(347 2206)" fill="#707070" font-size="69" font-family="SegoeUI, Segoe UI"><tspan x="0" y="0">Load Profile</tspan></text>
    <g id="Retângulo_5" data-name="Retângulo 5" transform="translate(242 2111)" fill="#bbe7d8" stroke="#707070" stroke-width="1">
      <rect width="570" height="132" rx="19" stroke="none"/>
      <rect x="0.5" y="0.5" width="569" height="131" rx="18.5" fill="none"/>
    </g>
    <text id="Check" transform="translate(527 2206)" font-size="69" font-family="SegoeUI, Segoe UI"><tspan x="-92.011" y="0">Check</tspan></text>
    <path id="Caminho_12" data-name="Caminho 12" d="M76,19H20l6.4-4.8a4,4,0,0,0-4.8-6.4l-16,12a4,4,0,0,0,0,6.4l16,12a4,4,0,0,0,4.8-6.4L20,27H76a16,16,0,1,1,0,32H8a4,4,0,1,0,0,8H76a24,24,0,0,0,0-48Z" transform="translate(51 53)" fill="#fff"/>
    <g transform="matrix(1, 0, 0, 1, 0, 0)" filter="url(#Tilt_the_sistem_until_the_indicated_angle.)">
      <text id="Tilt_the_sistem_until_the_indicated_angle.-2" data-name="Tilt the sistem until the indicated angle." transform="translate(110 1888)" fill="#f7d600" font-size="65" font-family="ArialMT, Arial"><tspan x="95.388" y="59">Tilt the sistem until the </tspan><tspan x="189.825" y="134">indicated angle.</tspan></text>
    </g>
    <line id="Linha_5" data-name="Linha 5" x2="753" y2="7" transform="translate(150.5 1828.5)" fill="none" stroke="#fff" stroke-width="1"/>
    <g id="compass" transform="translate(96 530.059)" opacity="0.5">
      <g id="Grupo_21" data-name="Grupo 21" transform="translate(0 0)">
        <g id="Grupo_20" data-name="Grupo 20">
          <path id="Caminho_43" data-name="Caminho 43" d="M789.447,160.553A442.454,442.454,0,0,0,475.133,30.5C229.45,30.5,30.5,229.718,30.5,475.134S229.717,919.767,475.133,919.5,919.766,720.283,919.5,474.867A443.569,443.569,0,0,0,789.447,160.553ZM490.355,887.988V799.863a15.489,15.489,0,1,0-30.977,0v88.125C243.336,879.977,70.023,706.663,61.744,490.355H149.87a15.489,15.489,0,1,0,0-30.977H61.744C69.756,243.07,243.336,69.757,459.377,61.745v88.125a15.489,15.489,0,1,0,30.977,0h0V61.745c216.308,8.011,389.621,181.592,397.633,397.633H799.862a15.489,15.489,0,0,0,0,30.977h88.125C879.976,706.663,706.663,879.977,490.355,887.988Z" transform="translate(-30.5 -30.5)"/>
        </g>
      </g>
    </g>
    <g id="Elipse_1" data-name="Elipse 1" transform="translate(447 880)" stroke="#707070" stroke-width="1" fill="url(#radial-gradient)">
      <circle cx="94" cy="94" r="94" stroke="none"/>
      <circle cx="94" cy="94" r="93.5" fill="none"/>
    </g>
    <g id="compass-2" data-name="compass" transform="translate(96 530.059)" opacity="0.5">
      <g id="Grupo_21-2" data-name="Grupo 21" transform="translate(0 0)">
        <g id="Grupo_20-2" data-name="Grupo 20">
          <path id="Caminho_43-2" data-name="Caminho 43" d="M789.447,160.553A442.454,442.454,0,0,0,475.133,30.5C229.45,30.5,30.5,229.718,30.5,475.134S229.717,919.767,475.133,919.5,919.766,720.283,919.5,474.867A443.569,443.569,0,0,0,789.447,160.553ZM490.355,887.988V799.863a15.489,15.489,0,1,0-30.977,0v88.125C243.336,879.977,70.023,706.663,61.744,490.355H149.87a15.489,15.489,0,1,0,0-30.977H61.744C69.756,243.07,243.336,69.757,459.377,61.745v88.125a15.489,15.489,0,1,0,30.977,0h0V61.745c216.308,8.011,389.621,181.592,397.633,397.633H799.862a15.489,15.489,0,0,0,0,30.977h88.125C879.976,706.663,706.663,879.977,490.355,887.988Z" transform="translate(-30.5 -30.5)"/>
        </g>
      </g>
    </g>
    <g id="Elipse_2" data-name="Elipse 2" transform="translate(447 880)" stroke="#707070" stroke-width="1" fill="url(#radial-gradient)">
      <circle cx="94" cy="94" r="94" stroke="none"/>
      <circle cx="94" cy="94" r="93.5" fill="none"/>
    </g>
    <g id="Elipse_3" data-name="Elipse 3" transform="translate(454 1147)" fill="#fff" stroke="#707070" stroke-width="1" opacity="0.5">
      <circle cx="86.5" cy="86.5" r="86.5" stroke="none"/>
      <circle cx="86.5" cy="86.5" r="86" fill="none"/>
    </g>
    <text id="_0_" data-name="0°" transform="translate(540 486)" fill="#ae0000" stroke="#707070" stroke-width="1" font-size="100" font-family="SegoeUI-Bold, Segoe UI" font-weight="700"><tspan x="-47.754" y="0">0°</tspan></text>
    <text id="Desired_Angle:_40_" data-name="Desired Angle: 40°" transform="translate(540.5 1574)" fill="#0f8" stroke="#707070" stroke-width="1" font-size="65" font-family="SegoeUI-Bold, Segoe UI" font-weight="700"><tspan x="-281.519" y="0">Desired Angle: 40°</tspan></text>
  </g>
</svg>
