<svg xmlns="http://www.w3.org/2000/svg" xmlns:xlink="http://www.w3.org/1999/xlink" width="1080" height="2340" viewBox="0 0 1080 2340">
  <defs>
    <filter id="Check_if_your_values_above_are_correct_and_then_you_can_start_the_alignment_process_of_your_device._" x="114" y="1581" width="853" height="328" filterUnits="userSpaceOnUse">
      <feOffset dy="3" input="SourceAlpha"/>
      <feGaussianBlur stdDeviation="3" result="blur"/>
      <feFlood flood-color="#271701" flood-opacity="0.671"/>
      <feComposite operator="in" in2="blur"/>
      <feComposite in="SourceGraphic"/>
    </filter>
    <clipPath id="clip-Profile_X_-_Start">
      <rect width="1080" height="2340"/>
    </clipPath>
  </defs>
  <g id="Profile_X_-_Start" data-name="Profile X - Start" clip-path="url(#clip-Profile_X_-_Start)">
    <rect width="1080" height="2340" fill="#7a7a7a"/>
    <rect id="Retângulo_7" data-name="Retângulo 7" width="1080" height="180" fill="#232222"/>
    <text id="Profile_X" data-name="Profile X" transform="translate(542 122)" fill="#fff" font-size="74" font-family="SegoeUI, Segoe UI"><tspan x="-136.076" y="0">Profile X</tspan></text>
    <path id="Caminho_1" data-name="Caminho 1" d="M16,15a6,6,0,1,0-6-6A6,6,0,0,0,16,15Zm0,30a6,6,0,1,0,6,6A6,6,0,0,0,16,45Zm0-21a6,6,0,1,0,6,6A6,6,0,0,0,16,24Z" transform="translate(989 60)" fill="#fff"/>
    <g id="Retângulo_1" data-name="Retângulo 1" transform="translate(255 1943)" fill="#fff" stroke="#707070" stroke-width="1">
      <rect width="570" height="132" rx="19" stroke="none"/>
      <rect x="0.5" y="0.5" width="569" height="131" rx="18.5" fill="none"/>
    </g>
    <text id="Load_Profile" data-name="Load Profile" transform="translate(360 2038)" fill="#707070" font-size="69" font-family="SegoeUI, Segoe UI"><tspan x="0" y="0">Load Profile</tspan></text>
    <g id="Retângulo_2" data-name="Retângulo 2" transform="translate(255 1943)" fill="#fff" stroke="#707070" stroke-width="1">
      <rect width="570" height="132" rx="19" stroke="none"/>
      <rect x="0.5" y="0.5" width="569" height="131" rx="18.5" fill="none"/>
    </g>
    <text id="Load_Profile-2" data-name="Load Profile" transform="translate(360 2038)" fill="#707070" font-size="69" font-family="SegoeUI, Segoe UI"><tspan x="0" y="0">Load Profile</tspan></text>
    <g id="Retângulo_3" data-name="Retângulo 3" transform="translate(255 1943)" fill="#fff" stroke="#707070" stroke-width="1">
      <rect width="570" height="132" rx="19" stroke="none"/>
      <rect x="0.5" y="0.5" width="569" height="131" rx="18.5" fill="none"/>
    </g>
    <text id="Load_Profile-3" data-name="Load Profile" transform="translate(360 2038)" fill="#707070" font-size="69" font-family="SegoeUI, Segoe UI"><tspan x="0" y="0">Load Profile</tspan></text>
    <g id="Retângulo_4" data-name="Retângulo 4" transform="translate(255 1943)" fill="#fff" stroke="#707070" stroke-width="1">
      <rect width="570" height="132" rx="19" stroke="none"/>
      <rect x="0.5" y="0.5" width="569" height="131" rx="18.5" fill="none"/>
    </g>
    <text id="Load_Profile-4" data-name="Load Profile" transform="translate(360 2038)" fill="#707070" font-size="69" font-family="SegoeUI, Segoe UI"><tspan x="0" y="0">Load Profile</tspan></text>
    <g id="Retângulo_5" data-name="Retângulo 5" transform="translate(255 1943)" fill="#c1e3e8" stroke="#707070" stroke-width="1">
      <rect width="570" height="132" rx="19" stroke="none"/>
      <rect x="0.5" y="0.5" width="569" height="131" rx="18.5" fill="none"/>
    </g>
    <text id="Start_Alignment" data-name="Start Alignment" transform="translate(540 2038)" font-size="69" font-family="SegoeUI, Segoe UI"><tspan x="-237.373" y="0">Start Alignment</tspan></text>
    <path id="Caminho_12" data-name="Caminho 12" d="M76,19H20l6.4-4.8a4,4,0,0,0-4.8-6.4l-16,12a4,4,0,0,0,0,6.4l16,12a4,4,0,0,0,4.8-6.4L20,27H76a16,16,0,1,1,0,32H8a4,4,0,1,0,0,8H76a24,24,0,0,0,0-48Z" transform="translate(51 53)" fill="#fff"/>
    <text id="Lat:_-29.709400767393756_Long:_-53.787578782133565" data-name="Lat: -29.709400767393756, 
Long: -53.787578782133565" transform="translate(123 686)" fill="#fff" font-size="65" font-family="ArialMT, Arial"><tspan x="0" y="0">Lat: -29.709400767393756, </tspan><tspan x="0" y="75">Long: -53.787578782133565</tspan></text>
    <text id="Magnetic_Declination:_10_" data-name="Magnetic Declination: 10°" transform="translate(172 1323)" fill="#fff" font-size="65" font-family="ArialMT, Arial"><tspan x="0" y="0">Magnetic Declination: 10°</tspan></text>
    <g id="magnetic-field" transform="translate(405 965)">
      <path id="Caminho_15" data-name="Caminho 15" d="M193.381,2.7,267.5,75.958a9.344,9.344,0,0,1,2.775,6.59l.607,104.212a9.344,9.344,0,0,1-2.7,6.622L194.923,267.5a9.344,9.344,0,0,1-6.59,2.775l-104.212.607a9.344,9.344,0,0,1-6.622-2.7L3.382,194.923a9.345,9.345,0,0,1-2.775-6.59L0,84.121A9.344,9.344,0,0,1,2.7,77.5L75.958,3.382A9.345,9.345,0,0,1,82.548.607L186.759,0A9.343,9.343,0,0,1,193.381,2.7Z" fill="#e57e25"/>
      <path id="Caminho_16" data-name="Caminho 16" d="M35.807,199.05,35.268,106.4a4.67,4.67,0,0,1,1.349-3.311l65.131-65.893a4.673,4.673,0,0,1,3.3-1.387l92.652-.539a4.67,4.67,0,0,1,3.311,1.349L266.9,101.747a4.673,4.673,0,0,1,1.387,3.3l.539,92.652a4.67,4.67,0,0,1-1.349,3.311L202.345,266.9a4.673,4.673,0,0,1-3.3,1.387l-92.652.539a4.67,4.67,0,0,1-3.311-1.349L37.194,202.345A4.673,4.673,0,0,1,35.807,199.05Z" transform="translate(-16.606 -16.606)" fill="#f0c419"/>
      <path id="Caminho_17" data-name="Caminho 17" d="M323.965,335.406V354.09a4.686,4.686,0,0,1-4.671,4.671H295.938a4.686,4.686,0,0,1-4.671-4.671V335.406Z" transform="translate(-137.143 -157.925)" fill="#fff"/>
      <path id="Caminho_18" data-name="Caminho 18" d="M261.616,166.106v65.4h-32.7v-65.4a18.7,18.7,0,0,0-17.8-18.684A19.461,19.461,0,0,0,191.55,167.18V231.5h-32.7V167.647a52.385,52.385,0,0,1,47.739-52.784,51.339,51.339,0,0,1,55.025,51.243Z" transform="translate(-74.794 -54.021)" fill="#e64c3c"/>
      <g id="Grupo_11" data-name="Grupo 11" transform="translate(37.346 102.757)">
        <path id="Caminho_19" data-name="Caminho 19" d="M191.551,335.406V354.09a4.686,4.686,0,0,1-4.671,4.671H163.524a4.686,4.686,0,0,1-4.671-4.671V335.406Z" transform="translate(-112.142 -260.683)" fill="#fff"/>
        <path id="Caminho_20" data-name="Caminho 20" d="M384.017,258.112a4.671,4.671,0,0,1-3.93-7.189,25.717,25.717,0,0,0,.089-27.525,4.671,4.671,0,1,1,7.9-4.986,35.06,35.06,0,0,1-.121,37.547A4.67,4.67,0,0,1,384.017,258.112Z" transform="translate(-215.963 -204.571)" fill="#fff"/>
        <path id="Caminho_21" data-name="Caminho 21" d="M410.479,261.4a4.671,4.671,0,0,1-3.862-7.294,44.164,44.164,0,0,0,7.65-24.891,43.491,43.491,0,0,0-9.536-27.4,4.671,4.671,0,1,1,7.3-5.825,53.571,53.571,0,0,1,2.315,63.366A4.667,4.667,0,0,1,410.479,261.4Z" transform="translate(-227.422 -194.193)" fill="#fff"/>
        <path id="Caminho_22" data-name="Caminho 22" d="M115.339,258.112a4.666,4.666,0,0,1-3.939-2.153,35.06,35.06,0,0,1-.121-37.547,4.671,4.671,0,1,1,7.9,4.986,25.717,25.717,0,0,0,.089,27.525,4.671,4.671,0,0,1-3.93,7.19Z" transform="translate(-87.204 -204.57)" fill="#fff"/>
        <path id="Caminho_23" data-name="Caminho 23" d="M83.709,261.447a4.666,4.666,0,0,1-3.871-2.048,53.567,53.567,0,0,1,2.317-63.366,4.671,4.671,0,0,1,7.3,5.825,43.485,43.485,0,0,0-9.538,27.4,44.164,44.164,0,0,0,7.65,24.891,4.672,4.672,0,0,1-3.862,7.294Z" transform="translate(-70.578 -194.244)" fill="#fff"/>
      </g>
    </g>
    <g id="map" transform="translate(345 222.535)">
      <g id="Grupo_12" data-name="Grupo 12" transform="translate(100.039 152.677)">
        <path id="Caminho_24" data-name="Caminho 24" d="M476.436,408.31,445.752,239.259a5.726,5.726,0,0,0-2.852-3.983l-77.23-42.955a5.712,5.712,0,0,0-3.23-.695L376.49,372.88l-.471.211,92.427,41.465a5.732,5.732,0,0,0,7.989-6.246Z" transform="translate(-185.999 -191.607)" fill="#44c868"/>
        <path id="Caminho_25" data-name="Caminho 25" d="M226.387,233.385,147.4,192.245a5.715,5.715,0,0,0-3.03-.626,5.918,5.918,0,0,1,.822.006L131.142,372.88l92.9,41.676a5.744,5.744,0,0,0,2.347.5h0Z" transform="translate(-131.142 -191.607)" fill="#44c868"/>
      </g>
      <g id="Grupo_13" data-name="Grupo 13" transform="translate(0 152.679)">
        <path id="Caminho_26" data-name="Caminho 26" d="M114.089,191.627a5.718,5.718,0,0,0-3.23.694L33.628,235.276a5.724,5.724,0,0,0-2.852,3.983L.092,408.31a5.732,5.732,0,0,0,7.988,6.247L100,373.318Z" transform="translate(0 -191.61)" fill="#4ce166"/>
        <path id="Caminho_27" data-name="Caminho 27" d="M337.195,191.628a5.716,5.716,0,0,0-2.208.624L256,233.391V415.065h0a5.729,5.729,0,0,0,2.347-.5l92.9-41.676Z" transform="translate(-60.716 -191.614)" fill="#4ce166"/>
      </g>
      <path id="Caminho_28" data-name="Caminho 28" d="M26.216,306.733l-6.233,34.342,92.3-48.749,2.143-27.644.355-4.585Z" transform="translate(-4.739 -55.174)" fill="#ffdb56"/>
      <path id="Caminho_29" data-name="Caminho 29" d="M108.372,288.294l-.831,10.719-92.3,48.749L.092,431.241a5.732,5.732,0,0,0,7.988,6.247L100,396.249l8.367-107.955Z" transform="translate(0 -61.861)" fill="#a8eefc"/>
      <g id="Grupo_14" data-name="Grupo 14" transform="translate(107.541 172.33)">
        <path id="Caminho_30" data-name="Caminho 30" d="M228.743,272.289,143.475,260.1l-2.5,32.229,87.743,133.25V377.122l-52.358-82.445,52.381,6.265Z" transform="translate(-140.977 -227.504)" fill="#ffbb24"/>
        <path id="Caminho_31" data-name="Caminho 31" d="M437.491,238.005l-37.1-20.635-35.122,8.207.439,5.672,1.735,22.377Z" transform="translate(-194.173 -217.37)" fill="#ffbb24"/>
      </g>
      <path id="Caminho_32" data-name="Caminho 32" d="M344.649,296.361l-3.326-42.908h0l-1.963-25.325L256.03,264.707V293.36l54.432-23.671Z" transform="translate(-60.723 -47.592)" fill="#ffdb56"/>
      <path id="Caminho_33" data-name="Caminho 33" d="M477.783,425.692l-7.707-42.464L368.119,264.9l3.115,40.184L475.8,431.117A5.72,5.72,0,0,0,477.783,425.692Z" transform="translate(-87.308 -56.313)" fill="#ffbb24"/>
      <path id="Caminho_34" data-name="Caminho 34" d="M231.549,27.465a80.247,80.247,0,0,0-80.188,80.123c0,27.329,12.975,56.67,38.566,87.208a274.069,274.069,0,0,0,38.115,37.459,5.737,5.737,0,0,0,7.016,0A274.115,274.115,0,0,0,273.174,194.8c25.591-30.538,38.565-59.878,38.565-87.208A80.249,80.249,0,0,0,231.549,27.465Zm29.7,80.122a29.7,29.7,0,1,1-29.7-29.672A29.685,29.685,0,0,1,261.246,107.587Z" transform="translate(-35.899)" fill="#ff4a4a"/>
      <path id="Caminho_35" data-name="Caminho 35" d="M253.265,27.465a80.638,80.638,0,0,0-10.343.665,80.265,80.265,0,0,1,69.846,79.458c0,27.329-12.975,56.67-38.565,87.208a286.785,286.785,0,0,1-31.28,31.786c4.008,3.472,6.557,5.457,6.835,5.672a5.737,5.737,0,0,0,7.016,0A274.118,274.118,0,0,0,294.89,194.8c25.591-30.538,38.565-59.878,38.565-87.208A80.249,80.249,0,0,0,253.265,27.465Z" transform="translate(-57.614)" fill="#e7343f"/>
      <path id="Caminho_36" data-name="Caminho 36" d="M258.348,467.185l34.545-15.5L256,413.507v54.181h0A5.719,5.719,0,0,0,258.348,467.185Z" transform="translate(-60.716 -91.559)" fill="#ffdb56"/>
      <g id="Grupo_15" data-name="Grupo 15" transform="translate(100.037 192.964)">
        <path id="Caminho_37" data-name="Caminho 37" d="M447.1,251.784a5.726,5.726,0,0,0-2.852-3.983l-6.08-3.382-70.048,15.62h0L470.074,378.371Z" transform="translate(-187.345 -244.42)" fill="#1ea4e9"/>
        <path id="Caminho_38" data-name="Caminho 38" d="M226.386,441.323h0V435.6l-87.742-133.25-7.5,96.8,92.9,41.676A5.731,5.731,0,0,0,226.386,441.323Z" transform="translate(-131.14 -258.158)" fill="#1ea4e9"/>
      </g>
    </g>
    <g transform="matrix(1, 0, 0, 1, 0, 0)" filter="url(#Check_if_your_values_above_are_correct_and_then_you_can_start_the_alignment_process_of_your_device._)">
      <text id="Check_if_your_values_above_are_correct_and_then_you_can_start_the_alignment_process_of_your_device._2" data-name="Check if your values above are correct and then you can start the alignment process of your device.
" transform="translate(123 1587)" fill="#f7d600" font-size="65" font-family="ArialMT, Arial"><tspan x="27.294" y="59">Check if your values above </tspan><tspan x="3.776" y="134">are correct and then you can </tspan><tspan x="27.31" y="209">start the alignment process </tspan><tspan x="206.139" y="284">of your device.</tspan></text>
    </g>
    <line id="Linha_5" data-name="Linha 5" x2="753" y2="7" transform="translate(164.5 1534.5)" fill="none" stroke="#fff" stroke-width="1"/>
  </g>
</svg>
