<svg xmlns="http://www.w3.org/2000/svg" xmlns:xlink="http://www.w3.org/1999/xlink" width="1080" height="2340" viewBox="0 0 1080 2340">
  <defs>
    <filter id="Stably_mount_your_device_so_then_align_it_with_the_north_pole." x="167" y="1788" width="720" height="250" filterUnits="userSpaceOnUse">
      <feOffset dy="3" input="SourceAlpha"/>
      <feGaussianBlur stdDeviation="3" result="blur"/>
      <feFlood flood-color="#271701" flood-opacity="0.671"/>
      <feComposite operator="in" in2="blur"/>
      <feComposite in="SourceGraphic"/>
    </filter>
    <radialGradient id="radial-gradient" cx="0.5" cy="0.5" r="0.5" gradientUnits="objectBoundingBox">
      <stop offset="0" stop-color="#f5ec00"/>
      <stop offset="1" stop-color="#fff501"/>
    </radialGradient>
    <clipPath id="clip-Profile_X_-_Alignment">
      <rect width="1080" height="2340"/>
    </clipPath>
  </defs>
  <g id="Profile_X_-_Alignment" data-name="Profile X - Alignment" clip-path="url(#clip-Profile_X_-_Alignment)">
    <rect width="1080" height="2340" fill="#7a7a7a"/>
    <rect id="Retângulo_7" data-name="Retângulo 7" width="1080" height="180" fill="#232222"/>
    <text id="Pole_Alignment_1_3_" data-name="Pole Alignment (1/3)" transform="translate(542 122)" fill="#fff" font-size="65" font-family="SegoeUI, Segoe UI"><tspan x="-294.658" y="0">Pole Alignment (1/3)</tspan></text>
    <path id="Caminho_1" data-name="Caminho 1" d="M16,15a6,6,0,1,0-6-6A6,6,0,0,0,16,15Zm0,30a6,6,0,1,0,6,6A6,6,0,0,0,16,45Zm0-21a6,6,0,1,0,6,6A6,6,0,0,0,16,24Z" transform="translate(989 60)" fill="#fff"/>
    <g id="Retângulo_1" data-name="Retângulo 1" transform="translate(242 2111)" fill="#fff" stroke="#707070" stroke-width="1">
      <rect width="570" height="132" rx="19" stroke="none"/>
      <rect x="0.5" y="0.5" width="569" height="131" rx="18.5" fill="none"/>
    </g>
    <text id="Load_Profile" data-name="Load Profile" transform="translate(347 2206)" fill="#707070" font-size="69" font-family="SegoeUI, Segoe UI"><tspan x="0" y="0">Load Profile</tspan></text>
    <g id="Retângulo_2" data-name="Retângulo 2" transform="translate(242 2111)" fill="#fff" stroke="#707070" stroke-width="1">
      <rect width="570" height="132" rx="19" stroke="none"/>
      <rect x="0.5" y="0.5" width="569" height="131" rx="18.5" fill="none"/>
    </g>
    <text id="Load_Profile-2" data-name="Load Profile" transform="translate(347 2206)" fill="#707070" font-size="69" font-family="SegoeUI, Segoe UI"><tspan x="0" y="0">Load Profile</tspan></text>
    <g id="Retângulo_3" data-name="Retângulo 3" transform="translate(242 2111)" fill="#fff" stroke="#707070" stroke-width="1">
      <rect width="570" height="132" rx="19" stroke="none"/>
      <rect x="0.5" y="0.5" width="569" height="131" rx="18.5" fill="none"/>
    </g>
    <text id="Load_Profile-3" data-name="Load Profile" transform="translate(347 2206)" fill="#707070" font-size="69" font-family="SegoeUI, Segoe UI"><tspan x="0" y="0">Load Profile</tspan></text>
    <g id="Retângulo_4" data-name="Retângulo 4" transform="translate(242 2111)" fill="#fff" stroke="#707070" stroke-width="1">
      <rect width="570" height="132" rx="19" stroke="none"/>
      <rect x="0.5" y="0.5" width="569" height="131" rx="18.5" fill="none"/>
    </g>
    <text id="Load_Profile-4" data-name="Load Profile" transform="translate(347 2206)" fill="#707070" font-size="69" font-family="SegoeUI, Segoe UI"><tspan x="0" y="0">Load Profile</tspan></text>
    <g id="Retângulo_5" data-name="Retângulo 5" transform="translate(242 2111)" fill="#bbe7d8" stroke="#707070" stroke-width="1">
      <rect width="570" height="132" rx="19" stroke="none"/>
      <rect x="0.5" y="0.5" width="569" height="131" rx="18.5" fill="none"/>
    </g>
    <text id="Check" transform="translate(527 2206)" font-size="69" font-family="SegoeUI, Segoe UI"><tspan x="-92.011" y="0">Check</tspan></text>
    <path id="Caminho_12" data-name="Caminho 12" d="M76,19H20l6.4-4.8a4,4,0,0,0-4.8-6.4l-16,12a4,4,0,0,0,0,6.4l16,12a4,4,0,0,0,4.8-6.4L20,27H76a16,16,0,1,1,0,32H8a4,4,0,1,0,0,8H76a24,24,0,0,0,0-48Z" transform="translate(51 53)" fill="#fff"/>
    <g transform="matrix(1, 0, 0, 1, 0, 0)" filter="url(#Stably_mount_your_device_so_then_align_it_with_the_north_pole.)">
      <text id="Stably_mount_your_device_so_then_align_it_with_the_north_pole.-2" data-name="Stably mount your device so then align it with the north pole." transform="translate(176 1794)" fill="#f7d600" font-size="65" font-family="ArialMT, Arial"><tspan x="89.064" y="59">Stably mount your </tspan><tspan x="38.441" y="134">device so then align it </tspan><tspan x="76.385" y="209">with the north pole.</tspan></text>
    </g>
    <line id="Linha_5" data-name="Linha 5" x2="753" y2="7" transform="translate(150.5 1702.5)" fill="none" stroke="#fff" stroke-width="1"/>
    <g id="compass" transform="translate(168 1085)" opacity="0.5">
      <g id="Grupo_19" data-name="Grupo 19" transform="translate(0 0)">
        <g id="Grupo_18" data-name="Grupo 18">
          <path id="Caminho_42" data-name="Caminho 42" d="M497.173,85.327A290.027,290.027,0,0,0,291.324,0C130.43,0,0,130.43,0,291.176S130.43,582.5,291.176,582.5,582.5,452.07,582.5,291.324A290.731,290.731,0,0,0,497.173,85.327Zm-12.126,399.72h0c-107.065,107.065-280.528,107.213-387.594.148S-9.612,204.666,97.453,97.6,377.981-9.464,485.047,97.453a274.008,274.008,0,0,1,0,387.594Z" transform="translate(0 0)"/>
        </g>
      </g>
      <g id="Grupo_21" data-name="Grupo 21" transform="translate(45.103 45.103)">
        <g id="Grupo_20" data-name="Grupo 20">
          <path id="Caminho_43" data-name="Caminho 43" d="M450.775,102.518A245.014,245.014,0,0,0,276.72,30.5C140.671,30.5,30.5,140.819,30.5,276.721s110.319,246.22,246.22,246.072,246.22-110.318,246.072-246.22A245.631,245.631,0,0,0,450.775,102.518ZM285.15,505.343v-48.8a8.577,8.577,0,0,0-17.154,0v48.8C148.36,500.907,52.386,404.933,47.8,285.15H96.6A8.577,8.577,0,1,0,96.6,268H47.8C52.238,148.213,148.36,52.239,268,47.8V96.6a8.577,8.577,0,0,0,17.154,0h0V47.8C404.932,52.239,500.906,148.361,505.343,268h-48.8a8.577,8.577,0,0,0,0,17.154h48.8A228.738,228.738,0,0,1,285.15,505.343Z" transform="translate(-30.5 -30.5)"/>
        </g>
      </g>
    </g>
    <g id="indicator_compass" transform="translate(270 1186.581)">
      <path id="Caminho_44" data-name="Caminho 44" d="M177.97,127.948a5.545,5.545,0,0,0,6.18,1.155l51.071-22.7,51.071,22.7a5.543,5.543,0,0,0,7.306-7.341L240.275,3.268a5.543,5.543,0,0,0-10.109,0L176.843,121.763A5.542,5.542,0,0,0,177.97,127.948Zm62.794-31.212V31.37l36.769,81.709ZM229.677,31.37V96.736l-36.769,16.341Z" transform="translate(-46.011)" fill="#00eb38"/>
      <path id="Caminho_45" data-name="Caminho 45" d="M260,181.9v30.768l-25.571-34.094a5.543,5.543,0,0,0-9.978,3.326v47.4a5.543,5.543,0,0,0,11.086,0V198.528l25.571,34.094a5.543,5.543,0,0,0,9.978-3.326V181.9a5.543,5.543,0,0,0-11.086,0Z" transform="translate(-58.559 -46.011)" fill="#00eb38"/>
      <path id="Caminho_46" data-name="Caminho 46" d="M311.154,50.974a154.433,154.433,0,0,1,110.92,125.811,5.543,5.543,0,0,0,10.966-1.629A165.533,165.533,0,0,0,314.15,40.3a5.543,5.543,0,1,0-3,10.674Z" transform="translate(-80.124 -10.46)" fill="#00eb38"/>
      <path id="Caminho_47" data-name="Caminho 47" d="M41.092,205.034a5.543,5.543,0,1,0,0-11.086h-6.2A154.593,154.593,0,0,1,149.17,50.306,5.544,5.544,0,0,0,146.3,39.6,165.7,165.7,0,0,0,23.8,193.947H5.543a5.543,5.543,0,1,0,0,11.086Z" transform="translate(0 -10.281)" fill="#00eb38"/>
      <path id="Caminho_48" data-name="Caminho 48" d="M381.857,248.5H346.308a5.543,5.543,0,1,0,0,11.086h6.2c-2.865,80.75-68.02,145.906-148.77,148.77v-6.2a5.543,5.543,0,1,0-11.086,0v6.2a154.442,154.442,0,0,1-147.2-131.43,5.543,5.543,0,0,0-10.966,1.628A165.526,165.526,0,0,0,192.647,419.451v18.259a5.543,5.543,0,1,0,11.086,0V419.452A165.479,165.479,0,0,0,363.6,259.586h18.257a5.543,5.543,0,1,0,0-11.086Z" transform="translate(-8.981 -64.834)" fill="#00eb38"/>
    </g>
    <g id="compass-2" data-name="compass" transform="translate(180.896 312.897)" opacity="0.5">
      <g id="Grupo_21-2" data-name="Grupo 21" transform="translate(-29.897 14.103)">
        <g id="Grupo_20-2" data-name="Grupo 20">
          <path id="Caminho_43-2" data-name="Caminho 43" d="M578.978,124.487A319.754,319.754,0,0,0,351.829,30.5C174.278,30.5,30.5,174.471,30.5,351.829S174.471,673.157,351.829,672.964,673.157,528.994,672.964,351.636A320.56,320.56,0,0,0,578.978,124.487ZM362.829,650.192V586.505a11.193,11.193,0,1,0-22.387,0v63.687C184.313,644.4,59.063,519.151,53.08,362.829h63.687a11.193,11.193,0,1,0,0-22.387H53.08C58.87,184.121,184.313,58.87,340.442,53.08v63.687a11.193,11.193,0,1,0,22.387,0h0V53.08C519.151,58.87,644.4,184.314,650.191,340.443H586.5a11.193,11.193,0,0,0,0,22.387h63.687C644.4,519.151,519.151,644.4,362.829,650.192Z" transform="translate(-30.5 -30.5)"/>
        </g>
      </g>
    </g>
    <text id="_0_" data-name="0°" transform="translate(870.5 1403)" fill="#0f8" stroke="#707070" stroke-width="1" font-size="65" font-family="SegoeUI-Bold, Segoe UI" font-weight="700"><tspan x="-31.04" y="0">0°</tspan></text>
    <text id="_0_2" data-name="0°" transform="translate(870.5 675)" fill="#0f8" stroke="#707070" stroke-width="1" font-size="65" font-family="SegoeUI-Bold, Segoe UI" font-weight="700"><tspan x="-31.04" y="0">0°</tspan></text>
    <text id="_0_3" data-name="0°" transform="translate(490 290)" fill="#0f8" stroke="#707070" stroke-width="1" font-size="65" font-family="SegoeUI-Bold, Segoe UI" font-weight="700"><tspan x="-31.04" y="0">0°</tspan></text>
    <g id="Elipse_1" data-name="Elipse 1" transform="translate(404 580)" stroke="#707070" stroke-width="1" fill="url(#radial-gradient)">
      <circle cx="68" cy="68" r="68" stroke="none"/>
      <circle cx="68" cy="68" r="67.5" fill="none"/>
    </g>
    <g id="compass-3" data-name="compass" transform="translate(180.896 312.897)" opacity="0.5">
      <g id="Grupo_21-3" data-name="Grupo 21" transform="translate(-29.897 14.103)">
        <g id="Grupo_20-3" data-name="Grupo 20">
          <path id="Caminho_43-3" data-name="Caminho 43" d="M578.978,124.487A319.754,319.754,0,0,0,351.829,30.5C174.278,30.5,30.5,174.471,30.5,351.829S174.471,673.157,351.829,672.964,673.157,528.994,672.964,351.636A320.56,320.56,0,0,0,578.978,124.487ZM362.829,650.192V586.505a11.193,11.193,0,1,0-22.387,0v63.687C184.313,644.4,59.063,519.151,53.08,362.829h63.687a11.193,11.193,0,1,0,0-22.387H53.08C58.87,184.121,184.313,58.87,340.442,53.08v63.687a11.193,11.193,0,1,0,22.387,0h0V53.08C519.151,58.87,644.4,184.314,650.191,340.443H586.5a11.193,11.193,0,0,0,0,22.387h63.687C644.4,519.151,519.151,644.4,362.829,650.192Z" transform="translate(-30.5 -30.5)"/>
        </g>
      </g>
    </g>
    <text id="_0_4" data-name="0°" transform="translate(870.5 675)" fill="#0f8" stroke="#707070" stroke-width="1" font-size="65" font-family="SegoeUI-Bold, Segoe UI" font-weight="700"><tspan x="-31.04" y="0">0°</tspan></text>
    <g id="Elipse_2" data-name="Elipse 2" transform="translate(404 580)" stroke="#707070" stroke-width="1" fill="url(#radial-gradient)">
      <circle cx="68" cy="68" r="68" stroke="none"/>
      <circle cx="68" cy="68" r="67.5" fill="none"/>
    </g>
    <text id="_0_5" data-name="0°" transform="translate(870.5 1403)" fill="#0f8" stroke="#707070" stroke-width="1" font-size="65" font-family="SegoeUI-Bold, Segoe UI" font-weight="700"><tspan x="-31.04" y="0">0°</tspan></text>
  </g>
</svg>
